<svg xmlns="http://www.w3.org/2000/svg" viewBox="0 0 402.8 349.42"><defs><style>.cls-1,.cls-40,.cls-41{fill:#a45526;}.cls-1,.cls-39,.cls-41{stroke:#262626;stroke-miterlimit:10;}.cls-1{stroke-width:4px;}.cls-2{fill:#d9bec4;}.cls-3{fill:#44342c;}.cls-4{fill:#55432e;}.cls-5{fill:#8c706e;}.cls-6{fill:#dac2c0;}.cls-7{fill:#211612;}.cls-8{fill:#f1bfa4;}.cls-9{fill:#fecfa4;}.cls-10{fill:#e0bbb0;}.cls-11{fill:#5c463a;}.cls-12{fill:#ac8d95;}.cls-13{fill:#845028;}.cls-14{fill:#edcba5;}.cls-15{fill:#faeae4;}.cls-16{fill:#5a4441;}.cls-17{fill:#785b42;}.cls-18{fill:#c9a8a2;}.cls-19{fill:#64564a;}.cls-20{fill:#af9494;}.cls-21{fill:#726669;}.cls-22{fill:#bfb2bd;}.cls-23{fill:#56433b;}.cls-24{fill:#c2c2dd;}.cls-25{fill:#f0eaed;}.cls-26{fill:#ccc1d8;}.cls-27{fill:#b4a4ad;}.cls-28{fill:#f58b5a;}.cls-29{fill:#3e373f;}.cls-30{fill:#f3dde8;}.cls-31{fill:#4e4851;}.cls-32{fill:#e6e2ea;}.cls-33{fill:#b4a6bb;}.cls-34{fill:#504a5c;}.cls-35{fill:#2f272d;}.cls-36{fill:#5d404b;}.cls-37{fill:#333532;}.cls-38{fill:#ac6751;}.cls-39{fill:#5b4f47;}.cls-39,.cls-41{stroke-width:2px;}.cls-42{fill:#262626;}</style></defs><g id="Layer_2" data-name="Layer 2"><g id="Layer_1-2" data-name="Layer 1"><g id="chipping_sparrow" data-name="chipping sparrow"><path class="cls-1" d="M256.49,213.5c4.37-2.37,8.44-4.79,12.89-7.21,2-1.08,4.11-2.33,5.06-4.35,2.23-.49,4.09-2.25,5.68-4a51.81,51.81,0,0,0,6.17-7.7c.55-.88,1-1.77,1.52-2.69a114.56,114.56,0,0,0,33.4-78,72.77,72.77,0,0,0-1.68-18.27,58.38,58.38,0,0,0-4.31-12,69.57,69.57,0,0,0-5.77-9.82c-.78-1.1-1.83-2.44-3.22-2.82a13.15,13.15,0,0,0-.87-8.71c-1.58-3.59-15.12-27.63-22.64-34.18-3.07-2.68-8.17-8.22-11.5-10.57-15.45-10.9-32.75-13.08-51.4-10a42.71,42.71,0,0,0-10.38,2.91C200.9,10,194.65,17.43,188.72,24.64c-.9,1.1-1.81,2.22-2.68,3.37l-.42.18A75.09,75.09,0,0,0,172,35.65q-1.8,1.26-3.54,2.61-.87.68-1.71,1.38c-.22.18-1.74,1.51-1.87,1.62-.87.64-.6,2.11.24,2.8a5.5,5.5,0,0,0,3,.91c4.78.46,9.65,1.1,14.45,1.21A8.57,8.57,0,0,0,185,48.44c4.05,2.62,8.18,7.61,12.08,10.49.46.33.91.63,1.36.91-.07,2.26,2.8,9.39,2.83,10.87a26.24,26.24,0,0,1-1.46,7.73c-.43,1.45-.89,3-1.19,4.47l-.28,0c-2.56.47-4.31,2.79-5.79,4.94l-10.68,15.45c-2.32,3.34-4.88,9.75-7.14,13.14-1.63,2.44-4.63,6.27-3.68,7.92-.26.26-.51.53-.75.8a95.46,95.46,0,0,0-17,26.46,23.46,23.46,0,0,0-1.77,5.49c-.39.56-.75,1.13-1.09,1.71-4.26,7.25-6.89,15.33-9.47,23.33q-2.91,9-5.8,17.92a6.39,6.39,0,0,0-.31,1.53,121,121,0,0,0-5.85,26.64c3.94-.54,7.3-2.93,9.93-6-6.89,12.45-14.41,23.31-21.46,34.67q-7.16,11.55-14.48,23c-9.79,15.28-19.83,30.46-31.46,44.39-3.7,4.43-7.79,9.41-7.36,15.16a4.71,4.71,0,0,0,3-2,7.61,7.61,0,0,0-.15,2l7.77,0a2.3,2.3,0,0,1,1.77.5,3,3,0,0,1,.52,1.48,5.91,5.91,0,0,0,4.42,4.23,10.16,10.16,0,0,0,6.3-.73c5.47-2.3,9.16-7.4,12.52-12.28.46-.67.92-1.33,1.37-2,0,.32,0,.63,0,.94a23.88,23.88,0,0,0,2,7.79,17.48,17.48,0,0,0,3.35,5.8,6.71,6.71,0,0,0,6.08,2.17c2.39-.54,4-2.69,5.36-4.75,12-18.41,17-40.43,27.34-59.82,3.1-5.84,6.67-11.43,10.23-17q2.11-3.32,4.24-6.63l7.62-11.94c.91-1.42,2.6-3.22,2.62-5a1.19,1.19,0,0,0-.24-.83,30.76,30.76,0,0,1,3.24-1.08,3.47,3.47,0,0,0,2.07-1.17,2.38,2.38,0,0,0,.37-.77c4.76.2,9.57-.73,14.25-1.75l2.69-.6q10.83-2.44,21.52-5.49,8.93-2.55,17.73-5.51"/><g id="Chipping_Sparrow-2" data-name="Chipping Sparrow"><g id="tail"><path class="cls-2" d="M156,265.72c-3.56,5.57-7.13,11.16-10.23,17-10.3,19.39-15.38,41.41-27.34,59.82-1.34,2.06-3,4.21-5.36,4.75a6.71,6.71,0,0,1-6.08-2.17,17.48,17.48,0,0,1-3.35-5.8,23.88,23.88,0,0,1-2-7.79c-.21-4.7,2-9.16,4.67-13.06,4.18-6.14,9.48-11.43,13.79-17.48,9-12.65,13.5-28.29,23.6-40.1,6.49-7.6,15-13.19,23.3-18.69.9-.59,3.53-2.19,3.52-.06,0,1.79-1.71,3.59-2.62,5l-7.62,11.94Z"/><path class="cls-3" d="M100.26,332.59c-3.36,4.88-7.05,10-12.52,12.28a10.16,10.16,0,0,1-6.3.73A5.91,5.91,0,0,1,77,341.37a3,3,0,0,0-.52-1.48,2.3,2.3,0,0,0-1.77-.5l-7.77,0c-.27-4.15,3.1-7.51,6.05-10.45,19.46-19.39,30.61-45.51,47.6-67.1,6.33-8,14.45-15.94,24.65-16.73,2.25-.18,6.52-.1,6.75,3,.2,2.76-2.14,5.67-3.43,7.9q-5.49,9.52-11.16,18.95t-11.56,18.78Q120,303,114,312.21t-12.25,18.25Z"/><path class="cls-4" d="M157,248.87c-6.5,4.66-12.72,9.88-20.09,13a10.5,10.5,0,0,1-4.86,1.07,4.34,4.34,0,0,1-3.86-2.73c-.66-2.1.87-4.2,2.3-5.88,7.58-8.84,14.28-19.47,24.18-25.6,2-1.22,5.3-3.91,7.61-3.81s4.29,4.69,6.24,6,4.39,2.7,6.34,4.3a2.84,2.84,0,0,1,.69,3.87,3.47,3.47,0,0,1-2.07,1.17c-1.13.31-2.25.69-3.35,1.11a46.59,46.59,0,0,0-6.35,3.1C161.48,245.79,159.23,247.3,157,248.87Z"/><path class="cls-5" d="M102.12,295l-10,12.15L67.3,337.21c-.85,1-1.86,2.16-3.2,2.26-.43-5.75,3.66-10.73,7.36-15.16,11.63-13.93,21.67-29.11,31.46-44.39q7.32-11.43,14.48-23c9.64-15.54,20.19-30.14,28.75-49.17.86-1.9,3.43-.68,5.51-.82,2.3-.15,4.22,2.06,4.58,4.34s-.43,4.57-1.23,6.73c-1.95,5.21-4.41,10.23-5.86,15.61-1.31,4.85-4.77,8.61-7.77,12.52q-6.09,7.95-12.33,15.76t-12.62,15.62q-6.34,7.79-12.74,15.52C103.17,293.68,102.65,294.32,102.12,295Z"/><path class="cls-6" d="M160.42,216.33c1.28,2.13-1.22,7.4-1.83,9.8a7.38,7.38,0,0,1-1.59,2.71l-10.81,13.58c-3.5,4.39-7.25,9-12.51,10.94-.24-3.93,2.07-7.48,4.11-10.85A67.85,67.85,0,0,0,146.72,221c1.16-5.67-.52-11.54,1.33-17,.83-2.47,13.8-22,16.17-20.92,0,.63-8.35,19.39-8.56,20-.45,1.26.17,2.48,0,3.8-.34,2.66,1.13,5.05,1.9,7.61C158,215.85,159.64,215.07,160.42,216.33Z"/></g><g id="wing"><path class="cls-7" d="M178.84,165.31,158.49,190c-3.62,4.39-7.26,8.81-10,13.83-2.59,4.82-4.25,10.11-7,14.8s-7.15,8.93-12.56,9.67a121.63,121.63,0,0,1,15.79-48.49c1.64-2.83,3.4-5.6,4.78-8.57a86.86,86.86,0,0,0,3.62-10c2.51-7.75,5.4-15.45,9.67-22.39s10-13.16,17.19-17c4.26-2.27,9.16-3.69,13.94-2.93s9.31,4,10.62,8.69a15,15,0,0,1,.28,5.79c-.63,5.22-3.1,11.56-7.44,14.83-1.45,1.09-3.26,1.54-4.79,2.5-2.54,1.58-4.63,4-6.63,6.21C183.49,159.66,181.16,162.49,178.84,165.31Z"/><path class="cls-8" d="M193.65,111.76a25,25,0,0,1-13.78,6.09c-.46.05-7.6,7.32-8,7.18-2.85-1,.95-5.71,2.85-8.56,2.26-3.39,4.82-9.8,7.14-13.14L192.5,87.88c1.48-2.15,3.23-4.47,5.79-4.94,2.28-.41,4.55.79,6.32,2.28A13.64,13.64,0,0,1,209.18,92a8.51,8.51,0,0,1-.31,5.76c-.58,1.14-1.42,1.45-1.85,2.55-1,2.63-3.44,5-5.71,7.61C199.89,109.56,195.29,110.32,193.65,111.76Z"/><path class="cls-9" d="M205.81,93.05a4.49,4.49,0,0,1,.19,3.54,12.09,12.09,0,0,1-1.76,3.18,84.18,84.18,0,0,1-10.13,11.86c-.05-.24-3.73,3.75-6.26,5.14a7.22,7.22,0,0,1-2.21.91,2.63,2.63,0,0,1-2.25-.54,3.88,3.88,0,0,1-.9-2.65,7,7,0,0,1,.07-2,7.42,7.42,0,0,1,1-2.25c1.15-1.87,2.33-3.72,3.57-5.54s2.52-3.55,3.91-5.23a47.86,47.86,0,0,1,4.48-4.75,22.47,22.47,0,0,1,2.54-2.12,4.17,4.17,0,0,1,2.06-.76,7.13,7.13,0,0,0,1.11-.18,5.84,5.84,0,0,1,1.65-.34,3.41,3.41,0,0,1,2.89,1.72Z"/><path class="cls-10" d="M198.62,117.81a6.36,6.36,0,0,1-2.57,1.89,7.57,7.57,0,0,1-2.42.27l-4,0c-1.09,0-2.4-.11-2.9-1.08s.34-2.34,1.18-3.22l5.6-5.9a12.72,12.72,0,0,1,4.07-3.25c1.6-.67,4.57-.67,5.28,1.32s-.86,4.82-1.77,6.48A18.82,18.82,0,0,1,198.62,117.81Z"/><path class="cls-11" d="M134,221.6a15.68,15.68,0,0,0-1.48,1.88c-.44.73-.71,1.56-1.12,2.31a3.32,3.32,0,0,1-1.83,1.69c0-2.63,1.36-5,2-7.57.35-1.4.48-2.86.88-4.24s1.23-2.92,1.68-4.43a29.22,29.22,0,0,0,.7-3.71,18.78,18.78,0,0,1,1.88-6,9.48,9.48,0,0,1,4.5-4.3,4.57,4.57,0,0,1,3.09-.26,2.79,2.79,0,0,1,1.86,2.3,3.66,3.66,0,0,1-.14,2.29,12.35,12.35,0,0,1-1.45,2,40.55,40.55,0,0,0-3.63,5.77c-1,2-1.94,4-3,6a33.81,33.81,0,0,1-3.47,5.66C134.31,221.18,134.14,221.39,134,221.6Z"/><path class="cls-12" d="M149,196.12c-2.27,3.34-5.23,6.92-9.26,7.08a2.06,2.06,0,0,1-1.1-.2,1.85,1.85,0,0,1-.76-1.13c-.6-2,.38-4.13,1.33-6l7.14-14.12c3.36-6.64,6.94-13.54,13-17.85a7.53,7.53,0,0,1,4.28-1.7,5.25,5.25,0,0,1,4.64,3.29c.73,1.76.8,4.64-.71,6a59.32,59.32,0,0,0-4.88,5,124.67,124.67,0,0,0-8.91,12.37C152.23,191.32,150.67,193.74,149,196.12Z"/><path class="cls-13" d="M144.59,191.54c-1.75,3.86-3.34,7.9-6.2,11-.7.77-1.74,1.52-2.7,1.11-1.21-.53-1-2.3-.6-3.57q2.9-9,5.8-17.92c2.58-8,5.21-16.08,9.47-23.33,1.25-2.13,2.76-4.29,5-5.27s5.51-.3,6.32,2.24c.51,1.64-.28,3.35-.51,5-.14,1-.15,2-.35,3.06-.57,2.84-3,5.17-4.67,7.45q-3.17,4.47-5.93,9.22A122.9,122.9,0,0,0,144.59,191.54Z"/><path class="cls-14" d="M173.47,161.39a21.69,21.69,0,0,1-3.41,5.74,6.39,6.39,0,0,1-6,2.14c-1.6-.43-2.86-1.68-4.38-2.32s-3.31-.67-4.8-1.4c-2.32-1.15-3.54-3.87-3.57-6.45a18.45,18.45,0,0,1,1.92-7.45,95.46,95.46,0,0,1,17-26.46,13.54,13.54,0,0,1,3.14-2.76c4.22-2.39,9.47,0,13.65,2.44,2.76,1.64,5.82,3.53,7.18,6.58,1.1,2.44,1.36,5.58-1.28,6.57-5.89,2.23-11.69,7.31-15.4,12.69C175.35,153.88,175.13,157.92,173.47,161.39Z"/><path class="cls-15" d="M174.42,131.05a2.59,2.59,0,0,1,.87-.42c.7,0,1.05.84,1.64,1.22.82.52,1.89-.08,2.6-.74s1.49-1.46,2.46-1.38a7,7,0,0,0,.12,2.73,2.32,2.32,0,0,0,2,1.7,3.26,3.26,0,0,0,1.48-.44,21.69,21.69,0,0,0,8.83-8.21,3.83,3.83,0,0,0,.66-1.83c0-1.43-1.34-2.44-2.57-3.17-3.34-2-7.16-4-10.95-3.1-3.11.73-5.2,3.16-7.3,5.38a8.81,8.81,0,0,0-2.59,5.72C171.54,129.86,172.85,131.84,174.42,131.05Z"/><path class="cls-16" d="M172.92,125.7a14.66,14.66,0,0,0,4.23-1.7l.14,1.62a6.42,6.42,0,0,0,5.23-2,8.19,8.19,0,0,1,1.75,4.33,60.38,60.38,0,0,0,12.85-6.87c.79-.55,1.64-1.62,1-2.34a2.28,2.28,0,0,0-1-.48,22.77,22.77,0,0,1-3.07-1.57,16.73,16.73,0,0,0-3.44-1.21,22.57,22.57,0,0,0-5.61-.7c-3.64.09-5.27,2.94-7.78,5.09C175.48,121.33,172.23,122.91,172.92,125.7Z"/></g><g id="body"><path class="cls-17" d="M190.21,236.54c-5.92,1.3-12,2.46-18,1.35s-11.77-5-13.42-10.83c-1.44-5.08.48-10.52,3.14-15.07a10.89,10.89,0,0,1,3.61-4.14c1.9-1.12,4.23-1.14,6.43-1.12l30.32.22a134.19,134.19,0,0,1,18.91,1.14c6.09.91,12.18,2.58,17.47,5.82,2,1.2,3.83,3.08,3.38,5.59-.53,2.93-4.11,3.47-6.45,4.28q-10.5,3.63-21.18,6.67t-21.52,5.49Z"/><path class="cls-18" d="M180.34,184.13a100,100,0,0,1-16.89,28.63c-1.51,1.8-3.44,3.7-5.8,3.57s-4.32-2.63-4.55-5.07.72-4.84,1.65-7.12c3.49-8.51,6.79-17.24,11.07-25.41a12.15,12.15,0,0,1,4.47-5.18c2.69-1.58,6.86-3.08,10-2.85.9.07,1,.11,1.33,1a9.27,9.27,0,0,1,.49,1.71,12.68,12.68,0,0,1,.11,3.69A27.66,27.66,0,0,1,180.34,184.13Z"/><path class="cls-19" d="M223.47,173.58c2.3.91,3.95,3,6.13,4.18,6.62,3.6,15-2.11,22.24-.08,5.75,1.61,9.06,7.47,13.72,11.2,2.19,1.76,4.74,3.08,6.72,5.08s3.33,5,2.33,7.62c-.86,2.24-3.12,3.57-5.23,4.71-7.46,4.06-13.85,8.14-22.41,12-2,.88-3.63,2.5-5.71,1.9s-3.64-2.66-5.19-4c-3.73-3.3-9.34-3.46-14.18-2.27s-9.33,3.52-14.18,4.69c-3.7.89-8.12.88-10.72-1.9-3.44-3.69-1.36-10.17,2.8-13s9.53-3,14.56-3.14c.33-3,4.4-4.13,5.45-7,1.37-3.67-2.83-7.36-4.36-10.34-1.63-3.18-2-6.13,1.17-8.44A7.24,7.24,0,0,1,223.47,173.58Z"/><path class="cls-20" d="M205.93,145.7c6.16.53,11.79,4.3,15.29,9.4,3.95,5.77,5.33,13,5.13,20s-1.86,13.85-3.51,20.65c-.59,2.44-1.23,5-2.86,6.89a16.29,16.29,0,0,1-4.77,3.41l-12.78,7c-4.37,2.38-9.42,4.84-14.12,3.18-1.91-.68-3.73-2-5.74-1.78-4.21.52-5.66,7.42-9.9,7.25-1-4-3.26-7.66-4.62-11.6s-1.75-8.62.66-12a39.88,39.88,0,0,0,2.69-3.41,13.29,13.29,0,0,0,1.18-4.56,70.18,70.18,0,0,1,7.82-23.38c3.42-6.29,7.93-12.76,13.53-17.32A16.9,16.9,0,0,1,205.93,145.7Z"/><path class="cls-21" d="M213.59,162.72c1.85,1.23,2.07,3.85,3.47,5.56s3.92,2.29,5.9,3.44a9.85,9.85,0,0,1,4.77,9.1,5.75,5.75,0,0,0,.12,3,3.25,3.25,0,0,0,1.53,1.42c5.5,2.83,11.39-3.46,17.57-4.06,5.26-.5,10,3.3,13,7.64,2.52,3.7,5.38,8.56,9.84,8-1.68,2.1.95,5.36,3.65,5.28s4.88-2.13,6.71-4.09a51.81,51.81,0,0,0,6.17-7.7,63.16,63.16,0,0,0,5.25-11.57c1.31-3.5,2.64-7.13,2.4-10.86-.55-8.27-8.28-13.9-13.56-20.34-2.32-2.84-4.25-6-6.69-8.73-7.68-8.61-20.21-12.26-31.66-10.37a41.61,41.61,0,0,0-13.35,4.7c-4.2,2.32-7.53,5.47-11.3,8.36-2.45,1.88-5.28,3.23-7.69,5.16a12.88,12.88,0,0,0-4.27,7.71c-.47,2.15-.61,4.65,1.19,6.29S211.49,161.32,213.59,162.72Z"/><path class="cls-22" d="M319.53,91.34a72.77,72.77,0,0,1,1.68,18.27,114.45,114.45,0,0,1-35.77,80.28c-3.7-8,6.72-16.67,4.76-25.26a1.51,1.51,0,0,0-.65-1.09,1.65,1.65,0,0,0-1.52.35l-7.25,4.55,0-6.29a11,11,0,0,1-4.61,3.11c-1.82.45-4.1-.35-4.59-2.16-.77-2.85,3.16-5.36,2.5-8.24-2.59-1.24-5.12,2-8,2.48-3.27.49-5.9-3.08-6-6.39s1.36-6.42,2.14-9.64c1.34-5.52.62-11.31,1.15-17s2.81-11.76,7.94-14.21c3.85-1.83,8.43-1.19,12.48-2.5,7.29-2.35,11.16-10.27,12.93-17.72,1.66-7,2.22-14.45,5.83-20.81.71-1.26,1.61-2.69,3.28-2.46s2.74,1.71,3.59,2.91a69.57,69.57,0,0,1,5.77,9.82A58.38,58.38,0,0,1,319.53,91.34Z"/><path class="cls-23" d="M195.32,156.41c-1.75,1.34-3.71,2.39-5.53,3.63-7.27,5-12.22,13.16-20.19,16.94,0-3.34,2.42-6.12,4.7-8.56L191,150.57c2.28-2.45,5.8-6.24,9.5-6.09a2.49,2.49,0,0,1,2.37,2.36c.22,1.8-1,3-2.08,4.26A43.16,43.16,0,0,1,195.32,156.41Z"/><path class="cls-24" d="M199.49,86.05c.11,2.67,1.41,5.46,3.84,6.56a11.35,11.35,0,0,1,2.21,1c1.9,1.46,1.11,4.44.17,6.64-3.65,8.53-7,17.19-10.33,25.84L188.5,144a4.9,4.9,0,0,0-.46,3.21c.58,1.77,2.94,2.27,4.74,1.78s3.37-1.63,5.19-2c5.12-1.16,10.94,3.6,15.33.72.1,2.95,3.82,4.62,6.65,3.82s4.9-3.18,6.85-5.39c4.15-4.71,9.74-9.59,15.88-8.33,2,.42,4.2,1.46,6,.44,1.55-.89,2.15-3.09,3.85-3.63,1.4-.44,2.83.46,4.27.74,3.67.73,7-2.64,8.28-6.14s1.51-7.41,3.23-10.74,6-5.89,9.19-3.94c2,1.24,2.82,3.79,4.45,5.53,2.75,3,7.68,3.08,11.17,1.06s5.74-5.72,7.08-9.53c.89-2.56,1.65-5.5,4-6.87,3-1.74,6.7,0,9.67,1.78,1.85-9.52-2.08-19.1-5.91-28a13.75,13.75,0,0,0-2.85-4.72c-2.56-2.41-6.49-2.49-10-2.18-14.28,1.25-27.86,6.42-41.76,9.9s-29,5.2-42.24-.28c-2.52-1-6.37-3.35-9.21-2.47C199.61,79.35,199.41,84.17,199.49,86.05Z"/><path class="cls-25" d="M198.45,87.84a11,11,0,0,0,5.34-1.24,4.2,4.2,0,0,0,5.13,3.5c1.12-.33,2.07-1.13,3.21-1.37,1.56-.33,3.1.45,4.57,1,5.67,2.3,12,2.16,18.12,2a17.4,17.4,0,0,0,6.27-1,40.72,40.72,0,0,0,4.4-2.61c3-1.72,6.45-2.36,9.84-3l22.49-4,4.51-.81,17.16-3.07c1.12-1.53.07-3.88-1.62-4.74s-4.33-2.07-6.2-1.79c-9,1.37-17,5.68-26,7a75.56,75.56,0,0,1-51.53-11.46c-2.28-1.48-4.69-3.24-7.5-3.43-1.94-.13-7.39-5.43-8.17-3.48-.61,1.54,2.73,9.72,2.76,11.31a26.24,26.24,0,0,1-1.46,7.73C198.86,81.45,197.84,84.67,198.45,87.84Z"/></g><g id="head"><path class="cls-26" d="M224.48,75c15.45,6.69,33.1,4.53,49.77,2.26l18.24-2.49c4.67-.64,9.89-1.61,12.55-5.49,2.22-3.24,1.91-7.68.32-11.27s-15.12-27.63-22.64-34.18c-3.07-2.68-8.17-8.22-11.5-10.57-15.45-10.9-32.75-13.08-51.4-10a42.71,42.71,0,0,0-10.38,2.91C200.9,10,194.65,17.43,188.72,24.64c-3.58,4.36-7.43,9.13-7.64,15-.14,3.69.69,6.71,3.87,8.77,4.05,2.62,8.18,7.61,12.08,10.49,4.23,3.11,8.35,3.68,12.52,6.85A72.94,72.94,0,0,0,224.48,75Z"/><path class="cls-27" d="M277.64,64.69c5.61.49,11.17-3,13.68-8.09A18.67,18.67,0,0,0,291,40.31c-2.45-5-7.3-9.16-12.87-9.43a17.37,17.37,0,0,0-7.55,1.59,19.49,19.49,0,0,0-9.46,7.86c-2,3.52-2.85,9.26.39,12.34s5.45,6.86,9.14,9.39A14.65,14.65,0,0,0,277.64,64.69Z"/><path class="cls-28" d="M259.67,15.15a33.62,33.62,0,0,0-7.3-.38c-9.68.24-19.34.67-29,1.11a34.09,34.09,0,0,0-5.88.61,35.14,35.14,0,0,0-7.71,3.1q-8.49,4.18-17.16,8a1.86,1.86,0,0,1-.88.23,1.34,1.34,0,0,1-1-1.57,3.79,3.79,0,0,1,1-1.8c6.06-7.23,12.47-14.73,21.21-18.28a42,42,0,0,1,10.56-2.55,76.18,76.18,0,0,1,39.83,5.74c4.13,1.81,8.3,4.13,11.09,7.77.36.47,1.53,1.72,1.32,2.37s-1.12.4-1.55.35a26.06,26.06,0,0,1-6.3-1.73A50.17,50.17,0,0,0,259.67,15.15Z"/><path class="cls-29" d="M210.52,17.36c-5.62,2.66-11.27,5.34-16.31,9a3.62,3.62,0,0,1-1.82.86c-.69,0-1.44-.54-1.31-1.21a1.75,1.75,0,0,1,.42-.72,80.09,80.09,0,0,1,8.25-8.53c1.48-1.31,3-2.54,4.56-3.77a2.78,2.78,0,0,1,3.79-.23A5.21,5.21,0,0,1,210.52,17.36Z"/><path class="cls-30" d="M194,32.33c-2.14-1.62-3.2-5-1.44-7,.53.63,1.54,0,2.16-.5a19.7,19.7,0,0,1,8.76-4.42,11.51,11.51,0,0,0,1.94-.5,20.11,20.11,0,0,0,2.12-1.19,17.29,17.29,0,0,1,5.54-1.58l8.29-1.37c3.19-.53,6.38-1.06,9.6-1.27,2.7-.18,5.43-.13,8.1-.57,1.52-.26,3-.67,4.54-.89a35.72,35.72,0,0,1,9.94.49l12.67,1.83a19.71,19.71,0,0,1,3.65.75A17.66,17.66,0,0,1,273.62,18c7,4.39,13.2,10.57,16.06,18.33-1.85.56-3.84-.29-5.43-1.39s-3-2.47-4.83-3.18a18.64,18.64,0,0,0-3.94-.82c-7.35-1.09-14.21-4.27-21.38-6.26s-15.22-2.7-21.71.93a3.4,3.4,0,0,1-1.62.59,3.72,3.72,0,0,1-1.91-.95,9.89,9.89,0,0,0-13.48,2.46A8.88,8.88,0,0,1,213.6,30a7.05,7.05,0,0,1-3.21,1,21.48,21.48,0,0,0-6.68,2.36c-1,.55-1.64,1.21-2.8,1.08a23.22,23.22,0,0,1-3.42-.56A9.72,9.72,0,0,1,194,32.33Z"/><path class="cls-31" d="M196.19,33.61A10.64,10.64,0,0,1,200,31.84c3-.94,6.16-1.9,9.34-1.67a9.64,9.64,0,0,0,3.86,0c1.69-.6,2.63-2.36,3.87-3.67a9.09,9.09,0,0,1,8.79-2.5c1.9.51,3.66,1.65,5.63,1.66a12,12,0,0,0,3.71-.88,38.67,38.67,0,0,1,18.58-.9,92.72,92.72,0,0,1,17.93,5.46,40.6,40.6,0,0,1,9.18,4.58A14.79,14.79,0,0,1,286.81,42a16,16,0,0,0-6.16-.52c-1.89.21-3.74.75-5.64.89a13.85,13.85,0,0,1-10.08-3.33c-1.81-1.58-3.2-3.62-5.15-5a14.64,14.64,0,0,0-9-2.24c-3.16.11-6.27.8-9.41,1.15a43.77,43.77,0,0,1-8.41.14,13,13,0,0,0-4.22.07c-1.93.5-3.47,2-5.4,2.51-1.71.45-3.51.08-5.28,0a16.21,16.21,0,0,0-12.29,4.91,2.82,2.82,0,0,1-1,.8,2.55,2.55,0,0,1-1.8-.27l-5.81-2.41c-1.44-.6-2.64-.89-2.33-2.67A4.14,4.14,0,0,1,196.19,33.61Z"/><path class="cls-32" d="M227.23,66.59a34.93,34.93,0,0,0,8.91.71l8.64,0a22.17,22.17,0,0,0,5.75-.53c2-.54,4.1-2.16,3.8-4.21s-2.53-2.94-4.47-3.47a96.94,96.94,0,0,0-19.8-3.3,16.58,16.58,0,0,0-6.66.57c-1.7.61-4.1,2.19-3.92,4.27s2.5,3.6,4,4.5A14.09,14.09,0,0,0,227.23,66.59Z"/><path class="cls-33" d="M222.22,53c6.29,3.49,13.34,5.36,20.39,6.8,3.75.77,7.73,1.4,11.32.09a21.58,21.58,0,0,0,4.88-2.8c3.81-2.63,7.9-5.67,9-10.18,1.13-4.84-1.81-9.94-6-12.64s-9.3-3.44-14.26-3.65a97.85,97.85,0,0,0-13.8.47c-4.6.46-9.17,1.18-13.71,2-2.29.41-4.57.86-6.85,1.31-1.1.21-2.24.37-3.32.67a2.26,2.26,0,0,0-1.53,1.12c-.64,1.31.18,3,.8,4.18a27.17,27.17,0,0,0,3.2,4.64,35,35,0,0,0,8.73,7.31Z"/><path class="cls-34" d="M165.11,41a42.38,42.38,0,0,0,30.48-5.74,4.53,4.53,0,0,0,1.66-1.53A4,4,0,0,0,196.8,30c-1.05-1.89-3.15-3.7-5.41-3.82a5.29,5.29,0,0,0-2.39.6c-1.12.49-2.25,1-3.38,1.45A75.09,75.09,0,0,0,172,35.65q-1.8,1.26-3.54,2.61-.87.68-1.71,1.38C166.49,39.82,165.34,41.05,165.11,41Z"/><path class="cls-35" d="M196.12,44.46c-8.92,3-18.63,1.42-28,.51a5.56,5.56,0,0,1-3.06-.91c-.83-.69-1.1-2.16-.23-2.8a2.7,2.7,0,0,1,1.84-.32,56.84,56.84,0,0,0,14.95-1.17c5.68-1.23,11.19-3.33,17-4,1.86-.22,4.78.13,4.84,2.62.05,1.93-2.43,3.69-3.89,4.55A17.86,17.86,0,0,1,196.12,44.46Z"/><path class="cls-36" d="M189.65,26.23a3.18,3.18,0,0,0,2.46,5.85,4.2,4.2,0,0,0,1.12-3.14,3.7,3.7,0,0,0-.78-2.59,1.75,1.75,0,0,0-2.45-.2"/><path class="cls-37" d="M220.25,25.8a9.72,9.72,0,0,1,7.44-.6,4.54,4.54,0,0,1,3.09,2.6c.57,1.71-.51,3.49-1.53,5a16.29,16.29,0,0,1-2.44,3,7.52,7.52,0,0,1-6.95,1.57,6.88,6.88,0,0,1-4.38-4.08c-.7-1.8.77-3.84,1.91-5.16A9.54,9.54,0,0,1,220.25,25.8Z"/></g><g id="feet"><path class="cls-38" d="M209.92,239.88a1.13,1.13,0,0,0-1.27-.62,1.23,1.23,0,0,0-.65.66,9.2,9.2,0,0,0-.68,1.37l-.79,2.07c-.57,1.48-1.31,3.14-2.81,3.65s-3.14-.3-4.7-.38c.26-.3.52-.59.75-.9a11.71,11.71,0,0,0,1.55-2.76c.13-.35.23-.72.34-1.08l.24-.07a3.23,3.23,0,0,0,1.92-2.57,5.76,5.76,0,0,0-.6-3.25,6.11,6.11,0,0,1-.72-1.93,1.43,1.43,0,0,1,1-1.59,1.37,1.37,0,0,1,1.29.67,4.39,4.39,0,0,1,.53,1.43,4.63,4.63,0,0,0,1.4,2.67,1.76,1.76,0,0,0,2.62-.46,2.62,2.62,0,0,0-.22-1.81c-.59-1.54-1.18-3.07-1.78-4.61a11,11,0,0,0-1.13-2.38c-1.59-2.33-4.6-3.12-7.36-3.75a9.56,9.56,0,0,0-3.79-.33,8.67,8.67,0,0,0-2.41,1l-.26.14a16.32,16.32,0,0,0-2-3.46c-1.15-1.6-3.81-7.18-5.71-7.61-1.17-.27-2.86,1.82-3.81,2.85-.41.45.09,2.27.32,2.78a38.89,38.89,0,0,0,2.51,3.66A27,27,0,0,1,187.2,232c.05.21.09.42.14.63a5.1,5.1,0,0,0,.83,2.6,2.6,2.6,0,0,0,1.86,1,1.46,1.46,0,0,0-.16.36,2,2,0,0,0,.23,1.42,4.53,4.53,0,0,0,.3.46,10.47,10.47,0,0,0,1.35,1.61,3.21,3.21,0,0,0,1.75.75,6.4,6.4,0,0,0,1.08.06,4.18,4.18,0,0,1-.41,3.6c-.83,1.66-2.25,3.31-4.11,3.33a4.29,4.29,0,0,1-2.76-1.12,20.77,20.77,0,0,1-2.1-2.2c-.36-.4-.9-.82-1.38-.57a9.31,9.31,0,0,0,1.24,4.59,6.54,6.54,0,0,0,3.67,2.93,7,7,0,0,0,4.65-.42,11.63,11.63,0,0,0,2.31-1.35,5.46,5.46,0,0,0,1,3.26,4.54,4.54,0,0,0,1.59,1.58,4.42,4.42,0,0,0,3.68,0c3.22-1.29,5.05-4.65,6.47-7.82a17.89,17.89,0,0,0,1.7-5.34A2.76,2.76,0,0,0,209.92,239.88Zm-18.13-4.75.1-.16c.29-.53.62-1.3,1.28-1.44a1.48,1.48,0,0,1,1.72.84,3,3,0,0,1,.19,1.15,4,4,0,0,0-.47-.22A4.61,4.61,0,0,0,191.79,235.13Z"/></g></g><path id="branch" class="cls-39" d="M105.25,217.72a32.55,32.55,0,0,0,26,19.7,46.79,46.79,0,0,1-26.47,1.12c-8.08-2-15.44-6.18-23.26-9-13.39-4.9-27.83-5.91-41.79-8.81-12.33-2.56-24.29-6.6-36.23-10.63a127.81,127.81,0,0,0,25.94,21,108.7,108.7,0,0,0,14.32,7.46,95.1,95.1,0,0,0,37.4,7.53c6.12,0,12.41-.63,18.23,1.26a46.89,46.89,0,0,0,6.14,2c3.34.59,6.73-.32,10-1.22,16.31-4.45,33.73-8.5,49.9-3.54,2.57.79,5.15,1.82,7.85,1.76,4.12-.09,7.72-2.66,11.59-4.07,7.53-2.75,15.83-1,23.79-.21a104.55,104.55,0,0,0,26.8-.67c6.91-1.07,13.72-2.84,20.7-3.32,13.76-.95,27.31,3.13,41,5,12.47,1.68,25.11,1.51,37.69,1.33l37.57-.54c7.91-.11,16.16-.3,23.16-4,4.49-2.36,8.39-8.45,4.91-12.13a324.61,324.61,0,0,1-103,2.33c-8.88-1.23-17.75-2.83-26.71-3a160.2,160.2,0,0,0-18.45.91c-6.18.57-12.36,1.22-18.57,1.36a87.29,87.29,0,0,1-9.15-.25c-3-.26-5.84-.89-8.77-1.3-4.46-.63-8.79,1.78-13,3A118.8,118.8,0,0,1,187,234.23a120.79,120.79,0,0,1-16.23,1.31,123.8,123.8,0,0,1-32.15-3.75,121.08,121.08,0,0,1-15.42-5,116.61,116.61,0,0,1-14.59-7C107.51,219.09,106.37,218.41,105.25,217.72Z"/><path class="cls-40" d="M260.13,216.93a46.11,46.11,0,0,0,18.08,7,10.69,10.69,0,0,0,3.61.11c1.21-.22,2.33-.8,3.52-1.1,3.94-1,8.14,1.28,10.53,4.56s3.34,7.38,4.05,11.38c.4,2.29.7,4.92-3,6.09a6.78,6.78,0,0,1-2.73.19c-1.36-.16-3.45,0-4.45-1.29a4.44,4.44,0,0,1-.67-2.49l-.65-10a1.86,1.86,0,0,0-1.48-1.75c-1.51-.24-2,1.77-2,3.22,0,3.24-.74,7.39-3.92,8a2.12,2.12,0,0,1-2.5-1.14,3.33,3.33,0,0,1,.49-2.18,11,11,0,0,0,.07-8.72,2.82,2.82,0,0,0-1.73-1.83c-.63-.15-1.25.4-1.9.33a59.23,59.23,0,0,0-15.2.46c-2.07.32-25-2.43-28.17-2.81a.11.11,0,0,1,0-.2c2.94-1.36,24.29-11.22,24.4-11.26A15.19,15.19,0,0,0,260.13,216.93Z"/><path class="cls-41" d="M232.15,224.94c3.31.4,26.06,3.13,28.13,2.81a59.23,59.23,0,0,1,15.2-.46c.65.07,1.27-.48,1.9-.33a2.82,2.82,0,0,1,1.73,1.83,11,11,0,0,1-.07,8.72,3.33,3.33,0,0,0-.49,2.18,2.12,2.12,0,0,0,2.5,1.14c3.18-.65,3.94-4.8,3.92-8,0-1.45.5-3.46,2-3.22a1.86,1.86,0,0,1,1.48,1.75l.65,10a4.44,4.44,0,0,0,.67,2.49c1,1.27,3.09,1.13,4.45,1.29a6.78,6.78,0,0,0,2.73-.19c3.66-1.17,3.36-3.8,3-6.09-.71-4-1.66-8.1-4.05-11.38s-6.59-5.56-10.53-4.56c-1.19.3-2.31.88-3.52,1.1a10.69,10.69,0,0,1-3.61-.11,46.11,46.11,0,0,1-18.08-7,15.19,15.19,0,0,1-3.64-3.43"/><path class="cls-38" d="M199.93,256a4.57,4.57,0,0,1-2.17-.51,5.52,5.52,0,0,1-1.95-1.91,7.46,7.46,0,0,1-.94-2.08,10.13,10.13,0,0,1-1.1.54,8.83,8.83,0,0,1-3.39.72,6.82,6.82,0,0,1-1.93-.26,7.52,7.52,0,0,1-4.25-3.38,10.44,10.44,0,0,1-1.38-5.08v-.62l.55-.29a1.7,1.7,0,0,1,.76-.18,2.48,2.48,0,0,1,1.82,1c.17.18.34.38.51.57a14.4,14.4,0,0,0,1.48,1.53,3.48,3.48,0,0,0,2.09.89c1.74,0,2.94-2.13,3.26-2.77a4.16,4.16,0,0,0,.55-2.18l-.48,0a4.18,4.18,0,0,1-2.28-1,11.8,11.8,0,0,1-1.48-1.76,4.28,4.28,0,0,1-.37-.57,3.3,3.3,0,0,1-.4-1.54,3.57,3.57,0,0,1-1.46-1.15,6,6,0,0,1-1-3l-.11-.52a26.19,26.19,0,0,0-3.4-8.51,14.29,14.29,0,0,0-1-1.38,12.49,12.49,0,0,1-1.57-2.39s-1.18-2.76-.15-3.88l.34-.37c1.38-1.55,2.64-2.83,4-2.83a2.1,2.1,0,0,1,.43,0c1.68.39,3.27,2.9,5.16,6.14.46.79.86,1.48,1.14,1.86a21.4,21.4,0,0,1,1.68,2.67,8.13,8.13,0,0,1,2-.72,6.5,6.5,0,0,1,1.19-.11,13.46,13.46,0,0,1,3,.45c3.07.69,6.21,1.59,8,4.16a12.39,12.39,0,0,1,1.24,2.58l1.77,4.61a3.5,3.5,0,0,1,.22,2.53,2.16,2.16,0,0,1-.95,1.11,2.29,2.29,0,0,1,1.48,1.16,3.6,3.6,0,0,1,.27,2.07,18.73,18.73,0,0,1-1.77,5.65c-1.57,3.49-3.51,6.93-7,8.33a6.3,6.3,0,0,1-2.36.48Zm1-10a8,8,0,0,0,1.71.26,2.42,2.42,0,0,0,.75-.11c1.09-.38,1.71-1.78,2.21-3.07l.79-2.07a10.48,10.48,0,0,1,.74-1.5,2.51,2.51,0,0,1,.63-.81,2.93,2.93,0,0,1-1.63-.58,5.4,5.4,0,0,1-1.77-3.22,3.7,3.7,0,0,0-.39-1.11.52.52,0,0,0-.3-.25.66.66,0,0,0-.17.52,3.59,3.59,0,0,0,.45,1.22l.17.37a6.63,6.63,0,0,1,.69,3.83,4.29,4.29,0,0,1-2.34,3.26c-.06.22-.14.44-.22.66a11.63,11.63,0,0,1-1.38,2.59Z"/><path class="cls-42" d="M184.46,213.93a.76.76,0,0,1,.21,0c1.9.43,4.56,6,5.71,7.61a16.32,16.32,0,0,1,2,3.46l.26-.14a8.67,8.67,0,0,1,2.41-1,5.55,5.55,0,0,1,1-.09,12.73,12.73,0,0,1,2.79.42c2.76.63,5.77,1.42,7.36,3.75a11,11,0,0,1,1.13,2.38l1.78,4.61a2.62,2.62,0,0,1,.22,1.81,1.46,1.46,0,0,1-1.42.84,2,2,0,0,1-1.2-.38,4.63,4.63,0,0,1-1.4-2.67,4.39,4.39,0,0,0-.53-1.43,1.42,1.42,0,0,0-1.13-.69l-.16,0a1.43,1.43,0,0,0-1,1.59,6.11,6.11,0,0,0,.72,1.93,5.76,5.76,0,0,1,.6,3.25,3.25,3.25,0,0,1-1.92,2.57l-.24.07c-.11.36-.21.73-.34,1.08a11.71,11.71,0,0,1-1.55,2.76c-.23.31-.49.6-.75.9,1.19.06,2.43.55,3.62.55a3.3,3.3,0,0,0,1.08-.17c1.5-.51,2.24-2.17,2.81-3.65l.79-2.07a9.2,9.2,0,0,1,.68-1.37,1.23,1.23,0,0,1,.65-.66.82.82,0,0,1,.26,0,1.22,1.22,0,0,1,1,.66,2.76,2.76,0,0,1,.17,1.51,17.89,17.89,0,0,1-1.7,5.34c-1.42,3.17-3.25,6.53-6.47,7.82a5.48,5.48,0,0,1-2,.4,3.53,3.53,0,0,1-1.69-.39,4.54,4.54,0,0,1-1.59-1.58,5.46,5.46,0,0,1-1-3.26,11.63,11.63,0,0,1-2.31,1.35,7.81,7.81,0,0,1-3,.64,6.13,6.13,0,0,1-1.65-.22,6.54,6.54,0,0,1-3.67-2.93,9.31,9.31,0,0,1-1.24-4.59.66.66,0,0,1,.3-.07,1.67,1.67,0,0,1,1.08.64,20.77,20.77,0,0,0,2.1,2.2,4.37,4.37,0,0,0,2.72,1.12h0c1.86,0,3.28-1.67,4.11-3.33a4.18,4.18,0,0,0,.41-3.6h-.18a6.58,6.58,0,0,1-.9-.06,3.21,3.21,0,0,1-1.75-.75,10.47,10.47,0,0,1-1.35-1.61,4.53,4.53,0,0,1-.3-.46,2,2,0,0,1-.23-1.42,1.46,1.46,0,0,1,.16-.36,2.6,2.6,0,0,1-1.86-1,5.1,5.1,0,0,1-.83-2.6c-.05-.21-.09-.42-.14-.63a27,27,0,0,0-3.51-8.77,38.89,38.89,0,0,1-2.51-3.66c-.23-.51-.73-2.33-.32-2.78.89-1,2.44-2.88,3.6-2.88m7.33,21.2a4.48,4.48,0,0,1,1.15-.15,4.55,4.55,0,0,1,1.67.32,4,4,0,0,1,.47.22,3,3,0,0,0-.19-1.15,1.43,1.43,0,0,0-1.36-.87,2.19,2.19,0,0,0-.36,0c-.66.14-1,.91-1.28,1.44l-.1.16m-7.33-23.2c-1.91,0-3.48,1.75-4.73,3.16l-.34.37c-1.52,1.65,0,4.93,0,5a13.54,13.54,0,0,0,1.69,2.58,14.59,14.59,0,0,1,.93,1.29,25.37,25.37,0,0,1,3.26,8.13l0,.22.07.31a7,7,0,0,0,1.2,3.48,4.63,4.63,0,0,0,1.31,1.18,4.34,4.34,0,0,0,.47,1.38,4.87,4.87,0,0,0,.44.68,12.54,12.54,0,0,0,1.61,1.91,4.89,4.89,0,0,0,2.35,1.17,5.5,5.5,0,0,1-.35.88c-.54,1.06-1.44,2.21-2.36,2.22h0a2.45,2.45,0,0,1-1.46-.66,14.41,14.41,0,0,1-1.37-1.42l-.52-.59a3.43,3.43,0,0,0-2.56-1.29,2.57,2.57,0,0,0-1.21.29l-1.12.57,0,1.26a11.3,11.3,0,0,0,1.53,5.57,8.48,8.48,0,0,0,4.83,3.82,8,8,0,0,0,2.2.3,9.69,9.69,0,0,0,3.78-.8l.15-.06a8.55,8.55,0,0,0,.66,1.22,6.36,6.36,0,0,0,2.32,2.25,5.53,5.53,0,0,0,2.64.63,7.47,7.47,0,0,0,2.73-.55c3.86-1.54,6-5.34,7.56-8.85a20,20,0,0,0,1.86-6,4.55,4.55,0,0,0-.39-2.63A3,3,0,0,0,211,238a3,3,0,0,0,.25-.51,4.35,4.35,0,0,0-.22-3.24l-1.77-4.62a12.8,12.8,0,0,0-1.34-2.78c-2-2.88-5.31-3.84-8.58-4.58a14.4,14.4,0,0,0-3.23-.47,7.49,7.49,0,0,0-1.37.13,7.59,7.59,0,0,0-1.4.41c-.42-.71-.87-1.37-1.3-2-.25-.35-.66-1.05-1.09-1.78-2.08-3.57-3.72-6.14-5.8-6.61a2.82,2.82,0,0,0-.65-.08Zm21.26,28c0-.13.05-.27.07-.4a4.26,4.26,0,0,0,.06-.5l.26.14c-.13.24-.27.49-.39.76Zm-2.42,3.39a5.12,5.12,0,0,0,1.78-1.8h0l-.42,1.08c-.27.72-.85,2.23-1.59,2.48a1.35,1.35,0,0,1-.43.06h-.14a12.51,12.51,0,0,0,.69-1.5c0-.11.08-.22.11-.33Z"/></g></g></g></svg>