<svg xmlns="http://www.w3.org/2000/svg" viewBox="0 0 575.14 379.86"><defs><style>.cls-1{fill:#665a4a;}.cls-2{fill:#262626;}.cls-3{fill:#7a7c7b;}.cls-4{fill:#292d36;}.cls-5{fill:#d1d0ce;}.cls-6{fill:#161616;}.cls-7{fill:#262425;}.cls-8{fill:#c2baaf;}.cls-9{fill:#423b32;}.cls-10{fill:#544944;}.cls-11{fill:#3e3730;}.cls-12{fill:#885e2a;}.cls-13{fill:#716e64;}.cls-14{fill:#6c4f27;}.cls-15{fill:#1c2228;}.cls-16{fill:#3d3b44;}.cls-17{fill:#cbd3dc;}.cls-18{fill:#1b1a1b;}.cls-19{fill:#242424;}.cls-20{fill:#c9c8c6;}.cls-21{fill:#3f3f4d;}.cls-22{fill:#161718;}.cls-23{fill:#222326;}.cls-24{fill:#1c1b1f;}.cls-25{fill:#493628;}.cls-26{fill:#322826;}.cls-27{fill:#362f2a;}.cls-28{fill:#41392d;}.cls-29{fill:#574844;}.cls-30{fill:#74624a;}.cls-31{fill:#6f6458;}.cls-32{fill:#927263;}.cls-33{fill:#8f7f6a;}.cls-34{fill:#98440b;}.cls-35{fill:#f8f9f5;}.cls-36{fill:#9b947f;}.cls-37{fill:#2b2522;}.cls-38{fill:#313131;}.cls-39{fill:#1d1d20;}.cls-40{fill:#22201d;}.cls-41{fill:#323234;}.cls-42{fill:#6f665e;}.cls-43{fill:#656461;}.cls-44{fill:#363637;}.cls-45{fill:#201f1e;}.cls-46{fill:#64625f;}.cls-47{fill:#811300;}.cls-48{fill:#0e0f11;}.cls-49{fill:#fdfffe;}.cls-50{fill:#231e1a;}.cls-51{fill:#494b56;}.cls-52{fill:#11110f;}.cls-53{fill:#766653;}.cls-54{fill:#5a4a3b;}.cls-55{fill:#72654b;}.cls-56{fill:#8c7058;}.cls-57{fill:#71666c;}.cls-58{fill:#3a251a;}.cls-59{fill:#ad928a;}.cls-60{fill:#755b4b;}.cls-61{fill:#674c34;}.cls-62{fill:#28241f;}.cls-63{fill:#433427;}</style></defs><g id="Layer_2" data-name="Layer 2"><g id="Birds"><g id="eastern-towhee-male"><path class="cls-1" d="M314.9,378.86a10.4,10.4,0,0,1-1.37-.1c-3.2-.49-6.21-2.4-8.63-3.93-4.57-2.89-9.18-5.91-13.65-8.82-12.67-8.27-25.78-16.83-39.53-23.79-9.26-4.69-19-8.76-28.26-12.53-41.83-17.12-84.77-33.11-127.62-47.53-7.86-2.65-17.65-5.94-27.43-7.28l-1.19-.16c-3.64-.48-7.4-1-10.08-3.19-2-1.65-3.21-4.14-4.19-6.35a89.16,89.16,0,0,1-7.36-28.13c-.43-4.64-.54-10.53,2.43-14.93a10.28,10.28,0,0,1,6.63-4.25,8.64,8.64,0,0,1,1.5-.14,6.1,6.1,0,0,1,4,1.33,11.85,11.85,0,0,0,1.64,1,54.82,54.82,0,0,0,8.35,2.76c1.41.38,2.74.74,4,1.15q6.24,2,12.46,4c8.21,2.64,16.57,5.38,24.84,8.14s16.55,5.59,24.75,8.43,16.46,5.77,24.64,8.72l3.05,1.1c12.87,4.66,25.92,9.51,38.53,14.21l21.09,7.85c8.81,3.28,17.92,6.67,25.89,11.89a9.2,9.2,0,0,0,4.74,1.89,4,4,0,0,0,1.71-.37,6.55,6.55,0,0,0,2.8-3.29c3.36-6.59,8.86-14.44,16.06-14.55-2.78,6.23-5.17,13.22-2.4,19.44,1.93,4.35,6.07,7.29,9.39,9.66,13.9,9.88,28.28,20.1,45,25.18,5.35,1.63,11.09,3.75,11.45,8.45.21,2.77-1.7,5.31-3.55,7.76l-.35.47a63.6,63.6,0,0,0-12,28.41l-.06.42a11.91,11.91,0,0,1-1.09,4C319.88,378,317.08,378.86,314.9,378.86Z"/><path class="cls-2" d="M56.15,218.73a5.94,5.94,0,0,1,2,.32,6.78,6.78,0,0,1,1.45.84A12.68,12.68,0,0,0,61.35,221a56.16,56.16,0,0,0,8.51,2.81c1.4.38,2.72.74,4,1.14,4.13,1.3,8.32,2.64,12.45,4,8.26,2.65,16.61,5.39,24.83,8.14s16.55,5.58,24.74,8.43,16.48,5.77,24.63,8.71l3.05,1.1c12.93,4.68,26,9.56,38.73,14.29l2,.73,18.9,7c8.76,3.26,17.82,6.63,25.7,11.79a10.05,10.05,0,0,0,5.28,2.05,5.05,5.05,0,0,0,2.14-.46,7.51,7.51,0,0,0,3.26-3.74c3-5.83,7.64-12.67,13.57-13.84-2.54,6-4.41,12.62-1.72,18.68,2.05,4.6,6.31,7.63,9.73,10.06,14,9.93,28.41,20.2,45.32,25.33,5,1.53,10.44,3.5,10.74,7.56.19,2.4-1.61,4.78-3.35,7.09l-.35.47a64.7,64.7,0,0,0-12.15,28.86l-.06.41a11.14,11.14,0,0,1-1,3.68c-1.09,1.93-3.51,2.62-5.41,2.62a8.25,8.25,0,0,1-1.22-.09c-2.77-.42-5.27-1.9-8.24-3.78-4.57-2.89-9.18-5.9-13.64-8.82-12.7-8.28-25.83-16.85-39.63-23.84-9.29-4.7-19.09-8.79-28.33-12.57C182,311.64,139,295.64,96.16,281.21c-7.9-2.66-17.74-6-27.61-7.32l-1.2-.16c-3.5-.46-7.12-.94-9.57-3-1.83-1.51-3-3.88-3.92-6A88.26,88.26,0,0,1,46.59,237c-.42-4.47-.54-10.13,2.26-14.27a9.3,9.3,0,0,1,6-3.83,7.65,7.65,0,0,1,1.33-.12m0-2a10.37,10.37,0,0,0-1.67.15,11.33,11.33,0,0,0-7.29,4.68c-3,4.45-3.09,10.23-2.59,15.58A90.3,90.3,0,0,0,52,265.59a17.71,17.71,0,0,0,4.47,6.71c3.2,2.66,7.65,3,11.77,3.57,9.32,1.28,18.32,4.23,27.24,7.24q64.52,21.72,127.56,47.5c9.52,3.9,19,7.86,28.19,12.5,18.53,9.39,35.55,21.45,53.1,32.57,2.8,1.77,5.72,3.57,9,4.06a9.64,9.64,0,0,0,1.52.12c2.85,0,5.77-1.18,7.15-3.64a14,14,0,0,0,1.27-4.76,62.81,62.81,0,0,1,11.77-28c2-2.68,4.35-5.57,4.1-8.91-.41-5.44-6.94-7.74-12.16-9.32-16.43-5-30.75-15.1-44.74-25.05-3.56-2.53-7.29-5.25-9.06-9.25-2.82-6.34.11-13.64,3-19.95a12.55,12.55,0,0,0-1.36-.08c-7.73,0-13.47,8-17.11,15.1a5.65,5.65,0,0,1-2.33,2.83,3,3,0,0,1-1.29.28,8.42,8.42,0,0,1-4.19-1.73c-8-5.25-17.1-8.64-26.09-12L203,267.65c-12.9-4.8-25.81-9.61-38.75-14.29l-3.05-1.1q-12.3-4.44-24.66-8.72t-24.75-8.44Q99.38,231,86.92,227q-6.23-2-12.46-4c-4-1.25-8.47-2.12-12.27-3.86-1.21-.55-2.13-1.52-3.41-2a8.14,8.14,0,0,0-2.63-.43Z"/><path class="cls-3" d="M207.4,342.33c-3.39-.78-6.23-3.87-7.22-7.89-.87-3.53-.34-7.27.23-10.49a8.08,8.08,0,0,1,1.43-3.7,6.94,6.94,0,0,1-.2-.85c-.42-2.6.34-5.1,1.07-7.51.12-.37.23-.75.34-1.12A43.92,43.92,0,0,0,204.79,298v-.66a17.15,17.15,0,0,1,.25-4c.85-3.79,3.83-6.25,6.71-8.63,1-.82,2-1.66,2.94-2.56h-1a20.87,20.87,0,0,0-9.33,1.69c-.59.29-1.15.62-1.75,1a15.25,15.25,0,0,1-3.61,1.74,6.58,6.58,0,0,1-1.83.26,5.41,5.41,0,0,1-3.37-1.08,6.89,6.89,0,0,0-1.24,1.06,16.55,16.55,0,0,0-2.41,3.06,9.75,9.75,0,0,0-1.05,6.91l.74,3.27-2.41-2.33a10.11,10.11,0,0,1-2.4-10.19,11.65,11.65,0,0,1,7.5-7.29l.53-.15a6.05,6.05,0,0,1,1.17-1.4,12,12,0,0,1,5-2.22,188.72,188.72,0,0,1,27.4-5.15c1.71-.2,3.49-.4,4.69-1.4a11.35,11.35,0,0,0,1.42-1.54c1-1.26,2.22-2.68,4-2.69,8.9-16.09,17.35-32.69,25.12-49.36a62.22,62.22,0,0,0,3.38-8.25c.38-1.23.7-2.53,1-3.79l.05-.21-.12,0-1.34-1.5-.08-.31a21.43,21.43,0,0,0-1.72-5l-1.22.59A55.6,55.6,0,0,1,249.44,202c-4.21,1.31-8.43,2.41-12,3.33a69.72,69.72,0,0,1-12.28,2.29c-.74.05-1.86.12-3,.12-.94,0-1.79,0-2.6-.12h-.27a5.8,5.8,0,0,1-2.55-.57,10.91,10.91,0,0,1-1.43-.56c-.81.12-1.64.27-2.48.45-.51,1.54-1.93,2.3-3.1,2.92l-.75.41a120.79,120.79,0,0,0-21.38,16.09,119.57,119.57,0,0,0-10.32,11,17.5,17.5,0,0,0-2.9,4.39c-2,4.83.32,10.28,2.84,15.46l.8,1.65-1.82-.22a33.92,33.92,0,0,1-16.11-6.5,8.67,8.67,0,0,1-5.84,3.32,48.43,48.43,0,0,1-.64,5.89c-.42,2.43-1.58,3.88-3.19,4h0a59.08,59.08,0,0,0,1.77,8.1,11.81,11.81,0,0,1,0,3.16c-.06.91-.12,1.95-.09,2.44a1.15,1.15,0,0,1-.3.88,1.18,1.18,0,0,1-.86.38,1.14,1.14,0,0,1-.75-.28c-2.15-1.81-2.72-4.68-3.28-7.46-.16-.82-.32-1.6-.51-2.33a39.8,39.8,0,0,1-1-9.09,18.83,18.83,0,0,1,1.57-11.57c-.86.28-1.75.49-2.63.69a28.85,28.85,0,0,0-3,.81c-4.16,1.52-7.53,5.52-10.3,12.23a56.74,56.74,0,0,0-1.82,6.14c-1.63,6.28-3.47,13.36-7.37,14.06a53.31,53.31,0,0,0-1.16,8.91,54.57,54.57,0,0,0,.06,6l.29,4.31L118.79,299a29.65,29.65,0,0,1-3.73-17.73c.33-3.08,1.53-5.33,3.33-6.3a43.47,43.47,0,0,1,1.25-8.83,45.74,45.74,0,0,1,10-18.74,44.2,44.2,0,0,0-14,3.81l-.44.2-.43-.22a4,4,0,0,1-1.26-1,4.87,4.87,0,0,0-2,2.86,15.29,15.29,0,0,0-.31,4.16c0,.6,0,1.21,0,1.82,0,1.35-.8,2.78-2.12,2.78a1.84,1.84,0,0,1-.47-.06,2.48,2.48,0,0,1-1.53-1.84c-1-3.38-1.8-6.68-.78-9.89a7.39,7.39,0,0,1,6.25-5.09,6.49,6.49,0,0,1,1.94-3.15c2.66-2.3,6.45-2.53,9.22-2.7l25.1-1.51a24.57,24.57,0,0,0,6.91-1.08,24.66,24.66,0,0,0,5.35-3.08l19.14-13.23c4.8-3.33,9.19-6.39,13.49-9.61a48.56,48.56,0,0,1-5.76-1.46,55.62,55.62,0,0,0-5.44-1.39,50.5,50.5,0,0,0-8.34-.51c-1.26,0-2.51,0-3.76-.06a53.36,53.36,0,0,1-20.24-4.73,94.36,94.36,0,0,1-10.44-6L111,178.37c-4.13-2.6-8.41-5.29-12.35-8.34a77,77,0,0,1-8-7.12A68.09,68.09,0,0,1,80.2,149.77l-1.6-2.1c-1.81-2.39-3.69-4.86-5-6.79-6.41-9.18-10.65-18.33-14.79-27.69a122,122,0,0,1-4.66-12.64A27.72,27.72,0,0,1,53,95.63c-.06-.44-.12-.94-.15-1.46-2.07-1.7-3.89-3.34-5.54-5A56.13,56.13,0,0,1,38.4,77.7a49.32,49.32,0,0,1-4.67-11c-.08-.29-.15-.59-.23-.88-9.89-1.73-19.65-3.8-29-6.15l-.37-.09a4.69,4.69,0,0,1-.62,0,2.34,2.34,0,0,1-2.28-1.35,2.69,2.69,0,0,1,.84-3.21A243.86,243.86,0,0,1,31.14,34.93c.3-1.27.64-2.46,1-3.63C35.85,20.51,45,11.33,58,5.46a58.18,58.18,0,0,1,7.61-2.64c.83-.24,1.67-.49,2.5-.75A35.39,35.39,0,0,1,78,1,167.28,167.28,0,0,1,96.37,2.35l1.77.2a54.71,54.71,0,0,1,11.31,2.79l13.71,4.43A36.72,36.72,0,0,1,132,13.53a37,37,0,0,1,5.45,1.81l1.26.48a115.33,115.33,0,0,0,14.49,4.39c4.61,1.07,9.36,2,13.95,2.81l3.24.61c12.47,2.35,28.84,5.78,44.79,11.45,8.31,3,16.49,6.51,24.83,10.19l5.39,2.41.57.25a2.05,2.05,0,0,1,.7-1.31,2.68,2.68,0,0,1,1.78-.57l.49,0c1.44.09,2.72.22,3.9.4a23.07,23.07,0,0,1,6.47,1.88,5,5,0,0,1,1.62.28,52.31,52.31,0,0,0,6.34,1.82l1.13.27c5.42,1.34,10.95,2.51,16.44,3.49,3.09.56,6.24,1.06,9.35,1.5l.92.13c4.39.62,8.93,1.26,13.08,2.92,2.29.3,4.56.79,6.52,1.23,7.77,1.76,15.59,3.74,23.25,5.91a2.65,2.65,0,0,1,.37.12c.7-.07,1.48-.12,2.41-.15,1.22,0,2.44-.06,3.67-.06,2.79,0,5.62.11,8.41.32s3.57,1.61,3.71,2.42c.2,1.16-.44,2.27-1.89,3.29a56.51,56.51,0,0,1-10.24,5.49,67.4,67.4,0,0,1,8.44,1.86l2.14.56a45.29,45.29,0,0,1,5.39.45l.26,0a8.9,8.9,0,0,1,3.59,1h.08c.58,0,1.1,0,1.58-.06a38.63,38.63,0,0,0,4.25-.68c1.19-.23,2.42-.48,3.65-.63a31.92,31.92,0,0,1,3.81-.2c1.66,0,3.33.09,4.95.18l.24,0c1.42-.2,2.58-.39,3.63-.6,3.59-.72,7.15-1.66,10.49-2.56l1.48-.4c3-.8,6.07-1.64,9.14-2.35l1.31-.29a184.76,184.76,0,0,1,18.82-2.84c19.31-2.13,39-3.36,58.38-3.65,3.75-.06,7.84-.09,12.5-.09,4.32,0,8.65,0,13,0,10.75.06,21.87.12,32.67,2.26,1.4.27,2.79.58,4.19.9a57.22,57.22,0,0,0,12.3,1.83h.69c.59,0,1.21,0,1.84,0,2.21,0,7.31,0,8.83,3.74a2,2,0,0,1,.66,1.4,5,5,0,0,1-1.08,3.07c1.81.89,2.7,2.3,2.48,4L574,85l-.72.13C528.73,93,482.65,101.1,436.88,106l-2.27.24c-6.19.64-12.47,1.24-18.68,1.77s-12.49,1-18.71,1.42c-2.37.16-4.75.31-7.12.45l-.89.33c-3.19,1.19-6.61,2.52-10.16,4l-1.23.55c-.72.32-1.45.68-2.19,1a26.83,26.83,0,0,1-6.3,2.46c-6.7,2.88-13.25,5.87-19.49,8.89-7.82,3.79-15,9-22,14L312.3,152.33a9.43,9.43,0,0,0-1.85,1.6,10.6,10.6,0,0,1,1.51.47l1.58.62-18,14.86c-1.36,1.12-2.8,2.32-4.19,3.56l-1.86,2c-2.28,2.48-4.63,5-7.06,7.45.4.4.78.81,1.14,1.22a10.19,10.19,0,0,1,2.74,4.94,6.27,6.27,0,0,1-1.28,4.76,6.71,6.71,0,0,1-.32.88,10.18,10.18,0,0,1-.44,8,28.26,28.26,0,0,1-4.12,6c-.41.51-.83,1-1.23,1.53-3.64,4.64-6.44,10-9.15,15.16L259.05,246a62,62,0,0,0-4.71,10.52c-.26.85-.48,1.71-.7,2.57a27.57,27.57,0,0,1-2.07,6.05l-.16.31a4.15,4.15,0,0,0-.57,1.46,4.08,4.08,0,0,0,.17,1.13,7,7,0,0,1,.22,1.3c.11,2.18-1.49,3.84-2.78,5.17l-.21.22c-.67.69-2.16,2.46-1.53,3.79a4.41,4.41,0,0,0,1.23,1.3l4.87,3.93a6.84,6.84,0,0,1,2.42,3,3.38,3.38,0,0,1-.27,2.71,2.52,2.52,0,0,1-1.7,1.25l-.32.06-12.14-5.87a4.32,4.32,0,0,0-1.71-.57,3.88,3.88,0,0,0-1.74.71,32.82,32.82,0,0,0-5.76,4.31,20.37,20.37,0,0,0-4.24,6.11,14.45,14.45,0,0,0-1.31,5c0,.63,0,1.28,0,2a14.44,14.44,0,0,1-.28,4,5.31,5.31,0,0,1-4,4s0,.07,0,.1a12.06,12.06,0,0,0-.16,1.24,13.27,13.27,0,0,0,.95,5.77c.19.46.41.91.62,1.36s.39.83.57,1.25a17.56,17.56,0,0,1,1.09,3.62l.26,1.37-1.38-.2a6.51,6.51,0,0,1-4.21-2.7,12.59,12.59,0,0,1-1.91-4.27,28.76,28.76,0,0,1-1-9.06v-.2a7.5,7.5,0,0,1,.09-1.1,7.57,7.57,0,0,1-.71-3.95,19.63,19.63,0,0,1,.8-3.3,12.42,12.42,0,0,0,.77-3.73,12.25,12.25,0,0,0-.13-1.43c0-.47-.11-.95-.13-1.45l-2.68,2.62a26.21,26.21,0,0,1-1.89,6.32c-1,2.55-1.95,4.95-1.81,7.47a18.4,18.4,0,0,0,.77,3.81,14,14,0,0,1,.71,6.48,5.76,5.76,0,0,1-2,3.52,4.67,4.67,0,0,1-2.92,1.06,4.74,4.74,0,0,1-.75-.06c-.08.24-.16.47-.25.7a23.49,23.49,0,0,0-.73,2.25,12.71,12.71,0,0,0,.1,6.21,23.23,23.23,0,0,0,1.19,3.48c.23.57.48,1.14.74,1.7l.16.39a9.8,9.8,0,0,0,.44,1.05.8.8,0,0,0-.48-.29Z"/><path class="cls-2" d="M78,2A187,187,0,0,1,98,3.54a54.37,54.37,0,0,1,11.11,2.75l13.71,4.43a35.09,35.09,0,0,1,8.76,3.75,46.6,46.6,0,0,1,6.75,2.29A116.46,116.46,0,0,0,153,21.18c5.09,1.19,10.23,2.12,15.36,3.08l1.87.35c15.11,2.85,30.16,6.26,44.65,11.41,8.4,3,16.59,6.56,24.76,10.17,2.59,1.14,5.17,2.31,7.76,3.47-.43-.78-.68-1.74,0-2.29a1.71,1.71,0,0,1,1.13-.32h.42c1.28.08,2.55.21,3.82.4a21.89,21.89,0,0,1,6.39,1.89h0a4.22,4.22,0,0,1,1.46.22,61.38,61.38,0,0,0,7.59,2.13q8.2,2,16.51,3.51c3.12.55,6.25,1.06,9.38,1.5,4.7.67,9.53,1.27,13.89,3,2.2.28,4.38.74,6.55,1.23q11.67,2.63,23.2,5.89a2.39,2.39,0,0,1,.48.19c.86-.1,1.74-.15,2.61-.18q1.81-.06,3.63-.06c2.78,0,5.56.1,8.33.32,1.16.09,2.61.45,2.8,1.59.17,1-.69,1.75-1.48,2.3a62.72,62.72,0,0,1-12.63,6.47l-1.45.59h.44c.85,0,1.7,0,2.55.1,4,.35,7.95,1.56,11.88,2.57a42.11,42.11,0,0,1,5.38.44c.67.09,2.86.26,3.65,1h.43q.82,0,1.65-.06c2.68-.23,5.28-1,7.94-1.31a30.42,30.42,0,0,1,3.69-.2c1.63,0,3.26.09,4.89.18l.34,0c1.27-.17,2.53-.37,3.79-.62,3.55-.71,7.05-1.63,10.55-2.57s7-1.92,10.59-2.74l1.29-.29a181.78,181.78,0,0,1,18.72-2.82q29-3.21,58.29-3.65c4.16-.07,8.32-.09,12.48-.09,4.32,0,8.65,0,13,0,10.87.06,21.82.12,32.48,2.24,5.54,1.09,11,2.75,16.69,2.75h.6c.62,0,1.27,0,1.92,0,3.37,0,7,.39,8,3.38,1.14.56.17,3.15-1.39,4.23,1.94.52,3.53,1.63,3.29,3.49-45.28,8-90.61,16-136.34,20.84l-2.27.24q-9.31,1-18.66,1.77t-18.69,1.43q-5.19.35-10.4.63l2.12.2c-3.23,1.2-6.65,2.53-10.19,4l-1.26.56c-2.67,1.19-5.51,2.9-8.39,3.46-6.48,2.79-13.14,5.81-19.62,9-7.88,3.82-15,9-22.13,14.1l-15.56,11.24a6.34,6.34,0,0,0-2.78,3.17h0a9.48,9.48,0,0,1,2.65.63l-16.65,13.78c-1.42,1.18-2.84,2.36-4.22,3.59-3.18,3.43-6.32,6.91-9.64,10.18v0c.62.61,1.21,1.23,1.78,1.87a9.28,9.28,0,0,1,2.5,4.44,5.28,5.28,0,0,1-1.2,4.14,6.75,6.75,0,0,1-.51,1.33,9.11,9.11,0,0,1-.25,7.65c-1.26,2.75-3.37,5-5.23,7.36-3.68,4.7-6.48,10-9.25,15.31q-5.37,10.28-10.76,20.54a62.72,62.72,0,0,0-4.77,10.7c-.87,2.83-1.34,5.82-2.7,8.45a5.88,5.88,0,0,0-.85,2.16,22.46,22.46,0,0,0,.39,2.55c.09,1.85-1.43,3.31-2.71,4.64s-2.5,3.24-1.71,4.91a5,5,0,0,0,1.5,1.65l4.87,3.94a5.88,5.88,0,0,1,2.11,2.49,2,2,0,0,1-1.22,2.67L241.23,284a5.05,5.05,0,0,0-2.14-.67H239a4.68,4.68,0,0,0-2.14.86,33.13,33.13,0,0,0-5.94,4.45,20.72,20.72,0,0,0-4.45,6.42,15.41,15.41,0,0,0-1.4,5.36c-.11,1.92.23,3.87-.25,5.73-.43,1.67-1.88,3.25-3.53,3.25a1.83,1.83,0,0,1-.33,0c-.09.76-.27,1.53-.31,2.26a14.13,14.13,0,0,0,1,6.2c.36.89.81,1.75,1.19,2.63a16.34,16.34,0,0,1,1,3.41,5.52,5.52,0,0,1-3.55-2.3,11.91,11.91,0,0,1-1.75-3.95,28.16,28.16,0,0,1-1-5.77,26.75,26.75,0,0,1,0-3,5.66,5.66,0,0,1,.16-1.47,6.6,6.6,0,0,1-.77-3.71c.29-2.44,1.59-4.71,1.57-7.16,0-1.34-.43-2.68-.19-4,.62-3.52,5.22-4.9,6.59-8.2q-5.49,5.9-11.29,11.48c-.48,4.94-4,9.36-3.75,14.31.18,3.39,2.15,6.51,1.5,10.06a4.76,4.76,0,0,1-1.68,2.91,3.63,3.63,0,0,1-2.3.85,3.76,3.76,0,0,1-1.4-.28c-.4,1.32-1,2.59-1.3,3.93a13.65,13.65,0,0,0,.1,6.69,25.84,25.84,0,0,0,1.23,3.63c.24.58.5,1.16.76,1.73.11.24.59,1.65.8,1.7-3.3-.75-5.66-3.86-6.47-7.15s-.34-6.74.24-10.07a6.4,6.4,0,0,1,1.6-3.64,6.34,6.34,0,0,1-.36-1.25c-.45-2.76.6-5.51,1.38-8.19a44.84,44.84,0,0,0,1.78-13,20,20,0,0,1,.22-4.45c1.21-5.45,7.4-8,10.89-12.35-1.06,0-2.13-.06-3.2-.06a21.81,21.81,0,0,0-9.79,1.79c-1.74.87-3.32,2.12-5.19,2.66a5.33,5.33,0,0,1-1.55.22,4.12,4.12,0,0,1-3.17-1.27h0a5.81,5.81,0,0,0-2.15,1.56,16.81,16.81,0,0,0-2.56,3.26,10.71,10.71,0,0,0-1.15,7.62,9.1,9.1,0,0,1-2.15-9.16,10.59,10.59,0,0,1,6.85-6.64,5.51,5.51,0,0,1,.89-.22,4.85,4.85,0,0,1,1.16-1.53,11.16,11.16,0,0,1,4.57-2,188.41,188.41,0,0,1,27.26-5.13c1.84-.21,3.8-.44,5.22-1.62,1.63-1.36,2.83-4,4.75-4a2.11,2.11,0,0,1,.54.07q13.6-24.56,25.48-50a65.63,65.63,0,0,0,3.43-8.39c.5-1.64.89-3.34,1.31-5l-.79-.19-1-1.09a25.74,25.74,0,0,0-2.23-6.15c-.7.35-1.4.7-2.11,1A55.45,55.45,0,0,1,249.2,201h0c-4,1.23-8,2.31-12,3.33a69.19,69.19,0,0,1-12.1,2.27c-.92.06-1.93.11-3,.11a22.34,22.34,0,0,1-2.57-.13h-.3a4.81,4.81,0,0,1-2.17-.5,10.36,10.36,0,0,1-1.65-.67c-1.17.18-2.33.39-3.48.64v.05c-.27,1.83-2.11,2.44-3.52,3.27a122.55,122.55,0,0,0-21.56,16.22,120.48,120.48,0,0,0-10.41,11.14,19,19,0,0,0-3.05,4.65c-2.15,5.26.38,11.17,2.87,16.28a32.6,32.6,0,0,1-16.47-7,7.6,7.6,0,0,1-6.51,3.83h-.06a46.51,46.51,0,0,1-.66,6.67c-.23,1.39-.87,3.07-2.27,3.16-.34,0-.73.05-1.1.06,0,.11,0,.24,0,.35a59.88,59.88,0,0,0,1.9,9c.2.71-.23,4.15-.13,5.4a.18.18,0,0,1-.17.18.21.21,0,0,1-.11,0c-2.46-2.09-2.62-6.1-3.46-9.29a38.93,38.93,0,0,1-1-8.95A17.52,17.52,0,0,1,150,246.65l0-.05,0,.05c-2.22,2.42-6,2.41-9.08,3.55-5.42,2-8.68,7.45-10.88,12.77s-3.91,19.65-8.91,19.65c-.05-.05-.08-.12-.13-.18a54.25,54.25,0,0,0-1.39,10,56.43,56.43,0,0,0,.06,6.1,28.58,28.58,0,0,1-3.6-17.12c.24-2.33,1.14-5,3.32-5.75a42,42,0,0,1,1.23-9.24,44.82,44.82,0,0,1,11.51-20.17,44.8,44.8,0,0,0-16.87,4.08,3.19,3.19,0,0,1-1.38-1.34,5.48,5.48,0,0,0-3.26,3.87c-.53,2-.29,4.12-.35,6.19,0,.79-.42,1.82-1.12,1.82l-.21,0c-.48-.13-.69-.68-.83-1.16-.89-3-1.75-6.29-.79-9.3a6.32,6.32,0,0,1,5.54-4.4,5.46,5.46,0,0,1,.56,0,5.61,5.61,0,0,1,1.79-3.42c2.31-2,5.59-2.27,8.63-2.46l25.1-1.51a25.6,25.6,0,0,0,7.19-1.14,25.27,25.27,0,0,0,5.57-3.19l19.14-13.24c5.24-3.62,10.48-7.27,15.53-11.14-4.6-.21-9-2.31-13.63-3.12-4-.72-8.15-.44-12.24-.59a52,52,0,0,1-19.85-4.64,92.63,92.63,0,0,1-10.33-5.9L112,177.83c-4.34-2.73-8.7-5.46-12.76-8.59a79.6,79.6,0,0,1-7.89-7,68.1,68.1,0,0,1-10.31-13c-2.33-3.08-4.91-6.41-6.65-8.91-6.16-8.81-10.35-17.68-14.69-27.51a119.21,119.21,0,0,1-4.62-12.54A27.63,27.63,0,0,1,54,95.5a17.63,17.63,0,0,1-.15-1.82A75.51,75.51,0,0,1,48,88.48,54.49,54.49,0,0,1,39.27,77.2a48.43,48.43,0,0,1-4.58-10.73c-.14-.49-.25-1-.37-1.47Q19.43,62.42,4.75,58.76a.28.28,0,0,1,0-.28,4.72,4.72,0,0,1-1.23.2,1.37,1.37,0,0,1-1.37-.77,1.72,1.72,0,0,1,.56-2A243,243,0,0,1,32,35.58a37.86,37.86,0,0,1,1.1-4C37.09,20,47.2,11.44,58.4,6.37A82.3,82.3,0,0,1,68.38,3,34.88,34.88,0,0,1,78,2m0-2V0A35.86,35.86,0,0,0,67.79,1.12l-2.48.74a59.69,59.69,0,0,0-7.74,2.68C44.35,10.53,35,19.92,31.23,31c-.37,1.08-.68,2.17-1,3.32A245.56,245.56,0,0,0,1.44,54.34,3.71,3.71,0,0,0,.32,58.75a3.36,3.36,0,0,0,3.19,1.93l.56,0,.19,0C13.43,63,23,65,32.69,66.74c0,.1.06.19.08.28A50,50,0,0,0,37.53,78.2a57,57,0,0,0,9.1,11.7c1.58,1.58,3.31,3.14,5.28,4.77,0,.38.07.75.12,1.09a28.76,28.76,0,0,0,1.13,5.09,121.86,121.86,0,0,0,4.7,12.75c4.15,9.4,8.42,18.6,14.88,27.85,1.36,2,3.25,4.44,5.08,6.84.52.68,1,1.36,1.54,2a69.15,69.15,0,0,0,10.56,13.29A77.75,77.75,0,0,0,98,170.82c4,3.08,8.28,5.78,12.43,8.4l.48.3L132,192.82l7.21,4.55a95.34,95.34,0,0,0,10.56,6,54.36,54.36,0,0,0,20.62,4.82c1.27,0,2.56,0,3.8.06a48.3,48.3,0,0,1,8.16.5,49.09,49.09,0,0,1,5.33,1.36c1.21.36,2.43.72,3.67,1-3.73,2.75-7.55,5.41-11.68,8.27L170.13,226l-9.57,6.62a23.67,23.67,0,0,1-5.12,3,24.05,24.05,0,0,1-6.63,1l-25.1,1.52c-2.91.17-6.9.41-9.81,2.93a7.29,7.29,0,0,0-2,3,8.47,8.47,0,0,0-6.45,5.71c-1.11,3.49-.23,7.09.77,10.48a3.39,3.39,0,0,0,2.22,2.52,2.64,2.64,0,0,0,.74.1c2,0,3.06-1.93,3.12-3.75,0-.64,0-1.26,0-1.86a15.27,15.27,0,0,1,.27-3.9,4.2,4.2,0,0,1,1-1.78,5.18,5.18,0,0,0,.84.53l.87.44.88-.4a43,43,0,0,1,11.14-3.4,46.59,46.59,0,0,0-8.55,17.17,43.65,43.65,0,0,0-1.26,8.51c-1.83,1.24-3,3.62-3.35,6.77a30.63,30.63,0,0,0,3.86,18.33l4.3,7.5-.57-8.63a52.73,52.73,0,0,1,1-14c4-1.32,5.78-8.07,7.49-14.63a52.46,52.46,0,0,1,1.78-6c2.65-6.43,5.83-10.25,9.71-11.67a25.35,25.35,0,0,1,2.84-.77l.72-.17a19.5,19.5,0,0,0-.88,10.18,40.63,40.63,0,0,0,1.06,9.23c.19.71.34,1.47.5,2.27.56,2.81,1.2,6,3.61,8a2.17,2.17,0,0,0,3-.19A2.13,2.13,0,0,0,153,279c0-.43,0-1.47.09-2.31a11.43,11.43,0,0,0,0-3.5,58.14,58.14,0,0,1-1.6-7c1.58-.56,2.68-2.18,3.09-4.61a47.87,47.87,0,0,0,.61-5.2,9.71,9.71,0,0,0,5.05-2.83A34.92,34.92,0,0,0,176,259.7l3.65.44-1.61-3.31c-2.43-5-4.64-10.2-2.81-14.64a16.89,16.89,0,0,1,2.74-4.14,117.56,117.56,0,0,1,10.24-11,119.28,119.28,0,0,1,21.2-16l.71-.39a7.08,7.08,0,0,0,3.34-2.93l1.62-.29c.39.17.79.32,1.2.46a6.84,6.84,0,0,0,2.93.64h.25c.82.08,1.68.12,2.62.12,1.21,0,2.36-.07,3.11-.12a70.62,70.62,0,0,0,12.45-2.32c3.58-.92,7.8-2,12-3.33a57.17,57.17,0,0,0,12.48-4.21l.3-.15a17.37,17.37,0,0,1,1.24,3.8l.1.56.38.43.92,1c-.28,1.16-.56,2.26-.89,3.35a64,64,0,0,1-3.33,8.12c-7.69,16.48-16,32.9-24.84,48.83-1.86.28-3.09,1.78-4.11,3a10.81,10.81,0,0,1-1.29,1.41c-1,.81-2.6,1-4.17,1.17a192.29,192.29,0,0,0-27.54,5.18,12.78,12.78,0,0,0-5.36,2.44,6.44,6.44,0,0,0-1.15,1.29l-.21.06a12.63,12.63,0,0,0-8.14,7.94,11.13,11.13,0,0,0,2.66,11.21l4.81,4.66-1.47-6.54a8.73,8.73,0,0,1,.93-6.19,15.37,15.37,0,0,1,2.27-2.86c.18-.18.36-.36.55-.53a6.66,6.66,0,0,0,3.34.85,7.47,7.47,0,0,0,2.11-.3,16.24,16.24,0,0,0,3.84-1.84c.58-.35,1.13-.67,1.68-.95a17.73,17.73,0,0,1,7.23-1.56l-.93.77c-3,2.49-6.12,5.06-7,9.19a17.67,17.67,0,0,0-.28,4.25V298a42.57,42.57,0,0,1-1.7,12.45c-.11.37-.22.74-.34,1.11-.73,2.41-1.56,5.13-1.1,8,0,.16.06.32.1.48a10,10,0,0,0-1.33,3.74c-.58,3.32-1.13,7.18-.21,10.9,1.08,4.38,4.21,7.77,8,8.62l.89-3.9a1.77,1.77,0,0,1,1.12.76c-.09-.16-.29-.69-.37-.89s-.14-.38-.18-.46c-.28-.61-.52-1.16-.73-1.66a24.73,24.73,0,0,1-1.15-3.34,11.86,11.86,0,0,1-.09-5.73c.17-.69.43-1.39.69-2.13h.07a5.66,5.66,0,0,0,3.54-1.28,6.78,6.78,0,0,0,2.41-4.12,15.13,15.13,0,0,0-.73-6.92,17.18,17.18,0,0,1-.74-3.61c-.13-2.29.78-4.6,1.74-7a28.53,28.53,0,0,0,1.91-6.21l.94-.92a6.07,6.07,0,0,1,.05.71,12,12,0,0,1-.72,3.43,19.56,19.56,0,0,0-.84,3.47,8.44,8.44,0,0,0,.67,4.21,8.13,8.13,0,0,0-.06.92v.2a29.77,29.77,0,0,0,1,9.36,13.88,13.88,0,0,0,2.07,4.61,7.52,7.52,0,0,0,4.87,3.09l2.77.4-.51-2.74a19,19,0,0,0-1.16-3.83c-.18-.43-.39-.86-.59-1.29s-.42-.89-.59-1.31a12.15,12.15,0,0,1-.88-5.33c0-.17,0-.37.06-.57a6.46,6.46,0,0,0,4-4.54,15.09,15.09,0,0,0,.31-4.24c0-.66,0-1.28,0-1.87a13.84,13.84,0,0,1,1.22-4.67,19.35,19.35,0,0,1,4-5.81,32.17,32.17,0,0,1,5.59-4.17,3.86,3.86,0,0,1,1.19-.56h0a3.85,3.85,0,0,1,1.29.47l11.84,5.73.6.29.66-.13a3.49,3.49,0,0,0,2.36-1.72,4.35,4.35,0,0,0,.36-3.54,7.68,7.68,0,0,0-2.75-3.42L251,281l-2.43-2a3.86,3.86,0,0,1-.95-.95c-.24-.51.3-1.58,1.34-2.67l.21-.21c1.34-1.4,3.19-3.3,3.06-5.92a8.27,8.27,0,0,0-.25-1.48,4.22,4.22,0,0,1-.14-.82,3.59,3.59,0,0,1,.46-1.07l.16-.32a28.83,28.83,0,0,0,2.15-6.26c.22-.88.44-1.71.69-2.53a61.36,61.36,0,0,1,4.64-10.35l5.94-11.34,4.82-9.2c2.68-5.13,5.46-10.43,9.05-15,.39-.51.8-1,1.21-1.51a29.39,29.39,0,0,0,4.26-6.26,11.46,11.46,0,0,0,.61-8.47l.15-.43a7.26,7.26,0,0,0,1.36-5.37,11.13,11.13,0,0,0-3-5.44c-.16-.19-.33-.37-.49-.55,2.2-2.23,4.34-4.55,6.42-6.81l1.83-2c1.38-1.22,2.78-2.39,4.09-3.48l16.66-13.78,2.61-2.16-3.08-1.21.49-.36,5.72-4.13,9.84-7.11c6.92-5,14.08-10.16,21.83-13.92,6.19-3,12.7-6,19.35-8.83a28.35,28.35,0,0,0,6.44-2.52c.75-.37,1.46-.72,2.16-1l1.23-.55c3.53-1.42,6.93-2.74,10.1-3.92l.75-.28c2.46-.15,4.76-.29,7-.44,6.22-.41,12.52-.89,18.72-1.42s12.5-1.13,18.7-1.78L437,107c45.82-4.88,91.91-13,136.48-20.86l1.45-.25.19-1.46A4.57,4.57,0,0,0,573,79.92a5.28,5.28,0,0,0,.68-2.81,3,3,0,0,0-.82-1.91C571,71,565.59,71,563.2,71c-.63,0-1.25,0-1.85,0h-.67a55.57,55.57,0,0,1-12.08-1.81c-1.38-.31-2.8-.63-4.22-.91-10.89-2.15-22.06-2.21-32.86-2.27-4.25,0-8.64,0-13,0-4.66,0-8.75,0-12.51.09-19.46.29-39.13,1.53-58.48,3.66a182.09,182.09,0,0,0-18.92,2.86l-1.32.29c-3.09.71-6.18,1.54-9.17,2.35l-1.49.41c-3.33.89-6.87,1.82-10.42,2.54-1,.2-2.1.38-3.48.57h-.14c-1.63-.1-3.32-.19-5-.19a33.62,33.62,0,0,0-3.92.21c-1.28.15-2.53.4-3.73.64a37.91,37.91,0,0,1-4.15.66c-.39,0-.82.05-1.3.06a10.47,10.47,0,0,0-3.74-1l-.25,0a46.78,46.78,0,0,0-5.39-.46l-2-.53c-1.74-.46-3.52-.93-5.32-1.31a50.8,50.8,0,0,0,7.44-4.25c1.79-1.27,2.57-2.71,2.3-4.28-.16-.88-.91-3-4.62-3.25-2.81-.21-5.67-.32-8.49-.32-1.23,0-2.47,0-3.7.06-.87,0-1.59.07-2.25.13l-.23-.06c-7.68-2.18-15.52-4.17-23.3-5.92-1.95-.44-4.2-.93-6.48-1.23-4.24-1.68-8.8-2.32-13.2-2.94l-.92-.13c-3.1-.44-6.23-.94-9.31-1.49-5.47-1-11-2.15-16.38-3.48l-1.13-.27a50.61,50.61,0,0,1-6.22-1.79,5.67,5.67,0,0,0-1.74-.33A23.93,23.93,0,0,0,253,45.48c-1.2-.18-2.51-.32-4-.41l-.55,0a3.63,3.63,0,0,0-2.44.82,2.79,2.79,0,0,0-.6.71l-5-2.22c-8.37-3.69-16.56-7.25-24.9-10.22-16-5.7-32.44-9.14-44.95-11.5l-1.87-.35L167.35,22c-4.58-.85-9.32-1.73-13.91-2.8a115.07,115.07,0,0,1-14.37-4.35l-1.25-.49a40.53,40.53,0,0,0-5.42-1.81,38.5,38.5,0,0,0-8.93-3.77l-3.35-1.09L109.76,4.39A56.59,56.59,0,0,0,98.24,1.55l-1.75-.2A169.06,169.06,0,0,0,78,0Z"/><path class="cls-4" d="M409.05,74.6a181.78,181.78,0,0,1,18.72-2.82q29-3.21,58.29-3.65c8.48-.13,17-.09,25.45,0,10.87.06,21.82.12,32.48,2.24,5.74,1.13,11.44,2.87,17.29,2.74,3.77-.08,8.74-.22,9.93,3.35,1.41.7-.41,4.5-2.59,4.7-5.56.51-14.51-.49-19.9,1a105.17,105.17,0,0,1-15,2.58l-105,12.92c-17.4,2.14-34.85,4.28-52.38,4.39-3.61,0-7.58-.19-10.19-2.67s-3-6.89-1.37-10.16c1.35-2.72,3.79-4.49,6.35-6a12.44,12.44,0,0,1,5.48-1.64,99.17,99.17,0,0,0,10-1.33c3.55-.71,7.05-1.63,10.55-2.57s7-1.92,10.59-2.74Z"/><path class="cls-5" d="M436.77,105c45.73-4.87,91.06-12.86,136.34-20.84.38-2.91-3.7-4-6.62-3.86-33.76,1.43-67,8.42-100.38,13.61q-36.35,5.65-73.07,8.47c-5.79.45-11.63.89-17.15,2.82-1.46.51-3.43.92-3.87,2.64a4.4,4.4,0,0,0-.1,1.45c0,.47.1.51.58.49l1.19-.05,4.75-.22q9.36-.45,18.71-1.07T415.84,107q9.35-.8,18.66-1.77Z"/><path class="cls-6" d="M385.38,106.16l57-7.49c3.91-.51,7.83-1,11.76-1.3,3.12-.23,6.26-.3,9.38-.64s6.4-1,9.58-1.6L504.33,89c.83-.16,33.16-6.4,31.79-7.36-3.28-2.31-38.51.66-42.46,1.34-15.31,2.65-31.17,1.06-46.36,4.29-4.75,1-9.38,2.47-14.14,3.4a127.56,127.56,0,0,1-14.86,1.73l-45.92,3.53c-2.66.21-5.55.43-7.75,2.1a3.81,3.81,0,0,0-1.34,4.84c1,2,3.53,2.75,5.55,3.27a29.12,29.12,0,0,0,7.67.79A75.26,75.26,0,0,0,385.38,106.16Z"/><path class="cls-7" d="M328,110.14a66.57,66.57,0,0,1,9.77-2.27l27.59-5c5.69-1,11.44-2.08,16.78-4.3a40.71,40.71,0,0,0,14.59-10.32c1.14-1.26,2.26-2.94,1.66-4.53-.67-1.78-3-2.16-4.85-2.27l-11-.64a48.21,48.21,0,0,0-8.58,0c-2.66.32-5.26,1.08-7.94,1.31-7.78.65-15.21-3.27-23-3.95-8.48-.73-16.74,2.4-25,4.56-4.58,1.21-9.3,2.15-13.55,4.25-3.23,1.61-6.11,3.85-9.21,5.7-8.12,4.83-17.74,7-25.39,12.5-3,2.17-5.82,5.26-5.81,9a11.2,11.2,0,0,0,2.08,5.89,25.51,25.51,0,0,0,10.22,9,26.29,26.29,0,0,0,13.34,2.66,14.54,14.54,0,0,0,5.57-1.16,56.13,56.13,0,0,0,6.38-3.68c4.13-2.73,8-5.83,12-8.72a59.47,59.47,0,0,1,12.63-7.34C326.83,110.54,327.4,110.33,328,110.14Z"/><path class="cls-8" d="M356.38,86c-3.32.85-7.11,1.32-9.95-.6a1.25,1.25,0,0,1-.65-.83,1.15,1.15,0,0,1,.19-.69,6.2,6.2,0,0,1,4-2.63c3.33-.87,6.85-.55,10.26-.1.87.12,4.31.37,3.91,1.82-.2.75-1.3.94-1.92,1.18-.91.34-1.82.66-2.74,1S357.42,85.77,356.38,86Z"/><path class="cls-9" d="M382.43,91.57a6.69,6.69,0,0,1,2.14,1.92,3.14,3.14,0,0,1,.42,2.76c-2.1,1.57-4.51,3.22-7.11,2.86-.12-1.18,0-2.37-.2-3.55a4.56,4.56,0,0,0-1.57-3.09c-.59-.44-1.31-.65-1.94-1-1.1-.7-1.58-2.75.25-2.35a43.81,43.81,0,0,1,5.08,1.12A15.68,15.68,0,0,1,382.43,91.57Z"/><path class="cls-10" d="M393.79,88.22a6.08,6.08,0,0,0-3.29,2.24,1,1,0,0,0-.27.8c.11.57.92.61,1.48.45,2.22-.65,4-2.35,5.58-4a5.86,5.86,0,0,0,1.26-1.59c.6-1.28,0-3.91-1.76-3.84a1.85,1.85,0,0,0-1.54,1.2c-.38.89,0,1.79.06,2.71A1.71,1.71,0,0,1,393.79,88.22Z"/><path class="cls-11" d="M367.9,94a6.82,6.82,0,0,1,3,3.25c.46,1.42-.29,3.31-1.77,3.48a1,1,0,0,1-.59-.09c-.45-.29-.31-1-.3-1.51A4.37,4.37,0,0,0,367,96.6a16.56,16.56,0,0,0-3.39-3.55c-.74-.51-1.57-.9-2.28-1.47-.27-.21-1.05-.73-.51-1s1.31.21,1.7.35a15.7,15.7,0,0,1,2.32,1.16C365.87,92.71,366.9,93.35,367.9,94Z"/><path class="cls-12" d="M237.19,204.37c12.54-3.2,25.3-6.87,35.76-14.49,12.24-8.9,20.45-22.58,33-31a6.46,6.46,0,0,0,2.43-2.29c.35-.72.41-1.55.72-2.28a7,7,0,0,1,2.63-2.75l15.56-11.24c7.1-5.12,14.25-10.28,22.13-14.1,13.46-6.52,27.71-12.56,39.46-16.93-6.59-.69-8.16-.34-14.75.37-.9-8.66-20.78-7.88-28.74-4.69-3.59,1.43-6.43,3.15-10.26,3.69s-8.21-.15-11.92.79c-5.79,1.48-9,7.43-13.31,11.59a35.82,35.82,0,0,1-6.77,4.62c-21,12-36.46,26.08-55.25,38.76-6.62,4.48-13.27,8.93-20.28,12.78-5.19,2.85-10.77,5.55-14.24,10.35a14.42,14.42,0,0,0-.55,15.57c2.48,3.94,8.21,3.84,12.29,3.56A69.19,69.19,0,0,0,237.19,204.37Z"/><path class="cls-13" d="M219.55,206.62c-1.53.11-3.72-.6-3.27-2.06,3.53-1.29,5.92-4.5,8.71-7a53.12,53.12,0,0,1,10.35-6.76L261.4,176.5c12-6.56,24-13.12,36.35-18.92,4.36-2.05,9.37-4,13.84-2.25l-16.65,13.78a87.68,87.68,0,0,0-7.4,6.61c-1.84,1.92-3.51,4-5.3,6a62.79,62.79,0,0,1-9.63,8.65,64.54,64.54,0,0,1-11.27,6.6A55.82,55.82,0,0,1,249.22,201c-4.27.84-8.41,2.23-12.66,3.15a116.39,116.39,0,0,1-15.07,2.28C220.84,206.53,220.2,206.58,219.55,206.62Z"/><path class="cls-14" d="M339.78,130.4c-1,.47-2.33.92-3.24.23a2.65,2.65,0,0,1-.64-2.68c.82-3.83,4.59-6.21,8.12-7.93a102.81,102.81,0,0,1,42.71-10.39,8.15,8.15,0,0,0-2.23,1l-2.36,1-4.72,2.1c-2.75,1.23-5.67,3-8.64,3.52a18.25,18.25,0,0,0-4.26,1.79l-4.73,2.16-9.38,4.29Z"/><path class="cls-15" d="M299.57,98.68c11-5.32,21.53-11.4,32.08-17.48a36.17,36.17,0,0,0,4.83-3.12,3.66,3.66,0,0,0-2.84-.15,67.53,67.53,0,0,0-13.84,4.15,96.45,96.45,0,0,0-9.87,5.75A111.08,111.08,0,0,1,285.4,99c-12.06,3.8-24.92,5.59-36,11.64-1,.55-2.17,1.47-1.9,2.59a2.38,2.38,0,0,0,.62,1,6.79,6.79,0,0,0,4.44,2.16,5.71,5.71,0,0,0,3.19-.83,27.92,27.92,0,0,1,4.78-1.67c1.86-.56,3.71-1.13,5.55-1.73q5.52-1.78,11-3.82T287.8,104q5.34-2.28,10.58-4.78Z"/><path class="cls-16" d="M341.44,77.49A62.72,62.72,0,0,0,354.07,71c.79-.55,1.65-1.35,1.48-2.3-.19-1.14-1.64-1.5-2.8-1.59a106.07,106.07,0,0,0-12-.26,21.27,21.27,0,0,0-4.44.49A23.79,23.79,0,0,0,330.58,70a144.29,144.29,0,0,0-17,10.67c-1.27,1-2.6,2.11-2.91,3.69s1.08,3.62,2.81,3.21c.78-.19,1.51-.61,2.27-.87,1.16-.41,2.36-.74,3.54-1.12q7.18-2.28,14.24-4.94Q337.51,79.11,341.44,77.49Z"/><path class="cls-17" d="M283.44,94.49a19.21,19.21,0,0,0,2.71.38c3.23.16,6.33-1.2,9.17-2.74,10.07-5.45,18.9-13.65,30-16.39a2.48,2.48,0,0,1,1.59,0c.5.22.79.93.42,1.32a32.22,32.22,0,0,1-10.16,6,5.75,5.75,0,0,0-1.92,1,9.27,9.27,0,0,0-1.08,1.32A12,12,0,0,1,312.37,87l-5.21,4.34a20.21,20.21,0,0,1-4,2.8c-2.56,1.24-5.51,1.36-8.18,2.36a43.79,43.79,0,0,0-5.87,3.17c-4.88,2.75-10.36,4.22-15.77,5.67l-23.7,6.34c-2.83-4-2.37-9.44-.82-14.07,1.22-3.64,4.28-8.73,8.76-8.37a49.07,49.07,0,0,1,6.21,1.34q4.65,1,9.31,1.92Q278.27,93.53,283.44,94.49Z"/><path class="cls-18" d="M328.12,72.79a63.27,63.27,0,0,1-23,17.2c-3.16,1.37-6.42,2.49-9.68,3.6-4.67,1.6-9.41,3.21-14.34,3.51a27.85,27.85,0,0,1-17.34-4.86,7.82,7.82,0,0,1-3.38-4c-.44-1.56.32-3.84,2-4.3.62-.16,1.3-.09,1.94-.2,1.16-.2,2.3-.61,3.43-.92,4.81-1.33,9.63-2.63,14.47-3.84s9.67-2.32,14.55-3.26,9.74-1.7,14.66-2.22a129.16,129.16,0,0,1,14.84-.75Z"/><path class="cls-19" d="M298.17,59.69a59.35,59.35,0,0,1,8.11-.13A57.65,57.65,0,0,1,314.5,61q11.67,2.63,23.2,5.89c.57.16,1.3.58,1.11,1.15a1.15,1.15,0,0,1-.39.46,23.15,23.15,0,0,1-8.57,4.36,59.51,59.51,0,0,1-9.42,1.32,156.5,156.5,0,0,0-26.8,5.54c-10.5,3-21.16,6.5-32.05,5.81a8.18,8.18,0,0,1-4.31-1.18,7.09,7.09,0,0,1-2.48-4.74c-.82-5,.77-10,2.54-14.78a3.92,3.92,0,0,1,2-2.43,6.78,6.78,0,0,1,2.29,0c1.42,0,2.87-.23,4.29-.35l4.46-.37q8.91-.72,17.84-1.35Z"/><path class="cls-20" d="M248.88,47.06a2.17,2.17,0,0,0-1.55.31c-.74.65-.27,1.87.3,2.69a6.66,6.66,0,0,0,2.31,2.29,6.82,6.82,0,0,0,2.87.57,37.94,37.94,0,0,0,6.12-.25c.8-.09,2.43-.31,2.43-1.4s-1.49-1.54-2.21-1.9a22,22,0,0,0-6.45-1.91C251.43,47.27,250.16,47.14,248.88,47.06Z"/><path class="cls-21" d="M294.06,56.7c5.75.82,11.71,1.5,16.75,4.4a36.31,36.31,0,0,1-11.11,2.51,61.93,61.93,0,0,0-7.72.55,58.59,58.59,0,0,0-5.77,1.7C280,67.75,273.39,68,266.89,68.27a24.08,24.08,0,0,1-6.84-.37c-4.27-1.05-7.6-4.28-10.72-7.38a7.65,7.65,0,0,1-2.31-3.3,4.92,4.92,0,0,1,1.46-4.54,10.07,10.07,0,0,1,4.35-2.34,22.24,22.24,0,0,1,4-.8,9.13,9.13,0,0,1,3.79,0,61.38,61.38,0,0,0,7.59,2.13q8.2,2,16.51,3.51C287.8,55.75,290.93,56.26,294.06,56.7Z"/><path class="cls-22" d="M170.21,24.61c15.11,2.85,30.16,6.26,44.65,11.41,8.4,3,16.59,6.56,24.76,10.17q6.82,3,13.64,6.09c4.26,1.93,8.65,4,11.71,7.54,1.74,2,2.92,5.18,1.22,7.21a13,13,0,0,0-1.57,1.67c-1.6,2.74,3.16,5.55,2.68,8.68-.3,2-2.48,3-3.38,4.77s-.37,4.18-1.46,5.92c-.79,1.27-2.27,1.9-3.49,2.78s-.69,2.66-1.67,3.8c-1.92,2.22-5.35,2.32-5.72,5.24s.48,5.91,0,8.81c-.66,3.79-3.59,6.87-7,8.67s-7.24,2.55-11,3.27l-19.45,3.69c-2.83.53-5.86,1-8.49-.11-2.3-1-3.89-3.14-5.37-5.17l-7.86-10.77a32.12,32.12,0,0,0-5.75-6.55c-3.2-2.52-7.22-3.72-11.13-4.86l-14.65-4.3A59.11,59.11,0,0,0,148,89.82c-4.93-.3-10.45.47-14.25-2.68-2.22-1.83-3.33-4.64-4.34-7.33q-7.53-20.08-13.46-40.71a31.17,31.17,0,0,1-1.61-8.88,16.21,16.21,0,0,1,5.45-11.53c2.46-2.24,5.39-4.44,8.85-4.53s6.69,1.43,9.77,2.6A116.46,116.46,0,0,0,153,21.18c5.09,1.19,10.23,2.12,15.36,3.08Z"/><path class="cls-23" d="M212.45,92.42c2.17-.82,4.46-1.78,5.79-3.68,1.82-2.61,1.3-6.13.7-9.26,2,.21,3.85-1.17,5.42-2.47,2.31-1.92,4.82-4.21,4.92-7.22a7.36,7.36,0,0,0-1-3.67c-3.1-5.68-10.22-7.65-16.63-8.54-1.5-.21-3.17-.48-4.07-1.71a7.24,7.24,0,0,1-.84-1.93c-1.63-4.51-6.21-7.52-11-8.24s-9.6.55-14,2.52-8.4,4.63-12.63,6.91c-3,1.64-6.18,3.1-8.83,5.28a20,20,0,0,0-1.06,29.94A9,9,0,0,0,161.61,92a12.45,12.45,0,0,0,2.63.78,136,136,0,0,1,19.67,5.88,13.86,13.86,0,0,0,3.45,1.15,12.16,12.16,0,0,0,4-.71c3.37-.87,6.72-1.84,10-2.88C205.11,95.08,208.8,93.81,212.45,92.42Z"/><path class="cls-24" d="M164.64,33.87c7.31,2.89,14.09,7,20.84,11,1.83,1.1,3.83,2.4,4.38,4.47.65,2.49-1.09,5-3.11,6.59s-4.43,2.76-6,4.78a3,3,0,0,0-.73,1.56c-.11,1.49,1.59,3,.82,4.24-5.28,2.23-8.44,8-13.75,10.14a10.76,10.76,0,0,0-2.34,1.06,11.12,11.12,0,0,0-2,2.09c-2.74,3.2-6.94,4.67-10.94,6-5.37,1.79-11.78,3.43-16.29,0A13.38,13.38,0,0,1,132,81.34c-2.89-5.37-4-11.52-4.57-17.59a120.74,120.74,0,0,1-.4-17.94,20.92,20.92,0,0,1,2.22-9.27c1.46-2.56,4.27-4.41,6.84-5.74a12.27,12.27,0,0,1,6.12-1.37,89.3,89.3,0,0,1,9.09.87A56.41,56.41,0,0,1,164.64,33.87Z"/><path class="cls-25" d="M264.72,69.15a7.67,7.67,0,0,1-6,1.37A6.88,6.88,0,0,1,259,67.2c.93-2,3.43-2.54,5.59-2.85a3.42,3.42,0,0,1,1.56,0,1.21,1.21,0,0,1,.91,1.12,1.8,1.8,0,0,1-.35.83l-2.05,3.13"/><path class="cls-26" d="M265.28,80.12a5.33,5.33,0,0,1-3.66,2.26,16,16,0,0,1-4.42,0,2,2,0,0,1,1.36-1.8,20.23,20.23,0,0,1,2.31-.64,5.64,5.64,0,0,0,3.83-5.37,1.65,1.65,0,0,1,2.44.63A3.15,3.15,0,0,1,266.9,78c-.45.87-1.11,1.61-1.58,2.47"/><path class="cls-27" d="M243.33,55.31c1.16.52,2.44,1.16,2.85,2.37.56,1.66-.86,3.34-2.35,4.25a12,12,0,0,1-6.79,1.7,1.28,1.28,0,0,1-.77-.21c-.47-.4-.15-1.25.41-1.51a4.36,4.36,0,0,1,1.84-.19,5.47,5.47,0,0,0,5-6.41"/><path class="cls-28" d="M235.86,53.43,225.48,56l.08-1.09c2.93-2.16,6.38-4.45,9.92-3.63l.65,1.65"/><path class="cls-29" d="M224.64,44.33l-.07.7a23.24,23.24,0,0,1-7.29,2.21,1.64,1.64,0,0,1,.59-1.21,8.64,8.64,0,0,1,3.26-2.58,3,3,0,0,1,3.67,1.12"/><path class="cls-30" d="M151.12,279.62c-2.84-2-3-6.24-3.85-9.59a44.5,44.5,0,0,1-1-10.31c1.07-.26,2.21-.58,2.56.71a35.32,35.32,0,0,1,.45,4.38,59.88,59.88,0,0,0,1.9,9C151.38,274.62,150.73,279.34,151.12,279.62Z"/><path class="cls-31" d="M119.66,298.53a28.58,28.58,0,0,1-3.6-17.12c.25-2.4,1.18-5.19,3.51-5.83,3.15-.87,1.9,4.83,1.54,6.33a54.8,54.8,0,0,0-1.51,10.52A56.43,56.43,0,0,0,119.66,298.53Z"/><path class="cls-32" d="M176.46,236.78a19,19,0,0,0-3.05,4.65c-2.15,5.26.38,11.17,2.87,16.28a32.6,32.6,0,0,1-16.47-7,7.6,7.6,0,0,1-6.57,3.83,46.51,46.51,0,0,1-.66,6.67c-.23,1.39-.87,3.07-2.27,3.16-1.14.08-2.68.25-3.19-.78-2.49-5.05-.89-12.86,2.91-17-2.22,2.47-6,2.46-9.12,3.6-5.42,2-8.68,7.45-10.88,12.77s-3.91,19.65-8.91,19.65c-2.88-3-1.56-12.17-.51-16.2a44.82,44.82,0,0,1,11.51-20.17,44.8,44.8,0,0,0-16.87,4.08c-2.72-1.38-2.35-5.74,0-7.73s5.59-2.27,8.63-2.46l25.1-1.51a25.6,25.6,0,0,0,7.19-1.14,25.27,25.27,0,0,0,5.57-3.19l19.14-13.24c6.22-4.3,12.44-8.6,18.34-13.32a34.09,34.09,0,0,1,5.42-3.84c1.55-.81,4.09-1.93,5.81-1a3.23,3.23,0,0,1,1.55,3.28c-.27,1.83-2.11,2.44-3.52,3.27a122.55,122.55,0,0,0-21.56,16.22A120.48,120.48,0,0,0,176.46,236.78Z"/><path class="cls-33" d="M114.79,248.82c-2.08.09-3.66,2-4.18,4s-.29,4.12-.35,6.19c0,.86-.5,2-1.33,1.79-.48-.13-.69-.68-.83-1.16-.89-3-1.75-6.29-.79-9.3s4.51-5.41,7.33-4a4,4,0,0,1,.44,2.45"/><path class="cls-34" d="M134.12,120.36c1.16-1.69,1.41-3.82,1.72-5.85A57.1,57.1,0,0,1,144,92.84a10.84,10.84,0,0,1,4.14-4.27c2.48-1.19,5.4-.54,8.06.13l14.48,3.64c6,1.51,12.22,3.1,17.28,6.7,6.76,4.81,10.67,12.58,14.27,20.06.88,1.85,1.85,3.79,3.57,4.89,2.3,1.48,5.29,1.06,8,.59,5.08-.88,10.17-2.76,15.25-3.64,3.22-.56,6-.24,9.06-1.32s6.92-3.65,10-5c12.43-5.47,26.67-4.89,39.38-.12a6.77,6.77,0,0,0-2.85,4.94,16.12,16.12,0,0,0,9.05-2.16,4.37,4.37,0,0,1-1.41,5.09l2.65.95c1.72,1.75-1.71,4.59-.9,6.9A4.84,4.84,0,0,0,295.5,132c4,3.72,5.24,9.77,4.19,15.13s-4.09,10.13-7.55,14.36a70.76,70.76,0,0,1-21.49,17.58c-4.55,2.42-9.46,4.4-13.18,8-.85.81-1.62,1.69-2.49,2.48a16.75,16.75,0,0,1-2.7,2,17.52,17.52,0,0,1-7.88,2.34,18.88,18.88,0,0,0-4.52.38,3.77,3.77,0,0,0-2.89,3.14c-.05,1.51,1.86,2.88,3.07,2a7,7,0,0,1-2.7,2.4c-7.42,4.22-16.89,2.64-24.57-1.08s-14.27-9.35-21.7-13.54c-15.12-8.53-33.25-10.86-47.84-20.26a24.35,24.35,0,0,1-6.52-5.68,31.34,31.34,0,0,1-3.4-6.49c-2.3-5.41-5-10.75-6.23-16.54a14.7,14.7,0,0,1-.26-5.12,23.2,23.2,0,0,1,1.67-6.81C129.76,123.66,132.58,122.62,134.12,120.36Z"/><path class="cls-35" d="M99.23,169.24c3.91,3,8.09,5.65,12.26,8.28l28.68,18.07a95.16,95.16,0,0,0,10.47,6,52,52,0,0,0,19.85,4.64c4.09.15,8.22-.12,12.24.59,5.23.93,10.26,3.52,15.55,3.09,3.27-.27,6.32-1.67,9.45-2.68,6.44-2.07,13.28-2.45,20-2.82a30.85,30.85,0,0,0-9.27-1.69c-.47-1.17,1.11-2,2.29-2.44s2.36-2.06,1.28-2.7a20.65,20.65,0,0,1-9.11-2.09,3.28,3.28,0,0,1-1.49-1.17c-.8-1.36.5-3.09,2-3.67,2.27-.9,4.82-.33,7.25-.45s5.27-1.47,5.4-3.91-2.56-4.06-4.85-5.05L197.58,171a26.25,26.25,0,0,0-5.87-2c-2-.36-4.12-.24-6.17-.41-13.69-1.17-23.25-14.73-36.54-18.22-3.81-1-8.06-1.25-11-3.83-3.53-3.07-4.17-8.59-7.82-11.52a14.92,14.92,0,0,0-5.75-2.46,75.56,75.56,0,0,0-27.17-1.81c-4,.47-8.14,1.31-11.58,3.48-4,2.53-8.07,8.36-5.64,13.13,2.79,5.45,7.06,10.48,11.32,14.84A79.6,79.6,0,0,0,99.23,169.24Z"/><path class="cls-36" d="M128.94,177.56c5.46,2.85,11.83,3.27,18,3.63l21.88,1.29c8.28.48,16.77,1,24.36,4.38,6.78,3,12.61,8.18,19.81,9.95,1.58.39,3.69,1.36,3.18,2.9-.27.84-1.24,1.21-2.1,1.42A21.59,21.59,0,0,1,200.59,200c-.49,1.6,1.54,2.71,3.14,3.18s3.57,1.82,2.84,3.32c-8.56,3.65-18.2-.42-27.41-1.74-5.88-.85-11.92-.54-17.73-1.79-6.8-1.46-13-5-18.94-8.54q-18.61-11.14-36.25-23.83c-1.1-.8-2.3-2.32-1.36-3.31,1.26-1.31,3.5,1,5,.9,2.27-.18,3.09-3.1,5.08-3.87.94-.36,1.52.2,2,.95.61.94,1.19,1.89,1.83,2.81a36.84,36.84,0,0,0,4.24,5.08A24.93,24.93,0,0,0,128.94,177.56Z"/><path class="cls-37" d="M55.44,101.43a118.43,118.43,0,0,0,4.25,11.36c4.34,9.83,8.53,18.7,14.69,27.51,2.67,3.84,7.35,9.67,10,13.51,3.54,5.06,8.14,8.68,14.31,8.44,1.55-.06,3.14-.51,4.61,0,1.18.39,2.44,1.36,3.51.72,1-1.19,1.1-2.83,1.45-4.33s1.21-3.13,2.73-3.38a5.48,5.48,0,0,0,1.78-.26c.61-.35.8-1.11,1-1.76,1.63-4.21,7-5.27,10.72-7.75a3.28,3.28,0,0,0,1.3-1.34,3.65,3.65,0,0,0,.14-1.83l-.46-5.22a25.75,25.75,0,0,1,6.66,3.21c1.23-2,.22-4.61-.53-6.87s-.9-5.3,1.17-6.46c1.57-.88,3.79-.21,5.15-1.39,1.6-1.39.68-4-.32-5.87s-1.85-4.53-.18-5.84c.54-.43,1.25-.6,1.82-1,1.06-.77,1.36-2.19,1.66-3.47,1.44-6.22,4.5-11.93,7.53-17.54a12.85,12.85,0,0,1,1.84-2.81,2.14,2.14,0,0,0,.72-1.12c.09-.89-1-1.36-1.91-1.43a20,20,0,0,0-4.75.4c-9.48,1.55-19,3.1-28.3,5.3-3,.72-6,1.5-9.09,1.93C92.08,96.24,77.32,90,62.3,88.64c-2.34-.21-5.64-.29-7.41,1.6-1.36,1.46-1.07,3.81-.83,5.62A32.62,32.62,0,0,0,55.44,101.43Z"/><path class="cls-38" d="M67.39,120.72a22.94,22.94,0,0,1,2.59,2.9,19.84,19.84,0,0,1,1.69,4c2.17,5.76,6.5,10.42,10.91,14.72a215.49,215.49,0,0,0,18.4,16,3.74,3.74,0,0,0,1.21.72c1.33.4,2.71-.81,3-2.16a7.75,7.75,0,0,0-.53-4.07c2.79.34,6.32.32,7.57-2.2,1.57-3.15-2-7.41.09-10.22,1.7-2.26,6-1.76,6.91-4.44.44-1.32-.28-2.76-.1-4.14.23-1.74,1.8-2.93,2.93-4.27a10.21,10.21,0,0,0,2.39-5.63c.23-2.25-.31-4.51-.36-6.78s.51-4.76,2.35-6.09c1.45-1.06,3.36-1.15,5.07-1.65,5.23-1.52,8.44-6.63,11.16-11.35-.51-2.38-3.29-3.63-5.72-3.5s-4.7,1.24-7,1.86c-3.63,1-7.47.77-11.16,1.45-4.46.83-8.59,2.89-13,4-11.82,2.93-24-1.39-36.09-3.06-3.47-.48-10.1-.32-10.28,4.58a13.65,13.65,0,0,0,1.22,5c.81,2.26,1.44,4.59,2.3,6.83A23.12,23.12,0,0,0,67.39,120.72Z"/><g id="head"><path class="cls-39" d="M48,88.48c6.43,6.42,14.09,11.45,21.89,16.11,5.86,3.51,11.91,6.88,18.52,8.59s13.91,1.64,20-1.52,10.49-9.82,9.82-16.62c6.67,2.71,14.21-1.6,19-7A43.83,43.83,0,0,0,148,65a18.84,18.84,0,0,1,.9-4.43c.69-1.72,2-3.14,2.73-4.83,2.06-4.61-.16-9.91-2.46-14.41q-4.11-8.07-8.65-15.9c-2.3-4-4.78-8-8.54-10.67a33.7,33.7,0,0,0-9.15-4L109.15,6.29A54.37,54.37,0,0,0,98,3.54C94.23,3.15,76.12.62,68.38,3a82.3,82.3,0,0,0-10,3.34C47.2,11.44,37.09,20,33.12,31.62,30,40.7,31,49.18,33,58.25c.6,2.73,1,5.53,1.72,8.22A48.43,48.43,0,0,0,39.27,77.2,54.49,54.49,0,0,0,48,88.48Z"/><path class="cls-40" d="M47.87,61.54a5.26,5.26,0,0,1-.95,2.75c-1.66,2.18-5,2-7.66,1.56Q21.86,63,4.74,58.76c-.17-.32.27-.61.62-.7q5-1.29,10.12-2.1t10.37-1.17c3.47-.22,6.95-.29,10.43-.19,1.61,0,3.21.15,4.81.22a10.41,10.41,0,0,1,2.73.32,6.71,6.71,0,0,1,4,5.32A5.57,5.57,0,0,1,47.87,61.54Z"/><path class="cls-41" d="M35.42,54.48a100.66,100.66,0,0,0-30.57,4c-.88.25-2,.45-2.56-.28-.71-.92.28-2.17,1.19-2.9A241.49,241.49,0,0,1,36.13,33.21a1.57,1.57,0,0,1,1.09-.3c.66.14.84,1,.87,1.68.17,3.84.06,7.86,1.51,11.48a11.23,11.23,0,0,0,1.22,2.23,4.67,4.67,0,0,1,.82,1.48,3.43,3.43,0,0,1-1.45,3.88A9,9,0,0,1,35.42,54.48Z"/><path class="cls-42" d="M31,44.27l5.2,2.94A10.29,10.29,0,0,0,40,48.73a.68.68,0,0,0,.59-.14.72.72,0,0,0,.05-.64c-.21-.85-.43-1.69-.65-2.53s-.49-1.84-.73-2.76c-.15-.57-.34-1.32-1-1.57s-1.37.29-1.93.59c-.83.44-1.67.86-2.52,1.28l-1.43.68C32.2,43.72,31.11,44.35,31,44.27Z"/><path class="cls-43" d="M76.67,106.11a20.89,20.89,0,0,0,3,1.82,29.56,29.56,0,0,0,5,1.28c4.36,1.05,8.46,3.6,12.94,3.41a21.81,21.81,0,0,0,6.89-1.88,26.53,26.53,0,0,0,7.33-3.82c4.33-3.58,5.94-9.5,6.35-15.1a10.33,10.33,0,0,0-.14-3.24,8.22,8.22,0,0,0-4.32-5,34,34,0,0,0-6.4-2.25,105.43,105.43,0,0,1-14-5.75c-2.9-1.37-5.79-2.75-8.76-4a76.64,76.64,0,0,0-28-6.07,132.2,132.2,0,0,0-16.86,1.19,3.9,3.9,0,0,0-1.85.53c-1.4,1-.88,3.17-.15,4.73s1.54,3.12,2.41,4.63,1.82,3,2.83,4.46,2.07,2.84,3.19,4.19,2.31,2.66,3.55,3.92,2.52,2.45,3.86,3.59,2.75,2.19,4.15,3.26c.92.7,1.77,1.51,2.76,2.13a29.07,29.07,0,0,0,4.38,1.95c1.83.75,3.65,1.54,5.43,2.4a58.77,58.77,0,0,1,5.18,2.81C75.87,105.59,76.27,105.85,76.67,106.11Z"/><path class="cls-44" d="M84.51,49.71c.49-.7,1-1.5,1.79-1.77a7.43,7.43,0,0,0,1.35-.35c.56-.31.76-1,1.11-1.52,1-1.54,3.2-1.69,5-1.67a10.69,10.69,0,0,1,5.12.91c1.2.67,2.14,1.79,3.43,2.21,1.89.6,4.34-.31,5.67,1.15.32.34.52.79.82,1.15,1.14,1.42,3.26,1.32,5.07,1.51a11.82,11.82,0,0,1,6.78,3.11c2.13,2,3.5,4.74,5.9,6.38a5.4,5.4,0,0,1-2.33.13l2.22,2.83a1.57,1.57,0,0,1,.37.68c.1.65-.61,1.13-.77,1.76a5.51,5.51,0,0,0,.07,1.4c0,1.68-2.12,3.24-1.28,4.7h-1.49c-.38.84.65,1.79.41,2.69a2.33,2.33,0,0,1-.36.63,20.48,20.48,0,0,1-9.56,6.88,8.68,8.68,0,0,0-2.32,1,19.23,19.23,0,0,1-1.72,1.41c-.71.4-1.59.43-2.31.81a10,10,0,0,0-1.67,1.39,7.28,7.28,0,0,1-5.41,1.46A15.42,15.42,0,0,1,95,86.73a34.58,34.58,0,0,1-9-6.71c-1.3-1.35-2.48-2.8-3.66-4.25-1.07-1.3-2.14-2.61-3.19-3.94s-2.1-2.69-3.1-4.07-2-2.8-2.86-4.25c-.44-.72-.87-1.45-1.28-2.19s-.75-1.51-1.18-2.23c-.59-1-1.55-1.65-1.34-2.9a2.37,2.37,0,0,1,.13-.54,21.4,21.4,0,0,0,3.3.28A15.05,15.05,0,0,0,82,52.45,13.61,13.61,0,0,0,84.51,49.71Z"/><path class="cls-45" d="M51.57,55.4c4.74,3.12,10.35,4.82,14.83,8.29a25.53,25.53,0,0,0,4.07,3,5,5,0,0,0,4.81,0,18.68,18.68,0,0,0,1.58-1.37c1.86-1.53,4.47-1.62,6.81-2.21s4.87-2.27,4.74-4.68a6.48,6.48,0,0,0-1.08-2.77c-.43-.73-1-1.56-1.85-1.6a2.58,2.58,0,0,0-1.48.56c-2.57,1.62-5.36,3.16-8.4,3.29-3.46.15-6.78-1.6-9.33-3.94-1.88-1.73-3.54-4.08-3.29-6.62.35-3.49,4-5.61,7.27-6.81a53.22,53.22,0,0,1,6-1.78c-1-2.4-4.09-3-6.67-2.89A24.61,24.61,0,0,0,57.36,40a25.11,25.11,0,0,0-4.94,4.26,23.17,23.17,0,0,0-2,2.54c-.62.92-1.34,1.82-1.86,2.79C47.32,51.92,49.78,54.22,51.57,55.4Z"/><path class="cls-46" d="M85,48.81A14.57,14.57,0,0,1,81.8,52a14.41,14.41,0,0,1-2.36,1.6,16,16,0,0,1-3.23,1.11l-3.69,1a5.85,5.85,0,0,1-2.77.27,4.9,4.9,0,0,1-1.53-.73c-2.55-1.68-4.73-4.33-4.77-7.38s2.06-5.77,4.69-7.28a22.44,22.44,0,0,1,8.71-2.35,7.82,7.82,0,0,1,3.34.13A7,7,0,0,1,83,40.51a27.18,27.18,0,0,1,2.39,3.15,2.82,2.82,0,0,1,.59,1.4,5.08,5.08,0,0,1-.17,1.82A7,7,0,0,1,85,48.81Z"/><path class="cls-47" d="M83.1,45.75a5.8,5.8,0,0,1-.19,2.16c-.51,1.51-1.92,2.49-3.25,3.36-1.76,1.16-3.63,2.36-5.74,2.42A8.52,8.52,0,0,1,69,52c-1.6-1.07-3.1-2.58-3.34-4.49A5.59,5.59,0,0,1,68,42.58a13.69,13.69,0,0,1,5.25-2.14c1.14-.26,2.29-.48,3.45-.67a8.07,8.07,0,0,1,2.94-.05c1.32.29,2,1.58,2.61,2.7A8.78,8.78,0,0,1,83.1,45.75Z"/><path class="cls-48" d="M78.16,47.17a3.83,3.83,0,0,1-.37,2,3,3,0,0,1-1.52,1.1A10.12,10.12,0,0,1,73,50.8a3.59,3.59,0,0,1-2.17-.42,2.92,2.92,0,0,1-1-1.4,5,5,0,0,1-.15-3.33A3.94,3.94,0,0,1,72,43.22,8.63,8.63,0,0,1,75.8,43a2.65,2.65,0,0,1,2,1.72A6.29,6.29,0,0,1,78.16,47.17Z"/><path class="cls-49" d="M71.15,41.81c.61.26.73,1.07.75,1.73a.8.8,0,0,1,0,.27.58.58,0,0,1-.41.29,1.47,1.47,0,0,1-1.59-.6,1.2,1.2,0,0,1,.33-1.6,1,1,0,0,1,1.48.53"/><path class="cls-50" d="M40.42,71.76a24.44,24.44,0,0,0,3.16,2.5,5.74,5.74,0,0,1,.76.53,4.46,4.46,0,0,1,.52.63c1,1.49,2.31,3.2,4.13,3.24.71,0,1.41-.23,2.12-.19,1.18.09,2.15,1,3.28,1.31,1.93.59,3.91-.46,5.85-1a12,12,0,0,1,7.29.26c1,.37,2.16.87,3.1.34.45-.25.76-.71,1.21-1A8.62,8.62,0,0,1,73.06,78a2.76,2.76,0,0,0,1.78-2c-1.49-2-2.27-4.51-3.32-6.8S69,64.68,66.68,63.63c-2-.88-4.23-.77-6.18-1.65-2.15-1-3.74-3.08-6-3.6a9.64,9.64,0,0,0-2.84-.07,13.12,13.12,0,0,0-4.18.78c-1.12.48-2.1,1.28-3.25,1.72a28.21,28.21,0,0,1-3,.73,10.25,10.25,0,0,0-4.9,2.9c-.57.61-1.3,1.4-1,2.3a6.9,6.9,0,0,0,2.14,2.36Z"/><path class="cls-51" d="M62.89,31.31A20.5,20.5,0,0,1,60,31a3.66,3.66,0,0,1-1.85-1,2,2,0,0,1-.44-2,2.86,2.86,0,0,1,.67-.89,22.14,22.14,0,0,1,6.55-4.57c1.47-.68,3.09-1.24,4.13-2.48a.88.88,0,0,0,.23-.46c0-.54-.78-.63-1.29-.45-.88.3-1.69.76-2.56,1a3.55,3.55,0,0,1-2.7-.06,1.81,1.81,0,0,1-.88-2.32c.35-.66,1.15-.92,1.81-1.3s1.28-1.15.93-1.82a15,15,0,0,0-4.06-.46c-8,.1-15.44,4.62-21.08,10.33a1.25,1.25,0,0,0-.44.76,1.18,1.18,0,0,0,.38.76A30.45,30.45,0,0,0,43,30a19.55,19.55,0,0,0,6.11,3.33A46.14,46.14,0,0,0,56,35c2.3.43,4.61.86,6.93,1.22,1.14.17,3.37.62,4.07-.68a2.59,2.59,0,0,0-.23-2.41,4.17,4.17,0,0,0-3-1.68C63.51,31.37,63.2,31.34,62.89,31.31Z"/><path class="cls-52" d="M36.92,26.89a4,4,0,0,1,3.93.32l.4,1.15a25.83,25.83,0,0,0,8.22.67c.39,1.15-1,2.29-.78,3.48a1.88,1.88,0,0,0,2.06,1.19,11.58,11.58,0,0,0,2.47-.77c3-1,6.13.14,9,1.23l-1,2.35L62.7,38a4.78,4.78,0,0,0-2.37,2.24c.71.88-.07,2.17-.9,2.93S57.6,44.88,57.94,46c.24.78,1.08,1.18,1.77,1.61s1.36,1.25,1,2-1.26.8-2,.83a22.44,22.44,0,0,0-6.88,1.32,4.31,4.31,0,0,1-1.21.31,3.69,3.69,0,0,1-1.09-.16l-6.08-1.53a2.36,2.36,0,0,1-1-.44c-.5-.44-.62-1.27-1.22-1.54s-1.08,0-1.59-.12-.84-.78-1-1.32a32.9,32.9,0,0,1-1.94-10.85c0-.8-.09-1.47-.93-1.75a13.16,13.16,0,0,1-1.77-.47c-1.14-.54-.07-2.47.23-3.32A6,6,0,0,1,36.92,26.89Z"/></g><path class="cls-53" d="M221.65,317.83c.36.89.81,1.75,1.19,2.63a16.34,16.34,0,0,1,1,3.41,5.52,5.52,0,0,1-3.55-2.3,11.91,11.91,0,0,1-1.75-3.95,28.16,28.16,0,0,1-1-5.77,26.75,26.75,0,0,1,0-3c0-.78,0-1.85.8-2.23a1.85,1.85,0,0,1,2.55,1.29,18.41,18.41,0,0,1-.32,3.69A14.13,14.13,0,0,0,221.65,317.83Z"/><path class="cls-54" d="M207.62,341.35c-3.3-.75-5.66-3.86-6.47-7.15s-.34-6.74.24-10.07c.32-1.78,1.05-4.36,3.35-4.2,1.52.11,1.89,1.21,1.61,2.56-.36,1.75-1.19,3.37-1.62,5.11a13.65,13.65,0,0,0,.1,6.69,25.84,25.84,0,0,0,1.23,3.63c.24.58.5,1.16.76,1.73C206.93,339.89,207.41,341.3,207.62,341.35Z"/><path class="cls-55" d="M191.84,286.12a16.81,16.81,0,0,0-2.56,3.26,10.71,10.71,0,0,0-1.15,7.62,9.1,9.1,0,0,1-2.15-9.16,10.59,10.59,0,0,1,6.85-6.64A3.83,3.83,0,0,1,195,281a1.63,1.63,0,0,1,.93,2.63c-.51.73-1.51.7-2.26,1A6.46,6.46,0,0,0,191.84,286.12Z"/><path class="cls-56" d="M283.06,193.74c1.82,2.4,1.59,5.87.34,8.61s-3.37,5-5.23,7.36c-3.68,4.7-6.48,10-9.25,15.31l-10.76,20.54a62.72,62.72,0,0,0-4.77,10.7c-.87,2.83-1.34,5.82-2.7,8.45a5.88,5.88,0,0,0-.85,2.16,22.46,22.46,0,0,0,.39,2.55c.09,1.85-1.43,3.31-2.71,4.64s-2.5,3.24-1.71,4.92a5.1,5.1,0,0,0,1.5,1.64l4.87,3.94a5.88,5.88,0,0,1,2.11,2.49,2,2,0,0,1-1.22,2.67L241.23,284a4.82,4.82,0,0,0-2.26-.67,4.68,4.68,0,0,0-2.14.86,33.13,33.13,0,0,0-5.94,4.45,20.72,20.72,0,0,0-4.45,6.42,15.41,15.41,0,0,0-1.4,5.36c-.11,1.92.23,3.87-.25,5.73s-2.21,3.62-4.08,3.22c-2.43.3-4-3.23-3.73-5.66s1.59-4.71,1.57-7.16c0-1.34-.43-2.68-.19-4,.62-3.52,5.22-4.9,6.59-8.2q-5.49,5.9-11.29,11.48c-.48,4.94-4,9.36-3.75,14.31.13,2.52,1.26,4.89,1.56,7.39s-.62,5.53-3,6.28c-2.66.83-5.36-1.8-5.81-4.56s.6-5.51,1.38-8.19a44.84,44.84,0,0,0,1.78-13,20,20,0,0,1,.22-4.45c1.21-5.45,7.4-8,10.89-12.35-4.41-.14-9-.23-13,1.73-1.74.87-3.32,2.12-5.19,2.66s-4.26.1-5.11-1.65a4,4,0,0,1,1.27-4.51,11.16,11.16,0,0,1,4.57-2,188.41,188.41,0,0,1,27.26-5.13c1.84-.21,3.8-.44,5.22-1.62,1.78-1.48,3-4.49,5.29-3.93q13.6-24.56,25.48-50a65.63,65.63,0,0,0,3.43-8.39c1.35-4.42,1.85-9.24,4.49-13S280.26,190.06,283.06,193.74Z"/><path class="cls-57" d="M250.56,264.15a5.47,5.47,0,0,0-1.14,2.5,10.55,10.55,0,0,0,.35,2,6.1,6.1,0,0,1-1.81,4.69,2.75,2.75,0,0,1-2,1.15,2,2,0,0,1-1.58-1.1,5.15,5.15,0,0,1-.5-1.93,9.13,9.13,0,0,1,.11-3.34,10.85,10.85,0,0,1,1.85-3.36l2.35-3.26c.66-.92,1.54-2,2.83-1.66s.81,1.46.51,2.3A10.81,10.81,0,0,1,250.56,264.15Z"/><path class="cls-58" d="M243,279.82c-.27,1.64,1.65,3.16,1.15,4.74l-4-1.28c-.33-.1-.7-.25-.81-.58a1.12,1.12,0,0,1,.16-.83,4.55,4.55,0,0,1,1.5-2,1.55,1.55,0,0,1,2.18.47"/><path class="cls-59" d="M241,271.42a3.45,3.45,0,0,1,1.74,1.62.58.58,0,0,1,0,.39c-.09.27-.45.32-.74.31a10,10,0,0,1-4.48-1.89c-.77-.49-1.59-1-2.33-1.49-.35-.25-.61-.54-.2-.86,1-.76,2.36-.11,3.24.39Z"/><path class="cls-60" d="M216.26,292.46a2.67,2.67,0,0,1-1.94.94,3.67,3.67,0,0,1,.28-3,10.19,10.19,0,0,1,1.92-2.43,21.39,21.39,0,0,1,3.15-2.79,4.72,4.72,0,0,1,2.51-1c.57,0,.85.07,1.06.61a1.1,1.1,0,0,1,.06.92,4,4,0,0,1-.92,1c-.38.38-.77.75-1.16,1.12-.75.73-1.51,1.45-2.27,2.16S217.16,291.66,216.26,292.46Z"/><path class="cls-61" d="M200.36,281c1.07.6,2.32-.24,3.46-.68a10.7,10.7,0,0,1,2.86-.53.51.51,0,0,1,.69.44,5.81,5.81,0,0,1,.18,1.17,24.54,24.54,0,0,0-7.62,2.22,8.89,8.89,0,0,1-2.52,1,2.48,2.48,0,0,1-2.43-.85,2.34,2.34,0,0,1-.33-.8,3.54,3.54,0,0,1,.65-3c.58-.75,1.85-1.58,2.85-1.27S199.42,280.5,200.36,281Z"/><path class="cls-62" d="M284.37,191.88a6.18,6.18,0,0,1-3.44,5.51,4.61,4.61,0,0,1-2.22.54,5.74,5.74,0,0,1-2-.53c-5.1-2.18-8.46-6.28-8.59-10.5a4.76,4.76,0,0,1,2.68-4.7,8.75,8.75,0,0,1,4.88-.44,12.6,12.6,0,0,1,3,.59c2.44,1,4,3.61,4.84,5.45A9.28,9.28,0,0,1,284.37,191.88Z"/><path class="cls-63" d="M266.65,203.16a9.42,9.42,0,0,0,3.71.44,3.17,3.17,0,0,0,2.72-2.25,4.7,4.7,0,0,0-1-3.29l-3.3-5.32c-1.1-1.77-3.87-5.5-6.28-3.3a2.81,2.81,0,0,0-.47,3.13c.63,1.68,1.46,3.31,2.18,5Z"/><path class="cls-3" d="M282.86,184.79a9.28,9.28,0,0,1,2.5,4.44,5.5,5.5,0,0,1-4.65,6.1,6.13,6.13,0,0,1-.87,4c-1.23,2.35-3.62,4.56-6.21,4-1.78-.39-3-2-3.92-3.56s-1.57-3.35-2.89-4.6c-1.93-1.84-5.24-2.75-5.59-5.4-.28-2.15,1.7-3.86,3.53-5a64.54,64.54,0,0,1,8.23-4.43,5,5,0,0,1,6,.74A33.35,33.35,0,0,1,282.86,184.79Z"/></g></g></g></svg>