<svg xmlns="http://www.w3.org/2000/svg" viewBox="0 0 618.27 396.24"><defs><style>.cls-1{fill:#9c8b82;stroke:#262626;stroke-miterlimit:10;stroke-width:2px;}.cls-2{fill:#fff;}.cls-3{fill:#262626;}.cls-4{fill:#252f27;}.cls-5{fill:#171c14;}.cls-6{fill:#1d2720;}.cls-7{fill:#212a22;}.cls-8{fill:#232b25;}.cls-9{fill:#283130;}.cls-10{fill:#292b21;}.cls-11{fill:#131710;}.cls-12{fill:#1b2013;}.cls-13{fill:#1c231c;}.cls-14{fill:#34362a;}.cls-15{fill:#292921;}.cls-16{fill:#2f2e22;}.cls-17{fill:#33342c;}.cls-18{fill:#2e3931;}.cls-19{fill:#475457;}.cls-20{fill:#262f28;}.cls-21{fill:#37413a;}.cls-22{fill:#162323;}.cls-23{fill:#333b3b;}.cls-24{fill:#2b3131;}.cls-25{fill:#202a29;}.cls-26{fill:#4f5247;}.cls-27{fill:#262a1c;}.cls-28{fill:#5b5640;}.cls-29{fill:#9e896d;}.cls-30{fill:#947f65;}.cls-31{fill:#a69986;}.cls-32{fill:#6b5e4d;}.cls-33{fill:#36361e;}.cls-34{fill:#968771;}.cls-35{fill:#9e8f72;}.cls-36{fill:#5f523e;}.cls-37{fill:#3d3528;}.cls-38{fill:#9fa7a2;}.cls-39{fill:#232516;}.cls-40{fill:#111713;}.cls-41{fill:#859298;}.cls-42{fill:#fdfffe;}.cls-43{fill:#abb7bd;}.cls-44{fill:#313927;}.cls-45{fill:#4f5f63;}.cls-46{fill:#272f22;}.cls-47{fill:#73888e;}.cls-48{fill:#bcd2d8;}.cls-49{fill:#1e2214;}.cls-50{fill:#262d28;}.cls-51{fill:#7b7360;}.cls-52{fill:#121612;}.cls-53{fill:#374141;}.cls-54{fill:#171914;}.cls-55{fill:#637279;}.cls-56{fill:#323934;}.cls-57{fill:#313630;}</style></defs><g id="Layer_2" data-name="Layer 2"><g id="Birds"><g id="brown-headed-cowbird-male"><path class="cls-1" d="M206.35,302.3c7.57-3.13,15.42-6.41,23.61-6.09,4.32.16,8.55,1.34,12.87,1.56,5.67.29,11.27-3,16.81-4.27,61.61-13.52,126.41-10.58,187.46,5.56a16.1,16.1,0,0,1,10.62,22c-3.08,7.14-6.23,15.28-8.52,22.07a12.9,12.9,0,0,1-18.66,7.12c-7.31-4.27-14.16-9.6-21.27-14.24-14.47-9.44-31.07-16.33-48.34-16.87-10.54-.33-21,1.69-31.34,3.7l-30.69,6c-28.48,5.54-57.72,11.37-82.18,27-4.72,3-9.31,6.4-14.63,8.14s-11.28,1.69-17,2.14a91.21,91.21,0,0,0-44,15.49c-10.28,7-21.62,16.67-33.47,12.91-6.7-2.13-11.55-8.25-16.63-12.32a41.23,41.23,0,0,1-7-6.94c-3.47-4.53-10.88-9.39-13.1-15.7a10.74,10.74,0,0,1,2.66-11.17c3.89-4,9.61-4.76,14.74-6.12q19.28-5.13,38.34-11.06t38-12.71q18.8-6.72,37.28-14.24Z"/><path class="cls-2" d="M156.08,333.22a2.74,2.74,0,0,1-1.25-2.27,21.14,21.14,0,0,1,2-11.76c.24-.46.5-.92.78-1.37a26.76,26.76,0,0,0-5.87,4.51c-.34.36-.66.73-1,1.11a13.82,13.82,0,0,1-3.67,3.29,6.09,6.09,0,0,1-2.85.72,4.3,4.3,0,0,1-3.92-2.09c-.81-1.49-1-4,2.74-7.49,3.38-3.17,7.59-7.11,12.8-8.45,1-.25,1.95-.41,2.9-.56.78-.12,1.52-.24,2.26-.4,7-1.58,11.89-7,17.05-12.76,4-4.49,8.18-9.13,13.52-11.92a49,49,0,0,1,7.9-3l2-.62c9.21-3,18-7.52,26.58-11.87a237.78,237.78,0,0,1,21.6-10.1l.25-.1a13.62,13.62,0,0,0,5.08-2.83,4.2,4.2,0,0,0,1.1-3.89c-2.52.14-5.07.31-7.54.48-5.46.37-11.11.76-16.67.76-2.52,0-4.84-.08-7.08-.24-1.48-.1-3-.23-4.49-.38a148.42,148.42,0,0,1-18.19-3c-1.84-.42-3.7-.8-5.49-1.15a84,84,0,0,1-12.25-3.11c-1.77-.65-3.56-1.24-5.3-1.81a83.06,83.06,0,0,1-11.63-4.5c-1.66-.83-3.33-1.61-5-2.37a86.22,86.22,0,0,1-11.1-5.88c-4.9-3.21-12.23-9.31-17.08-13.35l-.75-.63a52,52,0,0,1-7.19-7.62c-1.32-1.61-2.69-3.28-4.3-5A89.82,89.82,0,0,1,114,193.43c-1-1.32-1.9-2.65-2.92-4A155.1,155.1,0,0,1,101,174.07c-2.27-3.95-4.24-8.08-6.14-12.08l-.9-1.89a44.76,44.76,0,0,1-6.15-11A102.32,102.32,0,0,1,80,113.42c-.07-1.74-.09-3.5-.11-5.25-.08-6.33-.16-12.86-2.28-18.68-2.79-4.43-5.84-8.72-9.26-13.47l-3.08-4.28c-.16-.21-.32-.44-.48-.67l-5-7A10.69,10.69,0,0,1,56.54,63c-1.54-.88-3.12-1.74-4.69-2.55-1.41-.72-2.86-1.42-4.31-2.09-.72-.34-1.45-.66-2.19-1-.21-.1-.5-.22-2.75-2.49l-.71-.19A377.72,377.72,0,0,1,2.23,41.4a3.72,3.72,0,0,0-.46,0A.64.64,0,0,0,2,41.29L.67,39.81A54,54,0,0,1,11.74,32c1.73-.92,3.53-1.75,5.27-2.55,1.13-.52,2.26-1,3.37-1.58,4.14-2,8.2-4.45,12.13-6.8,7.1-4.24,14.44-8.63,22.57-10.84,7.57-6.49,18.44-7.52,28-8.42C89.06,1.27,94.26,1,99,1a94.9,94.9,0,0,1,18.08,1.59l3.18.59A104.83,104.83,0,0,1,135.13,6.7a70.18,70.18,0,0,1,10.11,4.74c.86.47,1.72.92,2.56,1.36,1.5.79,3.13,1.54,4.7,2.27A64.54,64.54,0,0,1,161,19.54c.58.38,1.16.76,1.73,1.15l.22.15c.74.44,1.53.9,2.31,1.34l5.15,2.88a12.37,12.37,0,0,1,2.71,1.87L189,34.61A55.3,55.3,0,0,1,196,38.4l.23,0a5.62,5.62,0,0,1,1.1-.11,8,8,0,0,1,2.4.41c1.22.23,2.4.54,3.54.85a62.1,62.1,0,0,1,11.51,4.73l.7.34,2.28.86,7.46,2.83q8.09,3.09,16.15,6.22t16.12,6.29q8.06,3.16,16.1,6.37t16,6.41l4,1.6c1.34.54,2.68,1.09,4,1.66a15.08,15.08,0,0,1,2.75-.27h.53a126.71,126.71,0,0,1,18.48,1.83l.42.06c6.51,1,13.52,2.29,21.43,4,7.24,1.59,14.4,3.36,21.1,5l2.68.67c15.82,4,32.19,8,47.73,13.91l1.7.65a77.45,77.45,0,0,0,9.3,3.11,76.35,76.35,0,0,0,15,1.56l50.92,1.94c3.51.13,7.45.51,9.82,3.27l1,1.16-39,11.87L498,132.09l-4.39,1.17c-7.24,1.93-14.68,3.6-22.18,5,2.49.31,5,.51,7.24.71l58.27,4.91c26,2.19,52.89,4.45,77.42,15.13l1.76.76-1.64,1c-7,4.27-15.4,4.85-22.7,4.85-1.92,0-3.82,0-5.46-.08l-65-1.6q-10.37-.25-20.74-.53l-.07.41-65.52,18c-17.93,4.94-35.39,9.9-51.87,16.34a5.8,5.8,0,0,1-.89,1.23,11.07,11.07,0,0,1-4.32,2.36l-14.26,5.1c-1.78.92-3.34,1.75-4.76,2.54-6.56,3.67-12.65,7.69-19.77,12.59a50.26,50.26,0,0,1-9.51,8.31,29,29,0,0,1-7,3.11l1.68,2.87a12,12,0,0,1,1.64,3.76,11.78,11.78,0,0,1-.06,3.76,13.24,13.24,0,0,1-1.36,5.11,12.46,12.46,0,0,1-2.59,2.92,19.31,19.31,0,0,1-2.71,2.08c.06,3.47-3.17,6.31-6.58,7.66a34.11,34.11,0,0,1-8.05,1.79l-1.19.17c-18.92,2.71-36.84,10.25-54.17,17.54a7.47,7.47,0,0,0-1.34.71,82.38,82.38,0,0,1,8.3-.42c1.85,0,3.71.06,5.55.19,9,.61,15.11,3.09,18.85,7.57l1.06,1.27-1.61.35c-6.58,1.43-14.76,3.21-22.62,3.21a41.3,41.3,0,0,1-12.36-1.74l-.46-.14a22.38,22.38,0,0,0-6.12-1.31,4.44,4.44,0,0,0-3.38,1.25,8.6,8.6,0,0,0-1,1.46c-.16.27-.33.54-.5.81a21.07,21.07,0,0,1-5.72,5.19,31,31,0,0,0-3.84,3,29.3,29.3,0,0,0-3.82,5.06c-.75,1.16-1.53,2.35-2.4,3.47-2.63,3.38-5.93,5.32-9,5.32a8.27,8.27,0,0,1-.86-.05,3.22,3.22,0,0,1-1.89-.87,37.73,37.73,0,0,0-.75,8.35c0,1.35-.6,2.25-1.61,2.29l-.65,0-.29-.58c-1.45-2.91-3.25-6.54-2.76-10.36a14,14,0,0,1,2.68-6.26l.15-.22c-.88.36-1.81.71-2.76,1.06-1.67.62-3.4,1.26-5.2,2.08a71.13,71.13,0,0,0-9.22,5.55c-2,1.36-4,2.64-5.68,3.6a3.62,3.62,0,0,1-1.83.44c-.33,0-.66,0-1-.06a8.48,8.48,0,0,0-.88-.06H176a3.77,3.77,0,0,1-3.71-2.49A4.56,4.56,0,0,1,172,317a8.28,8.28,0,0,0-1.5-.13,8.51,8.51,0,0,0-4.06,1,11.73,11.73,0,0,0-2.65,2,21.75,21.75,0,0,0-6.27,12.56l-.18,1.42Z"/><path class="cls-3" d="M99,2a94.91,94.91,0,0,1,17.89,1.57c6.1,1.17,12,2.08,17.93,4.08,4.26,1.45,8.53,4,12.53,6,4.25,2.21,9.14,4,13.14,6.68.66.43,1.3.86,1.94,1.3.8.47,1.59.94,2.38,1.38L170,25.93a11.08,11.08,0,0,1,2.6,1.83l16,7.75a51.4,51.4,0,0,1,7.09,3.92l.63,0a4,4,0,0,1,1-.11,7.08,7.08,0,0,1,2.16.39c1.22.22,2.42.54,3.57.84a66.07,66.07,0,0,1,12,5l9.82,3.73q8.08,3.09,16.15,6.21l16.12,6.29q8,3.17,16.09,6.37t16,6.41l4,1.59c1.43.58,2.87,1.17,4.3,1.78a14.5,14.5,0,0,1,2.87-.31h.52a129.75,129.75,0,0,1,18.76,1.88c7.16,1.07,14.28,2.46,21.35,4S355,86.75,362,88.5l2.67.66c16.06,4,32.16,8,47.63,13.87a93.26,93.26,0,0,0,11.11,3.8,76.49,76.49,0,0,0,15.19,1.59l50.92,1.94c3.28.12,7,.43,9.11,2.92l-41.55,12.64,36.29,6.37q-13.22,3.53-26.71,5.8c0,.16,0,.31.05.48,3.93.7,7.92,1.05,11.88,1.38l58.28,4.91c26.21,2.21,53,4.55,77.1,15-6.55,4-14.4,4.71-22.18,4.71-1.82,0-3.64,0-5.44-.08l-45.59-1.12-19.38-.48q-10.86-.27-21.7-.56a3.45,3.45,0,0,1,0,.64L434.73,180.9c-16.86,4.64-35.19,9.79-52.31,16.51a4.69,4.69,0,0,1-.9,1.32,10.11,10.11,0,0,1-3.94,2.12L363.26,206c-1.64.85-3.26,1.7-4.85,2.59-7,3.92-13.54,8.29-19.94,12.7a49.76,49.76,0,0,1-9.38,8.22,28.4,28.4,0,0,1-7.44,3.21l-.45.29.32.51c.65,1.11,1.29,2.22,1.94,3.32a11.21,11.21,0,0,1,1.53,3.45,11.42,11.42,0,0,1-.07,3.45,12.33,12.33,0,0,1-1.24,4.73,11.47,11.47,0,0,1-2.39,2.68,15.45,15.45,0,0,1-3.08,2.26c.46,3.23-2.64,6-5.91,7.3a40,40,0,0,1-9,1.89c-18.93,2.71-36.79,10.19-54.42,17.61-1.29.55-2.82,1.44-2.73,2.84a80.83,80.83,0,0,1,10.08-.63c1.83,0,3.66.06,5.48.18,6.68.46,13.86,2.08,18.16,7.22-7.35,1.6-14.95,3.19-22.41,3.19a40.84,40.84,0,0,1-12.07-1.69,24.9,24.9,0,0,0-6.87-1.5,5.43,5.43,0,0,0-4.1,1.56,16.66,16.66,0,0,0-1.64,2.4c-2.32,3.45-6.47,5.15-9.43,8.06-2.54,2.5-4.12,5.81-6.31,8.63-2,2.62-5,4.93-8.25,4.93-.25,0-.5,0-.75,0a2.71,2.71,0,0,1-2.16-1.91,3.34,3.34,0,0,0-.82,1.83,39.17,39.17,0,0,0-.77,8.57c0,.53-.12,1.25-.65,1.27-1.53-3.07-3.1-6.38-2.67-9.79a13.35,13.35,0,0,1,2.51-5.81,5.21,5.21,0,0,1,1.69-1.71l.33-.14a6.92,6.92,0,0,1,.4-1.45.07.07,0,0,0-.06-.1h0c-2.81,1.83-6.95,2.81-11.36,4.83-5.18,2.38-10.74,6.83-15,9.19a2.67,2.67,0,0,1-1.34.31c-.6,0-1.22-.12-1.87-.12H176a2.8,2.8,0,0,1-2.75-1.77c-.17-.59-.48-1.55.07-1.81a4.17,4.17,0,0,0,1.31-1,1.55,1.55,0,0,1-.54.32,1.72,1.72,0,0,1-.6.1,6.49,6.49,0,0,1-1.15-.16,9.8,9.8,0,0,0-1.8-.17A9.6,9.6,0,0,0,166,317a13.32,13.32,0,0,0-2.87,2.21,22.78,22.78,0,0,0-6.56,13.14,1.78,1.78,0,0,1-.71-1.49,20,20,0,0,1,1.94-11.19,17.26,17.26,0,0,1,4.12-5.25c-3.89,2-7.84,4.07-10.83,7.24-1.4,1.49-2.61,3.23-4.4,4.21a5.06,5.06,0,0,1-2.38.6,3.33,3.33,0,0,1-3.05-1.57c-1.16-2.15.77-4.61,2.55-6.28,3.66-3.42,7.53-7,12.37-8.22,1.69-.43,3.43-.57,5.13-.95,13-2.93,19-18.58,30.81-24.76a62.37,62.37,0,0,1,9.71-3.58c16.8-5.52,31.75-15.59,48.23-22,2-.79,4.19-1.58,5.69-3.17s2-3.9,1-5.61c-8.28.42-16.56,1.26-24.83,1.26-2.34,0-4.68-.06-7-.23-1.49-.1-3-.23-4.46-.38a147.08,147.08,0,0,1-18.07-3c-6-1.39-11.86-2.14-17.62-4.23s-11.36-3.52-16.82-6.26-10.81-4.83-15.95-8.2-13-10-17.75-13.91-7.18-8.09-11.4-12.51-7.21-9.12-10.9-14a150.27,150.27,0,0,1-10.08-15.27c-2.63-4.56-4.8-9.28-7-14a44.41,44.41,0,0,1-6.09-10.89,102,102,0,0,1-7.7-35.3c-.3-8.18.32-16.72-2.49-24.33-2.92-4.66-6.14-9.15-9.35-13.61l-3.08-4.29c-.22-.29-.43-.59-.65-.89l-1.56-2.18-3.54-4.92a9.65,9.65,0,0,1-3.28-1Q54.7,60.84,52.3,59.6c-1.43-.73-2.88-1.44-4.34-2.11-.73-.34-1.47-.67-2.21-1A25.82,25.82,0,0,1,43.12,54l-1-.26A374.14,374.14,0,0,1,2.4,40.39a2.4,2.4,0,0,0-1,.16,52.38,52.38,0,0,1,10.86-7.64C15,31.42,18,30.19,20.82,28.79,32.52,23.07,43,14.51,55.56,11.15c7.24-6.32,17.8-7.4,27.64-8.32C88.44,2.33,93.72,2,99,2m0-2C94.23,0,89,.27,83,.84c-9.67.91-20.62,1.94-28.42,8.5C46.42,11.61,39.09,16,32,20.23,28.09,22.57,24,25,19.94,27c-1.1.54-2.24,1.07-3.34,1.57-1.76.81-3.57,1.65-5.33,2.58A54.29,54.29,0,0,0,0,39.07L2,41.3l-.38,1L2,42.4l-.07,0h.09A380.4,380.4,0,0,0,41.62,55.7l.46.12C44.29,58,44.61,58.19,45,58.33c.72.32,1.44.64,2.16,1,1.43.65,2.87,1.35,4.27,2.07,1.56.8,3.13,1.65,4.66,2.53A11.48,11.48,0,0,0,59.18,65l3,4.23,1.57,2.18.17.24.5.69L66,74.47l1.54,2.14c3.38,4.69,6.41,9,9.16,13.32,2,5.64,2.11,12,2.19,18.25,0,1.73,0,3.52.11,5.28a103.09,103.09,0,0,0,7.86,36,45.53,45.53,0,0,0,6.22,11.19l.85,1.8c1.91,4,3.88,8.16,6.17,12.14A155.39,155.39,0,0,0,110.31,190c1,1.34,2,2.68,2.91,4a91.24,91.24,0,0,0,8.14,10.23c1.59,1.66,2.94,3.31,4.26,4.92a53.91,53.91,0,0,0,7.32,7.75l.72.6c4.88,4.06,12.25,10.2,17.21,13.45a88,88,0,0,0,11.21,5.94c1.62.76,3.28,1.54,4.94,2.37a85.91,85.91,0,0,0,11.76,4.55c1.72.57,3.51,1.16,5.27,1.8a83.1,83.1,0,0,0,12.39,3.15c1.79.35,3.64.72,5.46,1.14A146.6,146.6,0,0,0,220.21,253c1.51.15,3,.28,4.53.39,2.27.16,4.6.23,7.15.23,5.6,0,11.27-.38,16.75-.75,2.16-.15,4.38-.3,6.59-.43a3.48,3.48,0,0,1-1,2.15,12.61,12.61,0,0,1-4.7,2.58l-.26.1a238.73,238.73,0,0,0-21.69,10.15c-8.51,4.33-17.31,8.81-26.44,11.81l-2,.62a48.73,48.73,0,0,0-8.06,3.09c-5.5,2.87-9.73,7.58-13.81,12.13-5.05,5.63-9.82,10.94-16.52,12.45-.7.16-1.43.27-2.19.4a30.16,30.16,0,0,0-3,.57c-5.47,1.4-9.78,5.44-13.24,8.69-4.2,3.93-3.92,6.9-2.94,8.69a5.29,5.29,0,0,0,4.8,2.62,7.09,7.09,0,0,0,3.33-.84,14.53,14.53,0,0,0,3.94-3.52c.32-.36.64-.73,1-1.07a20.51,20.51,0,0,1,2.6-2.32,22.44,22.44,0,0,0-1.28,10.36,3.7,3.7,0,0,0,1.78,3.05l2.53,1.31.37-2.83a20.71,20.71,0,0,1,6-12,10.65,10.65,0,0,1,2.43-1.88,7.54,7.54,0,0,1,3.58-.89l.52,0a6.32,6.32,0,0,0,.25,1.17l0,.07a4.76,4.76,0,0,0,4.67,3.21h.27a7.59,7.59,0,0,1,.78.06c.33,0,.7.06,1.09.06a4.69,4.69,0,0,0,2.32-.56c1.76-1,3.7-2.28,5.74-3.65a69.56,69.56,0,0,1,9.09-5.47c1.76-.81,3.47-1.44,5.13-2.05h0a13,13,0,0,0-1.42,4.36c-.53,4.13,1.43,8.06,2.86,10.93l.57,1.16,1.3-.05c1.27,0,2.62-1.11,2.57-3.31a36.87,36.87,0,0,1,.47-6.72,4.3,4.3,0,0,0,1.06.25,7.77,7.77,0,0,0,1,.06c4.69,0,8.17-3.57,9.83-5.7.9-1.16,1.69-2.37,2.45-3.55a28.59,28.59,0,0,1,3.69-4.89,29.37,29.37,0,0,1,3.7-2.91,21.78,21.78,0,0,0,6-5.46c.18-.27.35-.56.53-.84a7.68,7.68,0,0,1,.89-1.28,3.34,3.34,0,0,1,2.66-.95,21.61,21.61,0,0,1,5.82,1.26l.46.15A42.39,42.39,0,0,0,257.45,295c8,0,16.21-1.79,22.83-3.24l3.23-.7-2.12-2.53c-3.92-4.7-10.32-7.3-19.55-7.93-1.86-.13-3.75-.19-5.62-.19-.92,0-1.86,0-2.79,0,16.1-6.74,32.72-13.39,50.14-15.88l1.18-.17a35.1,35.1,0,0,0,8.29-1.85c3.56-1.41,6.93-4.36,7.2-8a20.82,20.82,0,0,0,2.38-1.89,13,13,0,0,0,2.79-3.17,14.3,14.3,0,0,0,1.5-5.49,10.28,10.28,0,0,0-1.72-8.15l-.53-.89-.52-.9a29,29,0,0,0,6-2.83,50.29,50.29,0,0,0,9.64-8.39c7.06-4.86,13.1-8.85,19.61-12.48,1.4-.79,2.93-1.6,4.67-2.5l7-2.51,7.16-2.56a11.88,11.88,0,0,0,4.69-2.61,6.55,6.55,0,0,0,.87-1.12c16.34-6.36,33.66-11.29,51.44-16.19l32.45-8.93L500.17,165l1.23-.34,0-.18q9.94.27,19.88.51l9.69.24,9.69.24,22.25.54,23.34.58c2,.05,3.75.08,5.49.08,7.43,0,16-.59,23.22-5l3.28-2-3.52-1.53c-24.68-10.74-51.65-13-77.73-15.21l-27.74-2.34L478.74,138l-.46,0c5.26-1.1,10.47-2.33,15.58-3.69l8.77-2.34-8.94-1.57-28.05-4.92L476.7,122l22.49-6.84,2.93-.89-2-2.33c-2.64-3.06-6.82-3.47-10.54-3.61l-33.95-1.29-17-.65a75.46,75.46,0,0,1-14.8-1.53,75.53,75.53,0,0,1-9.18-3.08l-1.69-.65c-15.61-5.9-32-10-47.85-13.94l-.43-.11-2.25-.56c-6.72-1.67-13.89-3.43-21.13-5-7.93-1.75-15-3.07-21.49-4l-.42-.07a128.21,128.21,0,0,0-18.63-1.84h-.54a17.27,17.27,0,0,0-2.63.23l-3.76-1.55-4-1.6c-5.3-2.14-10.68-4.29-16-6.41s-10.76-4.27-16.1-6.37S247,55.65,241.68,53.58s-10.79-4.17-16.15-6.22l-7.44-2.83-2.3-.87-.61-.3a64.14,64.14,0,0,0-11.66-4.79c-1.18-.31-2.36-.63-3.6-.86a8.88,8.88,0,0,0-2.64-.44,6.38,6.38,0,0,0-1.08.09,58.43,58.43,0,0,0-6.74-3.65L184,31.07l-10.27-5a14.27,14.27,0,0,0-2.8-1.92l-5.15-2.87c-.72-.4-1.44-.82-2.29-1.33l-.13-.09c-.59-.4-1.18-.8-1.78-1.19a65.39,65.39,0,0,0-8.66-4.54c-1.63-.76-3.17-1.47-4.65-2.24-.85-.44-1.7-.9-2.56-1.36a70.83,70.83,0,0,0-10.26-4.81,106.86,106.86,0,0,0-15-3.55c-1.06-.2-2.12-.39-3.18-.6A96.11,96.11,0,0,0,99,0Z"/><path class="cls-4" d="M478.57,140l58.28,4.91c26.21,2.21,53,4.55,77.1,15-8.08,4.94-18.15,4.86-27.62,4.63l-45.59-1.12-19.38-.48c-26.05-.64-52.1-1.28-78.1-2.95-11.91-.76-25.21-2.44-32.69-11.75a2.82,2.82,0,0,1-.85-2.54,2.92,2.92,0,0,1,.85-1.1,45,45,0,0,1,23.92-11.16,45.94,45.94,0,0,1,13.35,0c4.44.67,8.46,2.31,12.71,3.64C466.39,138.92,472.52,139.44,478.57,140Z"/><path class="cls-5" d="M224.88,251.35c11.28.79,22.6-.67,33.89-1.14,9.61-.4,19.29.18,28.66-2,27.55-6.38,46.29-25.87,71-39.66,22.77-12.71,51.18-20.74,76.32-27.66L499.64,163c.39-2.45-2.5-4-4.88-4.67-69.58-20.12-144,8.82-216.12,2.34-14.25-1.28-28.33-3.94-42.51-5.74-8.24-1.05-16.5-1.81-24.77-2.57L96.72,141.86c-1.87-.17-3.92-.31-5.5.72-5.12,3.32.57,10.85,2.38,14.55,2.7,5.52,5.15,11.1,8.23,16.44a150.27,150.27,0,0,0,10.08,15.27c3.69,4.9,6.67,9.58,10.9,14s6.7,8.6,11.4,12.51,12.63,10.56,17.75,13.91,10.47,5.44,15.95,8.2,11.08,4.17,16.82,6.26,11.65,2.84,17.62,4.23a147.08,147.08,0,0,0,18.07,3C221.9,251.12,223.39,251.25,224.88,251.35Z"/><path class="cls-6" d="M375.86,185.14c2.36,1.55,4.74,3.26,6.13,5.71s1.51,5.86-.47,7.88a10.11,10.11,0,0,1-3.94,2.12L359,207.48a52.81,52.81,0,0,0-10.12,4.45c-7.52,4.67-12.31,12.88-19.83,17.55-10.42,6.47-23.76,4.89-35.8,2.57-3.42-.66-6.93-1.37-10.37-.77-4.76.83-8.71,4-13,6.24-12.54,6.44-27.7,4.29-41.28.5-5.75-1.61-11.53-3.54-16.32-7.09s-8.5-9-8.6-15,3.36-11.46,7.88-15.29,10.06-6.22,15.5-8.56l22-9.47c8.51-3.65,17-7.33,26-9.69a126.69,126.69,0,0,1,23.08-3.59c7.78-.57,15.58-.68,23.37-.84,7.49-.16,15-.29,22.47-1.09a23.77,23.77,0,0,1,6.41-.23,12,12,0,0,1,5.76,3.15c2.81,2.45,5.32,5.14,8.34,7.36s6,4.06,9.11,6Z"/><path class="cls-7" d="M240.73,165.13c14.09,3.88,28.51,7.79,43.1,6.87,8.94-.56,18.19-2.91,26.66,0,.54,5.6-4.69,10.14-10,12.09s-11.15,2.44-16,5.35c-6.61,4-10,11.78-15.88,16.74-6.09,5.12-14.56,6.83-22.44,5.79a37.39,37.39,0,0,1-19.92-9.18c-2.51-2.26-4.7-4.85-7.21-7.12-6.59-5.95-15.1-9.44-21.73-15.35a21.11,21.11,0,0,1-6.29-8.82c-1.14-3.47-.82-7.57,1.49-10.4,3.63-4.45,10.48-4.39,15.73-4.41,2.91,0,5.78,1.08,8.55,1.84l11.26,3.1Z"/><path class="cls-8" d="M212.59,187.94c4.37,2.69,8.95,6.39,9.3,11.5.27,3.87-2.1,7.55-5.24,9.81s-7,3.33-10.75,4.18c-2.05.45-4.23.92-5.76,2.36-1.18,1.11-1.82,2.66-2.76,4a10.3,10.3,0,0,1-10.52,3.87c-1.77-.43-3.42-1.34-5.23-1.57-2.2-.29-4.38.46-6.57.79-9.24,1.41-18.56-5.22-21.74-14s-.91-18.92,4.41-26.6a19.74,19.74,0,0,1,5.16-5.38,25.9,25.9,0,0,1,7.83-3.08c5.71-1.53,12.78-3,17.68,1.33a32.25,32.25,0,0,0,4.49,3.93c2.73,1.64,6,2.18,9,3.37A72,72,0,0,1,212.59,187.94Z"/><path class="cls-9" d="M238.14,189.9a3.3,3.3,0,0,1-.34,2.13,3.21,3.21,0,0,1-1.18.91c-4.28,2.21-9.41,2.18-14.11,1.13s-9.13-3-13.69-4.58c-5.63-1.93-11.58-3.27-16.58-6.52s-8.92-9.1-7.75-14.94c.85-4.23,4.22-7.61,8.11-9.48s8.26-2.41,12.56-2.74c3.65-.27,7.76-.36,11.08,1.42,2.07,1.11,3,3.25,4.52,5,2.32,2.74,5.15,5.05,7.54,7.75a48.14,48.14,0,0,1,6.34,8.81A28.53,28.53,0,0,1,238.14,189.9Z"/><path class="cls-10" d="M165.87,186.58c.63,5.2-4.47,9.54-4.73,14.78-.17,3.38,1.7,6.46,3,9.57s2,7-.13,9.63c-1.82,2.21-5,2.63-7.89,2.4-11.29-.9-20.54-9-28.41-17.19q-5.87-6.09-11.39-12.5c-7.4-8.57-14.59-18.23-15.65-29.5a7.89,7.89,0,0,1,.57-4.52c1-1.95,3.33-2.87,5.51-3.27,6-1.09,12.15.7,17.7,3.22s10.74,5.81,16.44,8c4.29,1.63,8.89,2.69,12.84,5.11a14.85,14.85,0,0,1,4.49,4.08,22.25,22.25,0,0,0,3.85,4A10.14,10.14,0,0,1,165.87,186.58Z"/><g id="wing"><path class="cls-11" d="M364.65,89.16c16.06,4,32.16,8,47.63,13.87a93.26,93.26,0,0,0,11.11,3.8,76.49,76.49,0,0,0,15.19,1.59l50.92,1.94c3.28.12,7,.43,9.11,2.92l-41.55,12.64,36.29,6.37A298.45,298.45,0,0,1,361,137a386.39,386.39,0,0,1-44.1-11.44c-7.24-2.3-14.56-4.81-20.75-9.23S285,105.27,284.24,97.7c-.58-6.15,2.23-11.36,6.33-15.7a12.64,12.64,0,0,1,9.7-4.43c6.41,0,13,.94,19.28,1.88,7.16,1.07,14.28,2.46,21.35,4S355,86.75,362,88.5Z"/><path class="cls-12" d="M453.7,128.57c5.72,1.48,12.75,4.19,13,10.1l-44.65,11c-27,6.68-54.21,13.37-82,15.7-15.94,1.34-32,1.22-48,1.11-26.48-.2-53.53-.48-78.51-9.26-7.81-2.74-15.9-6.83-19.53-14.28a25.52,25.52,0,0,1-2.16-12c.77-21.7,19.28-39.51,39.85-46.48a98.52,98.52,0,0,1,23.43-4.65,181.9,181.9,0,0,1,24.15-.21c6.41.3,12.72.66,19.14.52,6.59-.15,13.2,1.2,19.62,2.5,7.42,1.5,14.77,3.39,22,5.56s14.56,4.63,21.74,7.24,14.39,5.39,21.54,8.2,14.32,5.69,21.49,8.49,14.37,5.53,21.64,8.08,14.49,4.89,21.85,7Q451.05,127.89,453.7,128.57Z"/><path class="cls-13" d="M332,159.78a393.34,393.34,0,0,1-47.68,2.11c-3,0-7-.91-7.32-3.94-.21-1.86,1.21-3.49,2.69-4.63,4.57-3.51,10.42-4.78,16.07-5.86A160.1,160.1,0,0,1,317,144.52c2.56-.14,5.56-.51,8.06.27a5.67,5.67,0,0,1,3.46,3.77C329.86,152.2,330.82,156.06,332,159.78Z"/><path class="cls-14" d="M330.13,159.28a17.36,17.36,0,0,1-5.24-.45,13.33,13.33,0,0,1-6.18-4.47,26.72,26.72,0,0,1-1.69-31.2c6.24-9.28,17.73-13.56,28.78-15.3a119,119,0,0,1,22.08-1.23,111.19,111.19,0,0,1,14.8,1.33c4.78.79,9.47,2,14.15,3.22,18.1,4.77,36.22,10.19,52.59,19.28,1.77,1,3.78,2.56,3.37,4.54a4.23,4.23,0,0,1-1.49,2.17c-3.76,3.41-8.81,4.93-13.71,6.26q-10.47,2.85-21.08,5.14a34.8,34.8,0,0,1-5,1,23.19,23.19,0,0,0-3.62.32q-5.28,1.19-10.57,2.23-10.65,2.08-21.4,3.57c-7.13,1-14.3,1.78-21.47,2.37s-14.37,1-21.57,1.17Z"/><path class="cls-15" d="M456.92,131.9a3.77,3.77,0,0,1,2.06,1.59c.94,2-1.92,3.65-4.12,4.08l-25.27,5c-4.29.85-8.59,1.7-12.89,2.49-25.48,4.62-51.35,6.74-77.22,7.7-4,.14-8.34.19-11.73-2-5.05-3.22-6.23-10.22-5.1-16.1a14.56,14.56,0,0,1,2.73-6.54,17.52,17.52,0,0,1,6.57-4.46c15.91-7.24,33.69-9.7,51.17-9.27a218.37,218.37,0,0,1,31,3.23c5.14.87,10.26,1.87,15.37,2.92a22.46,22.46,0,0,1,5.72,1.57c1.8.92,3.59,1.78,5.45,2.58Q448.84,128.28,456.92,131.9Z"/><path class="cls-16" d="M441.57,133.12A2.81,2.81,0,0,1,442,135a2.52,2.52,0,0,1-1.41,1.51,16.24,16.24,0,0,1-6.26,1.39q-36.12,3-72.31,4.86c-3,.15-6.69,0-8.25-2.63-1.15-1.94-.59-4.42.2-6.53a37.89,37.89,0,0,1,25.41-23c8.5-2.24,17.57-1.4,26,1a110,110,0,0,1,17.38,6.88c2.42,1.16,4.71,2.51,7.32,3.11,2.33.55,4.45,2.61,6.11,4.25A28.41,28.41,0,0,1,441.57,133.12Z"/><path class="cls-17" d="M427.9,130.51a3.61,3.61,0,0,1,.27,2.47c-.43,1.14-1.8,1.58-3,1.81a70.49,70.49,0,0,1-10.16.89l-24.05.95c-4,.16-8.1.28-11.73-1.31a21.46,21.46,0,0,1-6.44-4.77c-2-2-3.94-4.38-4.12-7.2-.31-4.59,4.06-8.09,8.31-9.85,7.83-3.22,16.55-3.37,24.77-1.77,3.88.76,7.55,2.14,11.36,3.13,3.1.8,5.67,2.91,7.91,5.13A29.73,29.73,0,0,1,427.9,130.51Z"/><path class="cls-18" d="M418.7,120.53c2.42,1.8,5,4.3,4.56,7.29-6.36,4-15.41-1.66-22.1,1.81-2.18,1.13-3.78,3.1-5.78,4.51-3.09,2.19-6.94,3-10.66,3.65q-19.2,3.54-38.58,6.08c-5.52.73-11.23,1.38-16.6-.1-8.49-2.35-14.82-9.84-17.87-18.1s-3.28-17.27-3.05-26.07c.08-3,.25-6.09,1.8-8.63,2.33-3.83,7.17-5.34,11.65-5.63,9.34-.6,18.43,2.73,27.19,6l30.44,11.37c4.61,1.72,9.19,3.67,13.91,5.07A74.28,74.28,0,0,1,404.66,112,85.33,85.33,0,0,1,418.7,120.53Z"/><path class="cls-19" d="M343.53,102.08c4.09,4.11,7.28,10.53,4.4,15.56a16.31,16.31,0,0,0-1.76,3.08c-.54,1.75.14,3.67-.17,5.49-.67,4-5.49,5.61-9.51,6a58.86,58.86,0,0,1-14.1-.24c-3.88-.53-7.85-1.52-10.88-4-3.67-3-5.41-7.7-7-12.17a24.09,24.09,0,0,1-1.85-8.14c.06-4.61,2.89-8.91,6.73-11.47a21.45,21.45,0,0,1,7.62-3,56.63,56.63,0,0,1,6.2-1.23c4.46-.38,9.47,2.27,13.16,4.5A37.81,37.81,0,0,1,343.53,102.08Z"/><path class="cls-20" d="M329.89,88.62c1.4.93,2.92,2.5,2.22,4a3.6,3.6,0,0,1-2.47,1.61,37.07,37.07,0,0,1-9.25,1.42,92.77,92.77,0,0,1,24.69,10.65,6.27,6.27,0,0,1,2.4,2.16,2.27,2.27,0,0,1-.52,2.93,3.31,3.31,0,0,1-1.85.31l-7.5-.18c2.41,1.09,5.15,1.41,7.41,2.79s3.84,4.54,2.27,6.67-4.48,1.72-6.91,1.23l-15.53-3.1a28.86,28.86,0,0,1,17.35,16.43,16.74,16.74,0,0,1-16.53.34,14.21,14.21,0,0,1,9.11,7.37,62,62,0,0,1-25.42,6.17c-3.07.08-6.2-.07-9.2.64a32.5,32.5,0,0,0-7,2.81c-7.94,3.95-15.93,8-24.55,10.07-18.23,4.39-37.29-.39-55.27-5.72-5-1.48-10.39-3.36-12.91-7.89-1.33-2.41-1.63-5.23-1.88-8-.46-4.95-.82-10.09.84-14.77,1.31-3.68,3.78-6.82,6.23-9.86,8.86-11,18.7-22.21,32-26.85A75.44,75.44,0,0,1,251,87q17.72-2.76,35.54-4.57c5.25-.53,10.51-1.06,15.78-1.4A40.65,40.65,0,0,1,313,82,46.83,46.83,0,0,1,329.89,88.62Z"/><path class="cls-21" d="M284.22,117.27a9.71,9.71,0,0,0-2,2.87c-.44,1.28-.12,2.73-.56,4-.57,1.67-2.23,2.66-3.65,3.7-2.94,2.14-5.27,5-8.1,7.3s-6.51,4-10.05,3.17A31.54,31.54,0,0,0,270.8,156c.85.69,1.82,1.47,1.88,2.56.13,2.31-3.3,2.63-5.54,2.06l-53.75-13.71c-2.13-.54-4.36-1.14-5.94-2.68-1.74-1.69-2.35-4.25-2.43-6.67-.18-5.81,2.25-11.4,5.34-16.31,12-19,35.21-30.39,57.6-28.1,5.51.56,11.09,2.07,15.47,5.59a8.88,8.88,0,0,1,3.25,4.1,19.14,19.14,0,0,1,.42,5.6A13.75,13.75,0,0,1,284.22,117.27Z"/></g><path class="cls-22" d="M293.1,76.1C302.34,79.84,312,84,318,92a33.44,33.44,0,0,1-13.79-1.68c1,1.34.25,3.39-1.13,4.35a8.86,8.86,0,0,1-4.8,1.16,96.78,96.78,0,0,1-13.19-.35,9.57,9.57,0,0,1,3.68,2.76c.87,1.28,1,3.23-.23,4.22a4.1,4.1,0,0,1-2.16.78,19.25,19.25,0,0,1-10.28-1.38,14.38,14.38,0,0,1-10.2,3.86,24.63,24.63,0,0,1-11.85.44,11.1,11.1,0,0,1-8.26,10.66c2.57.62,3.37,4.17,2.15,6.51s-3.69,3.69-6,4.91c2,6.15.87,13.68-4.12,17.81s-13.83,3.14-16.65-2.69c-2.92,3.09-8.2,2.48-11.71.09s-5.87-6.09-8.69-9.27c-7-7.9-17-12.6-24.55-20-2.72-2.64-5.22-5.88-5.52-9.66-.33-4.2,2.12-8.06,4.36-11.63a154.23,154.23,0,0,0,7.68-13.53,101.34,101.34,0,0,0,6-14.48,71,71,0,0,0,3.13-15c.3-3.28.08-8.33,3.56-10.15,1.72-.89,3.53-.29,5.22.35l8.13,3q8.06,3,16.1,6.12T241,55.44l16.12,6.29q8,3.17,16.09,6.37t16,6.41Z"/><path class="cls-23" d="M215.24,45.62c26.06,12.76,54,21.16,80.8,32.3,7.11,3,14.41,6.31,19.31,12.24a18.65,18.65,0,0,1-11.41-.79,3.44,3.44,0,0,1-1.35,4,8,8,0,0,1-4.4,1.19c-13.3.57-24.81-8.67-37.52-12.61-6.24-1.93-12.79-2.57-19.11-4.21-4.48-1.15-8.82-2.81-13.31-3.91A56.94,56.94,0,0,0,205,73c-6.12,1-13.12,2.9-18-1-3.12-2.47-4.34-6.69-4.44-10.67a26.7,26.7,0,0,1,7.32-18.75,9.23,9.23,0,0,1,5.44-3.21c2.54-.34,5.24.4,7.67,1C207.3,41.64,211.27,43.68,215.24,45.62Z"/><path class="cls-24" d="M211,70.07c-5.51,1.8-11.44,3.61-17,2a14.35,14.35,0,0,1-8-21.47c3.91-6.14,12.05-8.44,19.28-7.55s13.84,4.35,20.38,7.57q11.72,5.77,23.84,10.71a5.74,5.74,0,0,0-1.84.09l-2,.09-4.08.19c-2.17.11-4.28-.17-6.36.51l-15.44,5Z"/><path class="cls-25" d="M213.62,73c10.34.38,20.44,3.05,30.45,5.7a3.77,3.77,0,0,1,2,1c1.52,1.7-.93,4.24-3.18,4.56-4.85.69-9.84-2.41-14.51-1-3,.94-5.37,3.68-8.51,4.09a13.86,13.86,0,0,1-4.05-.34,49.52,49.52,0,0,0-29.46,4.19c-.74.36-1.55.82-1.76,1.62-.38,1.44,1.38,2.44,2.77,3a30,30,0,0,1,16,15.13c1.59,3.45,2.11,8.35-1.13,10.34-1.7,1-4.08,1-5.38,2.5-1.56,1.85-.4,4.79,1.39,6.42s4.15,2.63,5.68,4.51a12.74,12.74,0,0,1,2,4.23,45.62,45.62,0,0,1,1.85,8.74c.51,4.6,0,9.95-3.67,12.75-1.19.91-2.62,1.46-3.76,2.42-2.44,2-3.14,5.41-4.33,8.36-4.42,11-18.3,17.09-29.39,12.92-4.43-1.67-8.24-4.65-12.58-6.55a6.14,6.14,0,0,0-4.53-.59,8.36,8.36,0,0,0-2.44,1.75,18.92,18.92,0,0,1-17.87,3.62c-4.92-1.6-8.94-5.17-12.47-9a19.94,19.94,0,0,1-4.8-7.18c-1-3.23-.53-6.73.1-10.06a135.87,135.87,0,0,1,15.14-41.37c3.11-5.51,6.6-10.79,10.23-16,2.84-4,6.41-8.33,11.36-9.72a34.47,34.47,0,0,1,4.74-.68,25.12,25.12,0,0,0,6.71-2.13c5.51-2.38,11.06-4.67,16.71-6.68A129.57,129.57,0,0,1,194,74.73a83.56,83.56,0,0,1,17.56-1.82Z"/><path class="cls-26" d="M146.36,150.52c6.06,3.09,12.77,4.84,18.68,8.21,1.44.82,2.93,1.88,3.35,3.49a5.76,5.76,0,0,0,.63,2.16,2.83,2.83,0,0,0,1.65.87c3.44.82,7.07.35,10.56.95s7.18,2.8,7.62,6.31-2.76,6.71-6.06,8.31a23.7,23.7,0,0,1-18.68.73c-5.15-2-10.23-6-15.59-4.61a28.64,28.64,0,0,0-5,2.22,21.25,21.25,0,0,1-30.22-18.08,30.75,30.75,0,0,1,1.67-10.9,55,55,0,0,1,4.22-9.82c1.38-2.49,3.08-5,5.66-6.19,3-1.37,7.06-.23,8.56,2.71a44.79,44.79,0,0,0,2.51,4.93,22.36,22.36,0,0,0,4.34,4.72A32.92,32.92,0,0,0,146.36,150.52Z"/><g id="head"><path class="cls-27" d="M57,62.17a8.86,8.86,0,0,0,4.05,1c0-.52-3.65-5.62-5.55-6.74-.57-.34-1.25.1-1.9,0-1.62-.33-3.25-.63-4.88-.9-.81-.14-1.63-1.27-2.45-1.38-.5-.07-3.77-.68-3.77-.68a42.85,42.85,0,0,0,3.21,3.06c.74.32,1.48.65,2.21,1,1.46.67,2.91,1.38,4.34,2.11Q54.7,60.83,57,62.17Z"/><path class="cls-28" d="M89.89,139.39a74.32,74.32,0,0,0,4.53,14.42,64.2,64.2,0,0,0,8.44,12.64c1.51,1.88,3.3,3.87,5.71,4.13,3.57.39,6.24-3.2,7.59-6.53a11.51,11.51,0,0,1,2-3.82c.75-.8,1.74-1.32,2.51-2.1,1.58-1.59,2-4,2-6.24s-.36-4.5,0-6.71c.75-4.57,4.35-8.09,6.35-12.26,3-6.3,2.46-14.14,6.6-19.77,1.77-2.39,4.35-4.33,5.12-7.2a8.1,8.1,0,0,0-2.2-7.47,14.82,14.82,0,0,0-7-3.85c-8.54-2.29-17.55-.09-26.39-.09a93.23,93.23,0,0,0-10.17,0c-3.38.36-6.81,1.52-9.13,4-3.22,3.46-3,8.46-2.19,12.81,1.11,6,2.46,12,3.85,18Q88.68,134.37,89.89,139.39Z"/><path class="cls-29" d="M69.15,75.44c5.68,7.89,11.39,15.83,15.41,24.68a6.75,6.75,0,0,0,2.37,3.29c1.26.73,2.86.53,4.21,1.06,3.22,1.26,3.78,5.89,6.77,7.63,3.39,2,7.5-.79,11.4-1.2a24.09,24.09,0,0,0,4.43-.4c2.19-.67,3.66-2.64,5.47-4,3.86-3,9.11-3.34,14-3.88s10.22-1.71,13.11-5.68c1-1.35,1.62-3,2.79-4.18a12.54,12.54,0,0,1,3.62-2.35c3.47-1.73,7-3.49,10.84-4.07a41.82,41.82,0,0,0,4.75-.7c3.59-1,6.36-3.78,9.73-5.33,2.55-1.18,5.4-1.6,8-2.72,7.81-3.41,11.51-12.35,13.32-20.68.76-3.52,1.31-7.28,0-10.65a15.06,15.06,0,0,0-5.57-6.56c-3.52-2.49-7.58-4.1-11.52-5.85-7.91-3.5-14.53-8.67-21.76-13.43-4-2.64-8.89-4.47-13.14-6.68-4-2.08-8.27-4.59-12.53-6-5.89-2-11.83-2.91-17.93-4.08-11.07-2.13-22.46-1.8-33.68-.74C72.39,3.84,60.7,5,53.51,13.16c-2.11,2.4-4,5.28-3.71,9.6s3.41,7.1,5.53,10.91c3.21,5.77,9,7.75,14.21,10.77-1.52.9-4-1-5.5.5a26.66,26.66,0,0,1-1.91,7c-1,2.21-.59,2.59-2.42,4.09-.61.5-3.46.12-3.67.92-.27,1,2.53,3.79,3.07,4.54l4.75,6.6Z"/><path class="cls-30" d="M130.91,104.1c1.48-.59,2.79-1.56,4.29-2.1,3.84-1.38,9-.09,11.48-3.3,1.11-1.4,1.35-3.34,2.4-4.79,2.4-3.28,7.76-2.7,10.62-5.58.75-.77,1.41-1.81,2.48-1.94s1.86.63,2.8,1c1.9.7,4-.26,5.76-1.2l4.93-2.58c1.75-.92,3.68-2.06,4.13-4,2.58.17,5.26.32,7.66-.63,3.11-1.23,5.23-4.11,6.93-7A58.6,58.6,0,0,0,201,55.22c.79-3.49,1.22-7.32-.38-10.53A12.08,12.08,0,0,0,198,41.28c-2.7-2.51-6.08-4.16-9.4-5.77l-16.68-8.07a7.61,7.61,0,0,0-3.08-1,5.75,5.75,0,0,0-3.2,1.13c-5.12,3.4-6.88,9.95-8.41,15.91S153.53,56,148.1,58.89a29.25,29.25,0,0,0-3.82,2c-2,1.45-3,3.88-4.61,5.7-1.18,1.31-2.7,2.28-3.89,3.58s-2.09,3.1-1.59,4.8a24,24,0,0,1,1.11,2.7,5.39,5.39,0,0,1-.88,3.26L128.65,92a17.8,17.8,0,0,1-4.11,5.85c-1.12.92-3.91,2.67-3,4.51.8,1.68,4,2.27,5.64,2.34A9.33,9.33,0,0,0,130.91,104.1Z"/><path class="cls-31" d="M170,25.93c1.47.82,3.06,1.79,3.57,3.4.59,1.9-.61,3.92-2.08,5.26s-3.27,2.37-4.45,4c-1.33,1.8-1.73,4.14-2.95,6a16.11,16.11,0,0,1-3.55,3.54c-1,.81-2.17,1.68-3.46,1.56a3.53,3.53,0,0,1-2.82-3.17,11.54,11.54,0,0,1,.63-4.49c.88-3.29,1.5-6.81.5-10.06-1-3.41-3.83-6.32-3.89-9.9,0-2.33,2.13-4.95,4.57-3.87,3,1.34,5.89,3.26,8.77,4.87Z"/><path class="cls-32" d="M95.54,45.41A32.55,32.55,0,0,0,107.62,37a17.77,17.77,0,0,1,3-2.8,10.15,10.15,0,0,1,6.27-1.41,15,15,0,0,1,8.57,3.5,11,11,0,0,0,3,2.18c1.55.6,3.87.65,4.06,2.3.13,1.24-1.28,2.15-1.42,3.39-.17,1.49,1.5,2.57,1.78,4,.32,1.72-1.27,3.11-2.13,4.63-1.11,2-1,4.4-.85,6.66a4,4,0,0,0,.48,2c.72,1.1,2.26,1.23,3.38,1.92a4.76,4.76,0,0,1,1.9,4.61,11.32,11.32,0,0,1-2,4.8,14.82,14.82,0,0,1-5.49,5.46c-1.19.58-2.5.9-3.7,1.47-4.54,2.14-7.77,7.81-12.76,7.27a6.48,6.48,0,0,0,.42,5.34c.76,1.35,2,3,1.11,4.21a6.71,6.71,0,0,1-1.55,1.11c-2.08,1.57-1.4,5.48-3.73,6.64-.78.39-1.72.34-2.51.71-2,1-2.11,4.18-4.15,5.12-1.54.71-3.32-.3-4.55-1.47C90.7,103,90,93.88,86.3,86.55,81.91,77.86,73.47,72,67.79,64.07A18.1,18.1,0,0,1,65,58.68,11.61,11.61,0,0,1,78.62,44.1a26.62,26.62,0,0,1,3.51,1.53,15.68,15.68,0,0,0,5.74,1.12A21,21,0,0,0,95.54,45.41Z"/><path class="cls-33" d="M79.34,78a75.74,75.74,0,0,1,7.37,9.86,33.49,33.49,0,0,1,3.42,24.87c-1,4.07-2.88,8.19-2,12.3a39,39,0,0,0,2.15,5.68A38.18,38.18,0,0,1,92,138.3l3.45,22.07a42.52,42.52,0,0,1-6.74-11.69,102,102,0,0,1-7.7-35.3c-.33-8.85.43-18.1-3.23-26.16a44,44,0,0,0-6.45-9.6,97.49,97.49,0,0,1-7.15-9.19c-.69-1.1-4.27-6.34-.95-6.31,2.44,0,5.18,2.06,6.7,3.82s2.67,3.52,4,5.26,2.89,3.68,4.37,5.49Z"/><path class="cls-34" d="M100.63,73.65c.72,1.42,2,2.48,2.83,3.85,1.38,2.32,1.27,5.23,2.27,7.74.9,2.25,2.63,4,4,6s2.38,4.52,1.6,6.8c-1.44.16-2,1.89-2.6,3.21-1,2.12-2.81,3.7-4.59,5.21a13.66,13.66,0,0,1-4.09,2.7,4.68,4.68,0,0,1-4.66-.61A6.41,6.41,0,0,1,94,106.34c-2.66-6.11-3.45-12.94-6.51-18.85-4.93-9.52-15.08-15.49-20-25-1.1-2.14-1.93-4.64-1.23-6.94s3.51-4,5.62-2.88c1.4.77,2.24,1.88,3.91,2.21a21.72,21.72,0,0,0,4.63.1,10.28,10.28,0,0,1,6.22,1.56c1.58,1.08,2.83,2.57,4.32,3.76a20.16,20.16,0,0,0,3.34,2.14A12.44,12.44,0,0,1,98,64.76C100.24,67.19,99.21,70.85,100.63,73.65Z"/><path class="cls-35" d="M191.86,37.56c4,2.71,7.25,7.14,7.18,12-.06,3.49-1.75,6.72-2.7,10.09-.76,2.72-1.05,5.62-2.37,8.12-2.26,4.3-7,6.56-11.44,8.54l-15.87,7.09c-4.43,2-9.8,3.91-13.87,1.26-1.32-.86-2.41-2.41-2-4a5.59,5.59,0,0,1,.87-1.7l4.45-6.54a61.71,61.71,0,0,1,5.55-7.39,16.36,16.36,0,0,0,2.36-2.9c.95-1.73,1-3.79,1.22-5.75a52.88,52.88,0,0,1,4.51-17c1.25-2.73,3.46-6.81,6.81-7.28a8.32,8.32,0,0,1,3.68.63c1.82.59,3.65,1.12,5.44,1.77A28.8,28.8,0,0,1,191.86,37.56Z"/><path class="cls-36" d="M156.88,38.83a11.73,11.73,0,0,1-4.1,1c-2.36.27-6.59,1.43-7.95-1.34-.87-1.77.39-4.67,1.51-6.08,2.8-3.53,7.73-3,10.94-.35a4.58,4.58,0,0,1,2,3.61A4.06,4.06,0,0,1,156.88,38.83Z"/><path class="cls-37" d="M59.07,12.33a14.89,14.89,0,0,1,5.41-.19,7.94,7.94,0,0,1,3.24.76,8,8,0,0,1,1.62,1.35L75.14,20c.91.91,2,1.89,3.29,1.73a5.5,5.5,0,0,0,1.88-.82C83.8,19,88.05,19.19,92,19.46a9.5,9.5,0,0,1,3.81.8,3.23,3.23,0,0,1,1.83,3.18c-3.77-.06-7.46-1.76-11.19-1.22A9.86,9.86,0,0,0,78.4,32.75a9.86,9.86,0,0,0,10.35,8.32,6.37,6.37,0,0,1,2.85,0c.89.33,1.51,1.57.85,2.27a150.48,150.48,0,0,1-18.63-.56,26.19,26.19,0,0,1-6.76-1.3,25.41,25.41,0,0,1-7.76-5.29c-3-2.74-6-5.9-7.42-9.78a10.69,10.69,0,0,1-.72-5.58,10.41,10.41,0,0,1,1.34-2.5,21.59,21.59,0,0,1,1.62-2.41A9.92,9.92,0,0,1,59.07,12.33Z"/><path class="cls-38" d="M86.66,40a8.21,8.21,0,0,1-4.55-1.33A8.87,8.87,0,0,1,80,36.36a8.69,8.69,0,0,1-1.6-3.89,8.76,8.76,0,0,1,.84-4.07,11.3,11.3,0,0,1,2-3.39,9,9,0,0,1,5.12-2.57,17.72,17.72,0,0,1,5.81.16,9.75,9.75,0,0,1,5.31,2.26,8.52,8.52,0,0,1,2.11,4.55,8.27,8.27,0,0,1,.28,2.37,4.86,4.86,0,0,1-.8,1.78A12.18,12.18,0,0,1,96,37a14.38,14.38,0,0,1-4.16,2.22A14.92,14.92,0,0,1,87.2,40Z"/><path class="cls-39" d="M93.31,37.1a10.59,10.59,0,0,1-4.85,2,6.87,6.87,0,0,1-5.63-11.52,10.86,10.86,0,0,1,6.44-2.91,9.68,9.68,0,0,1,4.48.15,6.36,6.36,0,0,1,4,4.43c.6,1.89-.41,4-1.62,5.42A13.17,13.17,0,0,1,93.31,37.1Z"/><path class="cls-40" d="M92,33.35a3.61,3.61,0,0,1-3.72,2.44,5.44,5.44,0,0,1-2.88-1.71,3.27,3.27,0,0,1-.63-.81,3,3,0,0,1-.18-1.4,3.6,3.6,0,0,1,.81-2.59,3.64,3.64,0,0,1,1-.6,6.7,6.7,0,0,1,2.38-.76,3.14,3.14,0,0,1,2.41,1,4.59,4.59,0,0,1,1,2.75A4.19,4.19,0,0,1,92,33.35Z"/><path class="cls-41" d="M95.37,29.09A2.17,2.17,0,0,1,94,30.41a3.1,3.1,0,0,1-1.64-.21,9.37,9.37,0,0,0-2.77-.68c-1.3,0-2.56.53-3.86.48a2.12,2.12,0,0,1-.66-.11,1.62,1.62,0,0,1-1-1.53,2.43,2.43,0,0,1,.79-1.7,5.16,5.16,0,0,1,1.63-1,11.69,11.69,0,0,1,6.1-.78,5.33,5.33,0,0,1,1.87.56,2.77,2.77,0,0,1,1.2,1.22,2.38,2.38,0,0,1,0,1.27A4.57,4.57,0,0,1,95.37,29.09Z"/><path class="cls-42" d="M90,27.24a1.11,1.11,0,0,1-.79.3.83.83,0,0,1-.58-.11.88.88,0,0,1-.24-.43,1.32,1.32,0,0,1-.09-.73.87.87,0,0,1,.91-.62A1.23,1.23,0,0,1,90,26a.51.51,0,0,1,.19.33,2.26,2.26,0,0,1,0,.45A.82.82,0,0,1,90,27.24Z"/><path class="cls-43" d="M63.43,43.13A6.59,6.59,0,0,1,64,44.67a1.53,1.53,0,0,0,.4,1,1.28,1.28,0,0,0,1,.12c.22-.26.1-.7.32-1a.61.61,0,0,1,.5-.18,2.5,2.5,0,0,1,.54.13A4,4,0,0,0,70,44.5c.13-.08.26-.2.23-.35a.44.44,0,0,0-.12-.18,15.44,15.44,0,0,0-2.65-1.87l-4.28-2.57a8.39,8.39,0,0,0-1.25-.68,6.09,6.09,0,0,0-.94-.31.2.2,0,0,0-.13,0c-.09.05-.05.18,0,.25a1.66,1.66,0,0,1,.27.26l.28.41c.19.28.37.57.55.86.36.58.7,1.17,1,1.78C63.11,42.45,63.27,42.79,63.43,43.13Z"/><path class="cls-44" d="M63.6,55.62c0,.7-.09,1.4-.05,2.1a6.41,6.41,0,0,0,1.22,3.11A3.24,3.24,0,0,1,65.35,62c-1.44.36-2.89-.43-4.11-1.27A31.64,31.64,0,0,1,58,58.11a2,2,0,0,1-.52-.61.7.7,0,0,1,.09-.76,1.12,1.12,0,0,1,.53-.24,6.25,6.25,0,0,0,3.48-2.41,2.18,2.18,0,0,1,.53-.6.66.66,0,0,1,.9.07,3.93,3.93,0,0,1,.5,1.28A4.24,4.24,0,0,1,63.6,55.62Z"/><path class="cls-45" d="M60.55,55.76a3.87,3.87,0,0,1-1.12.94,3.83,3.83,0,0,1-2,.19,86.06,86.06,0,0,1-15.29-3.12A375.53,375.53,0,0,1,2.05,40.26c14.05-1.76,27.49-4.82,42.36-4.12,2,.1,4.08.81,6.09,1.1,1.3.19,2.58.53,3.88.68,2.78.3,7.26-.3,8.59,2.88a13.55,13.55,0,0,1,.5,9.86A15.26,15.26,0,0,1,60.55,55.76Z"/><path class="cls-46" d="M20.53,41.47c7.76,1.68,16,1.15,23.46,3.84,3.42,1.23,6.75,3.15,10.39,3.07,1.33,0,2.65-.33,4-.26a3.94,3.94,0,0,1,3.39,1.77,3.53,3.53,0,0,1-.21,3.33,6.75,6.75,0,0,1-5.65,3.05,20,20,0,0,1-6.56-1.16C35.26,51,21.19,46.81,7.34,42c-.83-.28-1.78-.71-1.94-1.58A39.33,39.33,0,0,1,11,39.87a31.64,31.64,0,0,1,5.9.74C18.08,40.89,19.3,41.21,20.53,41.47Z"/><path class="cls-47" d="M1.35,40.55a52.38,52.38,0,0,1,10.86-7.64C15,31.42,18,30.19,20.82,28.79c11.77-5.75,22.28-14.38,35-17.7-.35,2.62-3.1,4.13-4.58,6.32-1.73,2.56-1.61,6-.43,8.87a24.82,24.82,0,0,0,5.44,7.41,20.11,20.11,0,0,1,1.9,2.12c.44.63,3,2.52,2.44,2.63-.9.17-5.18-.56-6.09-.59s-2-.07-3-.09c-4-.07-8.11-1-12.16-.84s-7.65.17-11.71.52-8.6,1-12.64,1.49-8.11,1-12.16,1.45C2.46,40.41,1.55,40.37,1.35,40.55Z"/><path class="cls-48" d="M57.75,43.2a18.22,18.22,0,0,0,2.21,2,3.35,3.35,0,0,0,2.82.59c.67-1.06.07-2.47-.73-3.44a9.49,9.49,0,0,0-5.54-3.21A8.89,8.89,0,0,0,54.89,39a3.83,3.83,0,0,0-1.62.14c-.8.43.67,1.41,1,1.64A18.4,18.4,0,0,1,57.75,43.2Z"/><path class="cls-49" d="M44.82,24.51c-.61-.38-1.33-1-1-1.69a1.52,1.52,0,0,1,.58-.6,22.1,22.1,0,0,1,3.31-1.89,1.15,1.15,0,0,1,1-.12,1.12,1.12,0,0,1,.43.55,10.9,10.9,0,0,1,1.29,4.81A1.6,1.6,0,0,1,49.54,27c-.67.23-1.49-.55-2-.88Z"/><path class="cls-50" d="M38.7,36.16c-.13-1.06.75-2,1.61-2.58,2.25-1.63,6.67-4.1,8.92-1.17a2.22,2.22,0,0,1,.2,2.65,1.89,1.89,0,0,1-1.53.42c-1,0-1.91,0-2.87.08C44.5,35.59,38.68,36,38.7,36.16Z"/><path class="cls-2" d="M27.77,30.22c-7.31,1.76-14.22,4.84-21,8,.51-1.37,1.91-2.17,3.21-2.85C23.87,28.19,38.32,22,51.55,13.57c.53,1.8-.54,3.74-2,4.94a42.65,42.65,0,0,1-4.84,2.89c-.74.45-1.52,1.16-1.39,2a1.93,1.93,0,0,0,.51.94c1.26,1.42,3.16,1.92,4.73,2.87.43.26,1.33.71,1,1.33s-1.16.64-1.67.73a7.78,7.78,0,0,1-2.5-.11c-1.11-.16-2.22-.28-3.34-.35a43.46,43.46,0,0,0-6.75.13A52.76,52.76,0,0,0,27.77,30.22Z"/><path class="cls-51" d="M58.77,13.56a18.14,18.14,0,0,1,6.57-4.43c6.19-2.71,13.84-3.59,19.38.27A13.51,13.51,0,0,1,90,17a1,1,0,0,1,0,.86,1,1,0,0,1-.63.37Q82,20.49,74.58,22.38c-1.89.47-3.88.93-5.75.38-1.22-.36-2.3-1.13-3.53-1.47-2.26-.62-4.58.24-6.87,0-.76-.08-1.93-.18-2.06-1.08a7.32,7.32,0,0,1,.44-3.31A10.22,10.22,0,0,1,58.77,13.56Z"/></g><path class="cls-52" d="M266.12,263.89c-11.82,6.78-26.44,8.37-37,17-3.54,2.88-6.51,6.47-10.33,9-2.22,1.45-4.68,2.5-7,3.75a98.49,98.49,0,0,0-10.15,6.66c-7.05,5-14.72,10-23.36,10.48-2.62.15-5.28-.11-7.87.34a28.83,28.83,0,0,0-8.15,3.18c-4,2-8.09,4.14-11.17,7.41-1.4,1.49-2.61,3.23-4.4,4.21s-4.45.82-5.43-1c-1.16-2.15.77-4.61,2.55-6.28,3.66-3.42,7.53-7,12.37-8.22,1.69-.43,3.43-.57,5.13-.95,13-2.93,19-18.58,30.81-24.76a62.37,62.37,0,0,1,9.71-3.58c16.8-5.52,31.75-15.59,48.23-22,2-.79,4.19-1.58,5.69-3.17s2.14-4.26.78-6c6.76-.18,13.52-.66,20.24-1.42,1.26-.15,2.76-.46,3.78.54s-.06,2.1-.73,3a47.42,47.42,0,0,1-13.67,11.85Z"/><path class="cls-53" d="M303.29,262.57c-18.93,2.71-36.79,10.19-54.42,17.61-1.29.55-2.82,1.44-2.73,2.84a81,81,0,0,1,15.56-.45c6.68.46,13.86,2.08,18.16,7.22-11.38,2.48-23.36,4.94-34.48,1.5-3.7-1.15-8.28-2.73-11,.06a16.66,16.66,0,0,0-1.64,2.4c-2.32,3.45-6.47,5.15-9.43,8.06-2.54,2.5-4.12,5.81-6.31,8.63s-5.45,5.28-9,4.89c-3.37-.37-3-7.28-2.14-9.14,0-.06,0-.13-.1-.09-2.81,1.83-6.95,2.81-11.36,4.83-5.18,2.38-10.74,6.83-15,9.19-1,.59-2.17.16-3.37.2a2.83,2.83,0,0,1-2.86-1.77c-.17-.59-.48-1.55.07-1.81,3.75-1.8,2.29-7.11,2.29-7.11s9.67-1.42,10.27-3.93c.16-.7.06-1.44.22-2.15.47-2.11,2.89-3,4.92-3.78A48.33,48.33,0,0,0,204.5,292a62.1,62.1,0,0,1,5.63-4.35c4.74-3,10.81-4.08,14.47-8.32.81-.93,1.46-2,2.24-2.95,3.82-4.77,10-6.79,15.89-8.57L283,255.6c5.73-1.74,11.56-3.53,16.47-6.95a21.35,21.35,0,0,1,4.22-2.65c4.56-1.81,10.47,1,13.33,4.7,3.36,4.3-.55,8.33-4.7,10A40,40,0,0,1,303.29,262.57Z"/><path class="cls-54" d="M297.21,247.83a2.24,2.24,0,0,0-.18,1.47A1.52,1.52,0,0,0,299,250a15.76,15.76,0,0,0,2-1.08c2.45-1.21,5.34.24,7.54,1.86s4.51,3.56,7.23,3.39c2.16-.13,4-1.57,5.59-3a11.47,11.47,0,0,0,2.39-2.68,12.33,12.33,0,0,0,1.24-4.73,11.42,11.42,0,0,0,.07-3.45,11.21,11.21,0,0,0-1.53-3.45l-1.94-3.32a5.33,5.33,0,0,0-1.11-1.46,4,4,0,0,0-2-.75c-3.84-.52-7.47,1.77-11.31,2.33-1.85.28-3.75.14-5.59.47-1.63.29-4.32,1.29-4.42,3.28a10.21,10.21,0,0,0,.51,2.55,14.37,14.37,0,0,1,.36,3.81A13.72,13.72,0,0,1,297.21,247.83Z"/><path class="cls-55" d="M208.23,310.27a2.33,2.33,0,0,1-.61,2.12c-.51.45-1.24.57-1.74,1a3.28,3.28,0,0,0-.83,1.84,39.17,39.17,0,0,0-.77,8.57c0,.53-.12,1.25-.65,1.27-1.53-3.07-3.1-6.38-2.67-9.79a13.35,13.35,0,0,1,2.51-5.81,5.21,5.21,0,0,1,1.69-1.71,2.11,2.11,0,0,1,2-.08c.38.25.48.89.66,1.28A4.56,4.56,0,0,1,208.23,310.27Z"/><path class="cls-56" d="M168.91,310.76a28.74,28.74,0,0,0-3,1.07,16.87,16.87,0,0,0-8.15,7.82,20,20,0,0,0-1.94,11.19,1.78,1.78,0,0,0,.71,1.49,22.78,22.78,0,0,1,6.56-13.14A13.32,13.32,0,0,1,166,317a9.68,9.68,0,0,1,6.34-1,3.47,3.47,0,0,0,1.75.06,2.75,2.75,0,0,0,1.44-2,6.51,6.51,0,0,0,.27-2.36c-.16-1.68-1.93-1.82-3.31-1.76A14,14,0,0,0,168.91,310.76Z"/><path class="cls-57" d="M180.35,304.54a8.27,8.27,0,0,0-3.31,5.15c0,.17,0,.37.09.47a.47.47,0,0,0,.31.06c2.24-.07,4.07-1.7,6.06-2.74a5.22,5.22,0,0,0,2-1.37,4,4,0,0,0,.55-1.88,1.91,1.91,0,0,0-.22-1.5c-.38-.44-.95-.25-1.43-.11a14.17,14.17,0,0,0-2,.71A11.23,11.23,0,0,0,180.35,304.54Z"/></g></g></g></svg>